# Blender 5.2.0 LTS
# www.blender.org
o Teaspoon_LOD1_7
v 0.078873 0.000000 -0.044096
v 0.076573 0.040839 -0.042703
v 0.104020 0.041364 -0.016868
v 0.107143 0.000000 -0.017857
v 0.070135 0.080566 -0.038940
v 0.095275 0.082364 -0.014317
v 0.060249 0.117455 -0.033437
v 0.081849 0.120811 -0.010829
v 0.047607 0.149777 -0.026819
v 0.064681 0.154520 -0.007028
v 0.032902 0.175807 -0.019716
v 0.044708 0.181305 -0.003540
v 0.016825 0.193816 -0.012753
v 0.022870 0.198980 -0.000989
v 0.000067 0.202077 -0.006560
v 0.000107 0.205357 0.000000
v 0.048261 0.000000 -0.061589
v 0.046854 0.040488 -0.059926
v 0.042913 0.079367 -0.055356
v 0.036863 0.115217 -0.048509
v 0.029127 0.146616 -0.040014
v 0.020128 0.172142 -0.030500
v 0.010290 0.190374 -0.020596
v 0.016243 0.000000 -0.070335
v 0.015769 0.040313 -0.068537
v 0.014443 0.078768 -0.063564
v 0.012407 0.114098 -0.056045
v 0.009803 0.145035 -0.046611
v 0.006774 0.170309 -0.035891
v 0.003463 0.188653 -0.024518
v -0.016243 0.000000 -0.070335
v -0.015769 0.040313 -0.068537
v -0.014443 0.078768 -0.063564
v -0.012407 0.114098 -0.056045
v -0.009803 0.145035 -0.046611
v -0.006774 0.170309 -0.035891
v -0.003463 0.188653 -0.024518
v 0.000000 0.198798 -0.013119
v -0.048261 0.000000 -0.061589
v -0.046854 0.040488 -0.059926
v -0.042913 0.079367 -0.055356
v -0.036863 0.115217 -0.048509
v -0.029127 0.146616 -0.040014
v -0.020128 0.172142 -0.030500
v -0.010290 0.190374 -0.020596
v 0.000000 0.199891 -0.010933
v -0.078873 0.000000 -0.044096
v -0.076573 0.040839 -0.042703
v -0.070135 0.080566 -0.038940
v -0.060249 0.117455 -0.033437
v -0.047607 0.149777 -0.026819
v -0.032902 0.175807 -0.019716
v -0.016825 0.193816 -0.012753
v -0.000067 0.202077 -0.006560
v -0.107143 0.000000 -0.017857
v -0.104020 0.041364 -0.016868
v -0.095275 0.082364 -0.014317
v -0.081849 0.120811 -0.010829
v -0.064681 0.154520 -0.007028
v -0.044708 0.181305 -0.003540
v -0.022870 0.198980 -0.000989
v -0.000107 0.205357 0.000000
v 0.130453 0.000000 -0.009892
v 0.126651 0.041963 -0.009044
v 0.121356 0.041859 -0.016868
v 0.125000 0.000000 -0.017857
v 0.116004 0.084485 -0.006909
v 0.111155 0.084134 -0.014317
v 0.099658 0.124970 -0.004100
v 0.095491 0.124325 -0.010829
v 0.078754 0.160821 -0.001227
v 0.075461 0.159935 -0.007028
v 0.054437 0.189442 0.001095
v 0.052159 0.188464 -0.003540
v 0.027850 0.208238 0.002255
v 0.026682 0.207414 -0.000989
v 0.000136 0.214611 0.001640
v 0.000125 0.214286 0.000000
v 0.132002 0.000000 -0.004972
v 0.128154 0.041980 -0.004207
v 0.117382 0.084532 -0.002318
v 0.100841 0.125027 0.000087
v 0.079690 0.160838 0.002403
v 0.055085 0.189336 0.004020
v 0.028183 0.207893 0.004333
v 0.000141 0.213882 0.002733
v 0.130388 0.000000 -0.002863
v 0.126588 0.041927 -0.002130
v 0.115947 0.084336 -0.000336
v 0.099609 0.124620 0.001912
v 0.078717 0.160175 0.004005
v 0.054413 0.188396 0.005336
v 0.027840 0.206676 0.005297
v 0.000140 0.212412 0.003280
v 0.126354 0.000000 -0.003332
v 0.122671 0.041822 -0.002585
v 0.112359 0.083959 -0.000753
v 0.096527 0.123872 0.001552
v 0.076282 0.159023 0.003720
v 0.052730 0.186872 0.005139
v 0.026979 0.204881 0.005196
v 0.000136 0.210511 0.003280
v 0.120640 0.000000 -0.006143
v 0.117123 0.041682 -0.005345
v 0.107279 0.083464 -0.003362
v 0.092162 0.122906 -0.000810
v 0.072832 0.157570 0.001692
v 0.050345 0.185016 0.003528
v 0.025758 0.202803 0.004081
v 0.000129 0.208494 0.002733
v 0.113989 0.000000 -0.011063
v 0.110666 0.041523 -0.010182
v 0.101364 0.082911 -0.007952
v 0.087081 0.121845 -0.004997
v 0.068816 0.156006 -0.001938
v 0.047568 0.183077 0.000602
v 0.024336 0.200738 0.002002
v 0.000119 0.206672 0.001640
v -0.092409 0.000000 -0.050656
v -0.089715 0.041333 -0.049074
v -0.121356 0.041859 -0.016868
v -0.125000 0.000000 -0.017857
v -0.082173 0.082336 -0.044783
v -0.111155 0.084134 -0.014317
v -0.070593 0.120969 -0.038464
v -0.095491 0.124325 -0.010829
v -0.055784 0.155192 -0.030800
v -0.075461 0.159935 -0.007028
v -0.038555 0.182966 -0.022474
v -0.052159 0.188464 -0.003540
v -0.019717 0.202250 -0.014166
v -0.026682 0.207414 -0.000989
v -0.000078 0.211006 -0.006560
v -0.000125 0.214286 0.000000
v -0.056695 0.000000 -0.072522
v -0.055042 0.040983 -0.070545
v -0.050415 0.081138 -0.065093
v -0.043310 0.118731 -0.056887
v -0.034223 0.152030 -0.046648
v -0.023652 0.179300 -0.035096
v -0.012093 0.198808 -0.022951
v 0.000000 0.208819 -0.010933
v -0.019107 0.000000 -0.083455
v -0.018550 0.040807 -0.081280
v -0.016990 0.080538 -0.075248
v -0.014596 0.117612 -0.066099
v -0.011533 0.150449 -0.054572
v -0.007971 0.177467 -0.041407
v -0.004075 0.197087 -0.027343
v 0.000000 0.207726 -0.013119
v 0.019107 0.000000 -0.083455
v 0.018550 0.040807 -0.081280
v 0.016990 0.080538 -0.075248
v 0.014596 0.117612 -0.066099
v 0.011533 0.150449 -0.054572
v 0.007971 0.177467 -0.041407
v 0.004075 0.197087 -0.027343
v 0.056695 0.000000 -0.072522
v 0.055042 0.040983 -0.070545
v 0.050415 0.081138 -0.065093
v 0.043310 0.118731 -0.056887
v 0.034223 0.152030 -0.046648
v 0.023652 0.179300 -0.035096
v 0.012093 0.198808 -0.022951
v 0.092409 0.000000 -0.050656
v 0.089715 0.041333 -0.049074
v 0.082173 0.082336 -0.044783
v 0.070593 0.120969 -0.038464
v 0.055784 0.155192 -0.030800
v 0.038555 0.182966 -0.022474
v 0.019717 0.202250 -0.014166
v 0.000078 0.211006 -0.006560
v -0.113989 0.000000 -0.011063
v -0.110666 0.041523 -0.010182
v -0.101364 0.082911 -0.007952
v -0.087081 0.121845 -0.004997
v -0.068816 0.156006 -0.001938
v -0.047568 0.183077 0.000602
v -0.024336 0.200738 0.002002
v -0.000119 0.206672 0.001640
v -0.120640 0.000000 -0.006143
v -0.117123 0.041682 -0.005345
v -0.107279 0.083464 -0.003362
v -0.092162 0.122906 -0.000810
v -0.072832 0.157570 0.001692
v -0.050345 0.185016 0.003528
v -0.025758 0.202803 0.004081
v -0.000129 0.208494 0.002733
v -0.126354 0.000000 -0.003332
v -0.122671 0.041822 -0.002585
v -0.112359 0.083959 -0.000753
v -0.096527 0.123872 0.001552
v -0.076282 0.159023 0.003720
v -0.052730 0.186872 0.005139
v -0.026979 0.204881 0.005196
v -0.000136 0.210511 0.003280
v -0.130388 0.000000 -0.002863
v -0.126588 0.041927 -0.002130
v -0.115947 0.084336 -0.000336
v -0.099609 0.124620 0.001912
v -0.078717 0.160175 0.004005
v -0.054413 0.188396 0.005336
v -0.027840 0.206676 0.005297
v -0.000140 0.212412 0.003280
v -0.132002 0.000000 -0.004972
v -0.128154 0.041980 -0.004207
v -0.117382 0.084532 -0.002318
v -0.100841 0.125027 0.000087
v -0.079690 0.160838 0.002403
v -0.055085 0.189336 0.004020
v -0.028183 0.207893 0.004333
v -0.000141 0.213882 0.002733
v -0.130453 0.000000 -0.009892
v -0.126651 0.041963 -0.009044
v -0.116004 0.084485 -0.006909
v -0.099658 0.124970 -0.004100
v -0.078754 0.160821 -0.001227
v -0.054437 0.189442 0.001095
v -0.027850 0.208238 0.002255
v -0.000136 0.214611 0.001640
v 0.009859 -0.250000 0.053571
v 0.013682 -0.215535 0.043475
v 0.018586 -0.215535 0.044929
v 0.013393 -0.250000 0.053571
v 0.023541 -0.186381 0.027701
v 0.031979 -0.186381 0.032902
v 0.037022 -0.159100 0.008883
v 0.050292 -0.159100 0.019210
v 0.051710 -0.130258 -0.010342
v 0.070244 -0.130258 0.005570
v 0.065191 -0.096418 -0.027337
v 0.088557 -0.096418 -0.006300
v 0.075051 -0.054144 -0.039467
v 0.101950 -0.054144 -0.014681
v 0.006032 -0.250000 0.053571
v 0.008371 -0.215535 0.042506
v 0.014404 -0.186381 0.024233
v 0.022653 -0.159100 0.001998
v 0.031640 -0.130258 -0.020949
v 0.039889 -0.096418 -0.041362
v 0.045922 -0.054144 -0.055991
v 0.002030 -0.250000 0.053571
v 0.002818 -0.215535 0.042022
v 0.004848 -0.186381 0.022499
v 0.007624 -0.159100 -0.001444
v 0.010649 -0.130258 -0.026253
v 0.013426 -0.096418 -0.048374
v 0.015456 -0.054144 -0.064253
v -0.002030 -0.250000 0.053571
v -0.002818 -0.215535 0.042022
v -0.004848 -0.186381 0.022499
v -0.007624 -0.159100 -0.001444
v -0.010649 -0.130258 -0.026253
v -0.013426 -0.096418 -0.048374
v -0.015456 -0.054144 -0.064253
v -0.006032 -0.250000 0.053571
v -0.008371 -0.215535 0.042506
v -0.014404 -0.186381 0.024233
v -0.022653 -0.159100 0.001998
v -0.031640 -0.130258 -0.020949
v -0.039889 -0.096418 -0.041362
v -0.045922 -0.054144 -0.055991
v -0.009859 -0.250000 0.053571
v -0.013682 -0.215535 0.043475
v -0.023541 -0.186381 0.027701
v -0.037022 -0.159100 0.008883
v -0.051710 -0.130258 -0.010341
v -0.065191 -0.096418 -0.027337
v -0.075051 -0.054144 -0.039467
v -0.013393 -0.250000 0.053571
v -0.018586 -0.215535 0.044929
v -0.031979 -0.186381 0.032902
v -0.050292 -0.159100 0.019210
v -0.070244 -0.130258 0.005570
v -0.088557 -0.096418 -0.006300
v -0.101950 -0.054144 -0.014681
v 0.016307 -0.250000 0.045665
v 0.022630 -0.215535 0.037901
v 0.021684 -0.215535 0.036495
v 0.015625 -0.250000 0.044643
v 0.038936 -0.186381 0.028143
v 0.037309 -0.186381 0.025744
v 0.061233 -0.159100 0.017551
v 0.058673 -0.159100 0.013796
v 0.085527 -0.130258 0.007289
v 0.081952 -0.130258 0.002056
v 0.107824 -0.096418 -0.001481
v 0.103316 -0.096418 -0.008070
v 0.124130 -0.054144 -0.007595
v 0.118941 -0.054144 -0.015176
v 0.016500 -0.250000 0.047145
v 0.022898 -0.215535 0.039573
v 0.039399 -0.186381 0.030305
v 0.061960 -0.159100 0.020385
v 0.086542 -0.130258 0.010855
v 0.109104 -0.096418 0.002757
v 0.125604 -0.054144 -0.002866
v 0.016299 -0.250000 0.048860
v 0.022619 -0.215535 0.041309
v 0.038917 -0.186381 0.032098
v 0.061203 -0.159100 0.022255
v 0.085484 -0.130258 0.012808
v 0.107770 -0.096418 0.004788
v 0.124069 -0.054144 -0.000779
v 0.015794 -0.250000 0.050585
v 0.021919 -0.215535 0.042912
v 0.037713 -0.186381 0.033387
v 0.059309 -0.159100 0.023116
v 0.082839 -0.130258 0.013203
v 0.104435 -0.096418 0.004754
v 0.120229 -0.054144 -0.001126
v 0.015080 -0.250000 0.052094
v 0.020928 -0.215535 0.044182
v 0.036007 -0.186381 0.034040
v 0.056627 -0.159100 0.022925
v 0.079093 -0.130258 0.012092
v 0.099713 -0.096418 0.002799
v 0.114793 -0.054144 -0.003698
v 0.014249 -0.250000 0.053165
v 0.019774 -0.215535 0.044921
v 0.034022 -0.186381 0.033923
v 0.053505 -0.159100 0.021638
v 0.074733 -0.130258 0.009530
v 0.094215 -0.096418 -0.000933
v 0.108464 -0.054144 -0.008286
v -0.011902 -0.250000 0.041480
v -0.016362 -0.215535 0.031690
v -0.021684 -0.215535 0.036495
v -0.015625 -0.250000 0.044643
v -0.027863 -0.186381 0.016706
v -0.037309 -0.186381 0.025744
v -0.043589 -0.159100 -0.001031
v -0.058673 -0.159100 0.013796
v -0.060723 -0.130258 -0.019078
v -0.081952 -0.130258 0.002056
v -0.076449 -0.096418 -0.034993
v -0.103316 -0.096418 -0.008070
v -0.087950 -0.054144 -0.046333
v -0.118941 -0.054144 -0.015176
v -0.007574 -0.250000 0.039567
v -0.010295 -0.215535 0.028672
v -0.017312 -0.186381 0.010837
v -0.026907 -0.159100 -0.010798
v -0.037362 -0.130258 -0.033091
v -0.046957 -0.096418 -0.052904
v -0.053974 -0.054144 -0.067094
v -0.002856 -0.250000 0.038786
v -0.003756 -0.215535 0.027329
v -0.006078 -0.186381 0.008043
v -0.009252 -0.159100 -0.015574
v -0.012711 -0.130258 -0.040029
v -0.015885 -0.096418 -0.061824
v -0.018206 -0.054144 -0.077465
v 0.002037 -0.250000 0.039020
v 0.002983 -0.215535 0.027550
v 0.005421 -0.186381 0.008231
v 0.008756 -0.159100 -0.015432
v 0.012388 -0.130258 -0.039936
v 0.015723 -0.096418 -0.061777
v 0.018161 -0.054144 -0.077452
v 0.006892 -0.250000 0.040153
v 0.009651 -0.215535 0.029225
v 0.016765 -0.186381 0.011307
v 0.026494 -0.159100 -0.010442
v 0.037093 -0.130258 -0.032861
v 0.046822 -0.096418 -0.052787
v 0.053936 -0.054144 -0.067061
v 0.011493 -0.250000 0.042066
v 0.015975 -0.215535 0.032244
v 0.027534 -0.186381 0.017175
v 0.043340 -0.159100 -0.000676
v 0.060562 -0.130258 -0.018848
v 0.076368 -0.096418 -0.034877
v 0.087927 -0.054144 -0.046301
v -0.014234 -0.250000 0.053194
v -0.019760 -0.215535 0.044949
v -0.034011 -0.186381 0.033947
v -0.053496 -0.159100 0.021655
v -0.074727 -0.130258 0.009542
v -0.094213 -0.096418 -0.000927
v -0.108463 -0.054144 -0.008285
v -0.015031 -0.250000 0.052192
v -0.020881 -0.215535 0.044274
v -0.035968 -0.186381 0.034119
v -0.056597 -0.159100 0.022984
v -0.079074 -0.130258 0.012131
v -0.099703 -0.096418 0.002818
v -0.114790 -0.054144 -0.003693
v -0.015707 -0.250000 0.050760
v -0.021836 -0.215535 0.043078
v -0.037643 -0.186381 0.033528
v -0.059256 -0.159100 0.023222
v -0.082805 -0.130258 0.013272
v -0.104418 -0.096418 0.004789
v -0.120225 -0.054144 -0.001117
v -0.016182 -0.250000 0.049094
v -0.022508 -0.215535 0.041530
v -0.038823 -0.186381 0.032285
v -0.061132 -0.159100 0.022396
v -0.085438 -0.130258 0.012900
v -0.107747 -0.096418 0.004834
v -0.124062 -0.054144 -0.000766
v -0.016379 -0.250000 0.047389
v -0.022783 -0.215535 0.039803
v -0.039301 -0.186381 0.030500
v -0.061886 -0.159100 0.020533
v -0.086494 -0.130258 0.010951
v -0.109080 -0.096418 0.002805
v -0.125597 -0.054144 -0.002852
v -0.016219 -0.250000 0.045840
v -0.022547 -0.215535 0.038067
v -0.038866 -0.186381 0.028283
v -0.061180 -0.159100 0.017657
v -0.085492 -0.130258 0.007358
v -0.107806 -0.096418 -0.001446
v -0.124126 -0.054144 -0.007585
v 0.030326 -0.857143 0.038994
v 0.029192 -0.778528 0.047299
v 0.042912 -0.778528 0.044200
v 0.044643 -0.857143 0.035714
v 0.026268 -0.696162 0.055941
v 0.038448 -0.696162 0.053311
v 0.022270 -0.610672 0.063474
v 0.032343 -0.610672 0.061485
v 0.017914 -0.522684 0.068450
v 0.025692 -0.522684 0.067159
v 0.013916 -0.432825 0.069424
v 0.019588 -0.432825 0.068773
v 0.010992 -0.341721 0.064946
v 0.015124 -0.341721 0.064765
v 0.017571 -0.857143 0.041181
v 0.016932 -0.778528 0.049364
v 0.015283 -0.696162 0.057694
v 0.013029 -0.610672 0.064800
v 0.010574 -0.522684 0.069311
v 0.008320 -0.432825 0.069857
v 0.006671 -0.341721 0.065067
v 0.005753 -0.857143 0.042274
v 0.005547 -0.778528 0.050397
v 0.005015 -0.696162 0.058570
v 0.004288 -0.610672 0.065463
v 0.003495 -0.522684 0.069741
v 0.002768 -0.432825 0.070074
v 0.002236 -0.341721 0.065128
v -0.005753 -0.857143 0.042274
v -0.005547 -0.778528 0.050397
v -0.005015 -0.696162 0.058570
v -0.004288 -0.610672 0.065463
v -0.003495 -0.522684 0.069741
v -0.002768 -0.432825 0.070074
v -0.002236 -0.341721 0.065128
v -0.017571 -0.857143 0.041181
v -0.016932 -0.778528 0.049364
v -0.015283 -0.696162 0.057694
v -0.013029 -0.610672 0.064800
v -0.010574 -0.522684 0.069311
v -0.008320 -0.432825 0.069857
v -0.006671 -0.341721 0.065067
v -0.030326 -0.857143 0.038994
v -0.029192 -0.778528 0.047299
v -0.026268 -0.696162 0.055941
v -0.022270 -0.610672 0.063474
v -0.017914 -0.522684 0.068450
v -0.013916 -0.432825 0.069424
v -0.010992 -0.341721 0.064946
v -0.044643 -0.857143 0.035714
v -0.042912 -0.778528 0.044200
v -0.038448 -0.696162 0.053311
v -0.032343 -0.610672 0.061485
v -0.025692 -0.522684 0.067159
v -0.019588 -0.432825 0.068773
v -0.015124 -0.341721 0.064765
v 0.047923 -0.857143 0.018026
v 0.046171 -0.778528 0.027054
v 0.043035 -0.778528 0.026838
v 0.044643 -0.857143 0.017857
v 0.041655 -0.696162 0.037562
v 0.038890 -0.696162 0.037224
v 0.035479 -0.610672 0.047647
v 0.033222 -0.610672 0.047142
v 0.028750 -0.522685 0.055403
v 0.027046 -0.522684 0.054717
v 0.022575 -0.432826 0.058928
v 0.021378 -0.432825 0.058075
v 0.018058 -0.341722 0.056316
v 0.017232 -0.341721 0.055342
v 0.050109 -0.857143 0.020031
v 0.048248 -0.778528 0.029030
v 0.043446 -0.696163 0.039463
v 0.036881 -0.610674 0.049445
v 0.029728 -0.522686 0.057090
v 0.023163 -0.432828 0.060512
v 0.018362 -0.341723 0.057826
v 0.051203 -0.857143 0.023245
v 0.049269 -0.778528 0.032161
v 0.044283 -0.696164 0.042380
v 0.037465 -0.610675 0.052069
v 0.030036 -0.522689 0.059395
v 0.023218 -0.432830 0.062524
v 0.018232 -0.341725 0.059624
v 0.051203 -0.857143 0.027046
v 0.049241 -0.778529 0.035847
v 0.044183 -0.696165 0.045769
v 0.037266 -0.610676 0.055053
v 0.029731 -0.522690 0.061937
v 0.022814 -0.432831 0.064660
v 0.017756 -0.341726 0.061463
v 0.050109 -0.857143 0.030807
v 0.048169 -0.778529 0.039483
v 0.043165 -0.696165 0.049084
v 0.036322 -0.610677 0.057928
v 0.028867 -0.522690 0.064333
v 0.022025 -0.432832 0.066616
v 0.017021 -0.341726 0.063098
v 0.047923 -0.857143 0.033905
v 0.046057 -0.778528 0.042469
v 0.041247 -0.696164 0.051780
v 0.034669 -0.610675 0.060228
v 0.027502 -0.522689 0.066201
v 0.020925 -0.432830 0.068089
v 0.016114 -0.341725 0.064280
v -0.030326 -0.857143 0.021137
v -0.029305 -0.778528 0.029761
v -0.043035 -0.778528 0.026838
v -0.044643 -0.857143 0.017857
v -0.026673 -0.696162 0.039227
v -0.038890 -0.696162 0.037224
v -0.023075 -0.610672 0.047886
v -0.033222 -0.610672 0.047142
v -0.019153 -0.522685 0.054090
v -0.027046 -0.522684 0.054717
v -0.015555 -0.432826 0.056189
v -0.021378 -0.432825 0.058075
v -0.012923 -0.341722 0.052536
v -0.017232 -0.341721 0.055342
v -0.017571 -0.857143 0.023324
v -0.017017 -0.778528 0.031720
v -0.015589 -0.696163 0.040600
v -0.013636 -0.610674 0.048459
v -0.011509 -0.522686 0.053790
v -0.009556 -0.432828 0.055089
v -0.008128 -0.341723 0.050849
v -0.005753 -0.857143 0.024417
v -0.005592 -0.778528 0.032710
v -0.005179 -0.696164 0.041322
v -0.004613 -0.610675 0.048815
v -0.003996 -0.522689 0.053747
v -0.003430 -0.432830 0.054679
v -0.003017 -0.341725 0.050172
v 0.005753 -0.857143 0.024417
v 0.005547 -0.778529 0.032723
v 0.005016 -0.696165 0.041369
v 0.004291 -0.610676 0.048907
v 0.003500 -0.522690 0.053889
v 0.002774 -0.432831 0.054867
v 0.002243 -0.341726 0.050394
v 0.017571 -0.857143 0.023324
v 0.016979 -0.778529 0.031753
v 0.015454 -0.696165 0.040717
v 0.013368 -0.610677 0.048689
v 0.011095 -0.522690 0.054145
v 0.009009 -0.432832 0.055558
v 0.007484 -0.341726 0.051403
v 0.030326 -0.857143 0.021137
v 0.029283 -0.778528 0.029793
v 0.026592 -0.696164 0.039343
v 0.022913 -0.610675 0.048116
v 0.018905 -0.522689 0.054445
v 0.015226 -0.432830 0.056659
v 0.012536 -0.341725 0.053089
v -0.047923 -0.857143 0.033905
v -0.046057 -0.778529 0.042470
v -0.041244 -0.696164 0.051786
v -0.034663 -0.610676 0.060239
v -0.027494 -0.522689 0.066219
v -0.020913 -0.432831 0.068112
v -0.016100 -0.341725 0.064308
v -0.050109 -0.857143 0.030807
v -0.048166 -0.778529 0.039489
v -0.043155 -0.696166 0.049104
v -0.036303 -0.610679 0.057966
v -0.028838 -0.522693 0.064392
v -0.021986 -0.432834 0.066694
v -0.016975 -0.341728 0.063190
v -0.051203 -0.857143 0.027046
v -0.049236 -0.778529 0.035856
v -0.044166 -0.696167 0.045804
v -0.037232 -0.610680 0.055122
v -0.029677 -0.522695 0.062043
v -0.022744 -0.432836 0.064801
v -0.017673 -0.341730 0.061629
v -0.051203 -0.857143 0.023245
v -0.049263 -0.778529 0.032174
v -0.044260 -0.696167 0.042427
v -0.037419 -0.610680 0.052161
v -0.029965 -0.522695 0.059537
v -0.023125 -0.432836 0.062712
v -0.018122 -0.341730 0.059845
v -0.050109 -0.857143 0.020031
v -0.048241 -0.778529 0.029043
v -0.043422 -0.696166 0.039511
v -0.036833 -0.610679 0.049541
v -0.029655 -0.522693 0.057238
v -0.023066 -0.432834 0.060707
v -0.018247 -0.341728 0.058056
v -0.047923 -0.857143 0.018026
v -0.046167 -0.778529 0.027064
v -0.041637 -0.696164 0.037597
v -0.035445 -0.610676 0.047716
v -0.028697 -0.522689 0.055509
v -0.022504 -0.432831 0.059068
v -0.017975 -0.341725 0.056482
v 0.012270 -0.995723 0.018653
v 0.019341 -0.995723 0.018471
v 0.020711 -0.984017 0.020798
v 0.032278 -0.984017 0.020148
v 0.026044 -0.966114 0.023927
v 0.040061 -0.966114 0.022636
v 0.028970 -0.943244 0.027676
v 0.043940 -0.943244 0.025687
v 0.030191 -0.916639 0.031680
v 0.045164 -0.916639 0.029050
v 0.030409 -0.887528 0.035574
v 0.044981 -0.887528 0.032476
v 0.006778 -0.995723 0.018774
v 0.011518 -0.984017 0.021232
v 0.014620 -0.966114 0.024788
v 0.016430 -0.943244 0.029002
v 0.017295 -0.916639 0.033433
v 0.017559 -0.887528 0.037640
v 0.002218 -0.995723 0.018835
v 0.003735 -0.984017 0.021448
v 0.004741 -0.966114 0.025218
v 0.005341 -0.943244 0.029665
v 0.005640 -0.916639 0.034310
v 0.005742 -0.887528 0.038672
v -0.002060 -0.995723 0.018835
v -0.003601 -0.984017 0.021448
v -0.004640 -0.966114 0.025218
v -0.005275 -0.943244 0.029665
v -0.005607 -0.916639 0.034310
v -0.005733 -0.887528 0.038672
v 0.000044 -1.000000 0.017857
v -0.006703 -0.995723 0.018774
v -0.011454 -0.984017 0.021232
v -0.014572 -0.966114 0.024788
v -0.016399 -0.943244 0.029002
v -0.017279 -0.916639 0.033433
v -0.017555 -0.887528 0.037640
v -0.000112 -1.000000 0.017857
v -0.012359 -0.995723 0.018653
v -0.020787 -0.984017 0.020798
v -0.026102 -0.966114 0.023927
v -0.029008 -0.943244 0.027676
v -0.030210 -0.916639 0.031680
v -0.030415 -0.887528 0.035574
v -0.000357 -1.000000 0.017857
v -0.019678 -0.995723 0.018471
v -0.032565 -0.984017 0.020148
v -0.040278 -0.966114 0.022636
v -0.044081 -0.943244 0.025687
v -0.045234 -0.916639 0.029050
v -0.045001 -0.887528 0.032476
v 0.000337 -1.000000 0.000989
v 0.021390 -0.995723 0.001558
v 0.019678 -0.995723 0.000614
v 0.035350 -0.984017 0.003117
v 0.032565 -0.984017 0.002291
v 0.043622 -0.966114 0.005446
v 0.040278 -0.966114 0.004779
v 0.047611 -0.943244 0.008322
v 0.044081 -0.943244 0.007830
v 0.048721 -0.916639 0.011525
v 0.045234 -0.916639 0.011193
v 0.048356 -0.887528 0.014833
v 0.045001 -0.887528 0.014619
v 0.000286 -1.000000 0.003540
v 0.022496 -0.995723 0.004079
v 0.037177 -0.984017 0.005560
v 0.045829 -0.966114 0.007782
v 0.049950 -0.943244 0.010541
v 0.051037 -0.916639 0.013638
v 0.050591 -0.887528 0.016868
v 0.000217 -1.000000 0.007028
v 0.023007 -0.995723 0.007552
v 0.038055 -0.984017 0.008994
v 0.046906 -0.966114 0.011162
v 0.051101 -0.943244 0.013864
v 0.052187 -0.916639 0.016907
v 0.051706 -0.887528 0.020098
v 0.000141 -1.000000 0.010829
v 0.022935 -0.995723 0.011352
v 0.037994 -0.984017 0.012794
v 0.046859 -0.966114 0.014963
v 0.051071 -0.943244 0.017664
v 0.052172 -0.916639 0.020707
v 0.051702 -0.887528 0.023899
v 0.000071 -1.000000 0.014317
v 0.022292 -0.995723 0.014856
v 0.037005 -0.984017 0.016337
v 0.045698 -0.966114 0.018558
v 0.049865 -0.943244 0.021318
v 0.050995 -0.916639 0.024414
v 0.050579 -0.887528 0.027645
v 0.000020 -1.000000 0.016868
v 0.021090 -0.995723 0.017437
v 0.035096 -0.984017 0.018996
v 0.043430 -0.966114 0.021324
v 0.047486 -0.943244 0.024201
v 0.048658 -0.916639 0.027404
v 0.048339 -0.887528 0.030712
v -0.012553 -0.995723 0.000796
v -0.019678 -0.995723 0.000614
v -0.000337 -1.000000 -0.000000
v -0.020952 -0.984017 0.002941
v -0.032565 -0.984017 0.002291
v -0.026226 -0.966114 0.006070
v -0.040278 -0.966114 0.004779
v -0.029088 -0.943244 0.009819
v -0.044081 -0.943244 0.007830
v -0.030251 -0.916639 0.013823
v -0.045234 -0.916639 0.011193
v -0.030426 -0.887528 0.017717
v -0.045001 -0.887528 0.014619
v -0.000216 -1.000000 -0.000000
v -0.006931 -0.995723 0.000917
v -0.011648 -0.984017 0.003374
v -0.014718 -0.966114 0.006931
v -0.016494 -0.943244 0.011145
v -0.017327 -0.916639 0.015576
v -0.017568 -0.887528 0.019783
v -0.000076 -1.000000 -0.000000
v -0.002210 -0.995723 0.000978
v -0.003729 -0.984017 0.003591
v -0.004736 -0.966114 0.007361
v -0.005338 -0.943244 0.011808
v -0.005638 -0.916639 0.016453
v -0.005742 -0.887528 0.020815
v 0.000076 -1.000000 -0.000000
v 0.002210 -0.995723 0.000978
v 0.003729 -0.984017 0.003591
v 0.004736 -0.966114 0.007361
v 0.005338 -0.943244 0.011808
v 0.005638 -0.916639 0.016453
v 0.005742 -0.887528 0.020815
v 0.000216 -1.000000 -0.000000
v 0.006931 -0.995723 0.000917
v 0.011648 -0.984017 0.003374
v 0.014718 -0.966114 0.006931
v 0.016494 -0.943244 0.011145
v 0.017327 -0.916639 0.015576
v 0.017568 -0.887528 0.019783
v 0.000337 -1.000000 -0.000000
v 0.012553 -0.995723 0.000796
v 0.020952 -0.984017 0.002941
v 0.026226 -0.966114 0.006070
v 0.029088 -0.943244 0.009819
v 0.030251 -0.916639 0.013823
v 0.030426 -0.887528 0.017717
v -0.000413 -1.000000 0.016868
v -0.021462 -0.995723 0.017437
v -0.035411 -0.984017 0.018996
v -0.043669 -0.966114 0.021324
v -0.047641 -0.943244 0.024201
v -0.048736 -0.916639 0.027404
v -0.048361 -0.887528 0.030712
v -0.000435 -1.000000 0.014317
v -0.022637 -0.995723 0.014856
v -0.037297 -0.984017 0.016337
v -0.045919 -0.966114 0.018558
v -0.050008 -0.943244 0.021318
v -0.051067 -0.916639 0.024414
v -0.050599 -0.887528 0.027645
v -0.000432 -1.000000 0.010829
v -0.023211 -0.995723 0.011352
v -0.038228 -0.984017 0.012794
v -0.047036 -0.966114 0.014963
v -0.051186 -0.943244 0.017664
v -0.052230 -0.916639 0.020707
v -0.051718 -0.887528 0.023899
v -0.000413 -1.000000 0.007028
v -0.023193 -0.995723 0.007552
v -0.038213 -0.984017 0.008994
v -0.047025 -0.966114 0.011162
v -0.051179 -0.943244 0.013864
v -0.052226 -0.916639 0.016907
v -0.051717 -0.887528 0.020098
v -0.000388 -1.000000 0.003540
v -0.022592 -0.995723 0.004079
v -0.037259 -0.984017 0.005560
v -0.045891 -0.966114 0.007782
v -0.049990 -0.943244 0.010541
v -0.051058 -0.916639 0.013638
v -0.050597 -0.887528 0.016868
v -0.000367 -1.000000 0.000989
v -0.021418 -0.995723 0.001558
v -0.035374 -0.984017 0.003117
v -0.043640 -0.966114 0.005446
v -0.047622 -0.943244 0.008322
v -0.048726 -0.916639 0.011525
v -0.048358 -0.887528 0.014833
vn -0.5932 0.0234 0.8047
vn -0.5941 -0.1163 0.7959
vn -0.6901 -0.1294 0.7121
vn -0.6926 0.0189 0.7211
vn -0.5905 -0.2204 0.7763
vn -0.6797 -0.2418 0.6924
vn -0.5802 -0.3206 0.7487
vn -0.6583 -0.3467 0.6681
vn -0.5589 -0.4272 0.7107
vn -0.6166 -0.4574 0.6407
vn -0.5055 -0.5623 0.6544
vn -0.5347 -0.5880 0.6070
vn -0.3599 -0.7450 0.5617
vn -0.3506 -0.7491 0.5621
vn -0.2404 -0.8617 0.4469
vn -0.2055 -0.8170 0.5387
vn -0.3835 0.0292 0.9231
vn -0.3867 -0.0995 0.9168
vn -0.3893 -0.1913 0.9010
vn -0.3903 -0.2819 0.8765
vn -0.3869 -0.3767 0.8417
vn -0.3662 -0.5078 0.7798
vn -0.2982 -0.6916 0.6579
vn -0.1334 0.0329 0.9905
vn -0.1352 -0.0893 0.9868
vn -0.1376 -0.1733 0.9752
vn -0.1401 -0.2571 0.9562
vn -0.1405 -0.3477 0.9270
vn -0.1357 -0.4683 0.8731
vn -0.1207 -0.6442 0.7553
vn 0.1334 0.0329 0.9905
vn 0.1352 -0.0893 0.9868
vn 0.1376 -0.1733 0.9752
vn 0.1401 -0.2571 0.9562
vn 0.1405 -0.3477 0.9270
vn 0.1357 -0.4683 0.8731
vn 0.1207 -0.6442 0.7553
vn -0.0000 -0.8658 0.5004
vn 0.3835 0.0292 0.9231
vn 0.3867 -0.0995 0.9168
vn 0.3893 -0.1913 0.9010
vn 0.3903 -0.2819 0.8765
vn 0.3869 -0.3767 0.8417
vn 0.3662 -0.5078 0.7798
vn 0.2982 -0.6916 0.6579
vn -0.0000 -0.8811 0.4729
vn 0.5932 0.0234 0.8047
vn 0.5941 -0.1163 0.7959
vn 0.5905 -0.2204 0.7763
vn 0.5802 -0.3206 0.7487
vn 0.5589 -0.4272 0.7107
vn 0.5055 -0.5623 0.6544
vn 0.3599 -0.7450 0.5617
vn 0.2404 -0.8617 0.4469
vn 0.6926 0.0189 0.7211
vn 0.6901 -0.1294 0.7121
vn 0.6797 -0.2418 0.6924
vn 0.6583 -0.3467 0.6681
vn 0.6166 -0.4574 0.6407
vn 0.5347 -0.5880 0.6070
vn 0.3506 -0.7491 0.5621
vn 0.2055 -0.8170 0.5387
vn 0.8999 -0.0162 -0.4358
vn 0.8891 0.1647 -0.4270
vn 0.7650 0.1504 -0.6263
vn 0.7717 -0.0173 -0.6358
vn 0.8614 0.3033 -0.4075
vn 0.7462 0.2771 -0.6053
vn 0.8190 0.4290 -0.3809
vn 0.7151 0.3923 -0.5786
vn 0.7534 0.5612 -0.3427
vn 0.6630 0.5123 -0.5459
vn 0.6367 0.7203 -0.2752
vn 0.5666 0.6549 -0.5001
vn 0.3968 0.9092 -0.1263
vn 0.3679 0.8283 -0.4226
vn 0.2253 0.9595 0.1690
vn 0.2275 0.9237 -0.3084
vn 0.9870 -0.0111 0.1606
vn 0.9734 0.1589 0.1652
vn 0.9402 0.2966 0.1676
vn 0.8878 0.4248 0.1771
vn 0.8026 0.5592 0.2079
vn 0.6482 0.7047 0.2883
vn 0.3504 0.8123 0.4662
vn 0.1154 0.6533 0.7483
vn 0.4207 0.0033 0.9072
vn 0.4126 0.0464 0.9097
vn 0.4083 0.0930 0.9081
vn 0.3974 0.1474 0.9057
vn 0.3652 0.2145 0.9059
vn 0.2841 0.2859 0.9152
vn 0.1105 0.3170 0.9420
vn -0.0186 0.2053 0.9785
vn -0.2730 0.0139 0.9619
vn -0.2745 -0.0739 0.9587
vn -0.2684 -0.1325 0.9542
vn -0.2513 -0.1764 0.9517
vn -0.2195 -0.2059 0.9536
vn -0.1710 -0.2140 0.9617
vn -0.1175 -0.1839 0.9759
vn -0.0895 -0.1195 0.9888
vn -0.5167 0.0166 0.8560
vn -0.5166 -0.1105 0.8491
vn -0.5092 -0.2033 0.8363
vn -0.4893 -0.2846 0.8244
vn -0.4481 -0.3609 0.8179
vn -0.3692 -0.4319 0.8229
vn -0.2304 -0.4684 0.8529
vn -0.1241 -0.3796 0.9168
vn -0.6495 0.0180 0.7601
vn -0.6476 -0.1266 0.7514
vn -0.6373 -0.2352 0.7339
vn -0.6141 -0.3340 0.7151
vn -0.5685 -0.4344 0.6987
vn -0.4792 -0.5448 0.6882
vn -0.3024 -0.6523 0.6950
vn -0.1634 -0.6360 0.7542
vn -0.6218 -0.0206 -0.7829
vn -0.6197 0.1320 -0.7737
vn -0.7650 0.1504 -0.6263
vn -0.7717 -0.0174 -0.6357
vn -0.6105 0.2466 -0.7527
vn -0.7462 0.2771 -0.6053
vn -0.5927 0.3534 -0.7238
vn -0.7151 0.3923 -0.5786
vn -0.5593 0.4662 -0.6854
vn -0.6630 0.5123 -0.5459
vn -0.4947 0.6003 -0.6284
vn -0.5666 0.6549 -0.5001
vn -0.3400 0.7757 -0.5317
vn -0.3679 0.8283 -0.4226
vn -0.2131 0.8716 -0.4414
vn -0.2275 0.9237 -0.3084
vn -0.4055 -0.0247 -0.9138
vn -0.4065 0.1150 -0.9064
vn -0.4052 0.2179 -0.8879
vn -0.4005 0.3163 -0.8600
vn -0.3901 0.4210 -0.8189
vn -0.3612 0.5512 -0.7521
vn -0.2701 0.7346 -0.6224
vn -0.0000 0.8870 -0.4618
vn -0.1415 -0.0278 -0.9895
vn -0.1427 0.1047 -0.9842
vn -0.1436 0.2002 -0.9692
vn -0.1439 0.2926 -0.9453
vn -0.1413 0.3915 -0.9093
vn -0.1320 0.5189 -0.8446
vn -0.1076 0.6975 -0.7084
vn -0.0000 0.8765 -0.4813
vn 0.1416 -0.0280 -0.9895
vn 0.1427 0.1047 -0.9842
vn 0.1436 0.2002 -0.9692
vn 0.1439 0.2926 -0.9453
vn 0.1413 0.3915 -0.9093
vn 0.1320 0.5189 -0.8446
vn 0.1076 0.6975 -0.7084
vn 0.4055 -0.0251 -0.9138
vn 0.4065 0.1150 -0.9064
vn 0.4052 0.2179 -0.8879
vn 0.4005 0.3163 -0.8600
vn 0.3901 0.4210 -0.8189
vn 0.3612 0.5512 -0.7521
vn 0.2701 0.7346 -0.6224
vn 0.6217 -0.0208 -0.7830
vn 0.6197 0.1320 -0.7737
vn 0.6105 0.2466 -0.7527
vn 0.5927 0.3534 -0.7238
vn 0.5593 0.4662 -0.6854
vn 0.4947 0.6003 -0.6284
vn 0.3400 0.7757 -0.5317
vn 0.2131 0.8716 -0.4414
vn 0.6495 0.0180 0.7601
vn 0.6476 -0.1266 0.7514
vn 0.6373 -0.2352 0.7339
vn 0.6141 -0.3340 0.7151
vn 0.5685 -0.4344 0.6987
vn 0.4792 -0.5448 0.6882
vn 0.3024 -0.6523 0.6950
vn 0.1634 -0.6360 0.7542
vn 0.5168 0.0167 0.8560
vn 0.5166 -0.1105 0.8491
vn 0.5092 -0.2033 0.8363
vn 0.4893 -0.2846 0.8244
vn 0.4481 -0.3609 0.8179
vn 0.3692 -0.4319 0.8229
vn 0.2304 -0.4684 0.8529
vn 0.1241 -0.3796 0.9168
vn 0.2730 0.0140 0.9619
vn 0.2745 -0.0739 0.9587
vn 0.2684 -0.1325 0.9542
vn 0.2513 -0.1764 0.9517
vn 0.2195 -0.2059 0.9536
vn 0.1710 -0.2140 0.9617
vn 0.1175 -0.1839 0.9759
vn 0.0895 -0.1195 0.9888
vn -0.4207 0.0034 0.9072
vn -0.4126 0.0464 0.9097
vn -0.4083 0.0930 0.9081
vn -0.3974 0.1474 0.9057
vn -0.3652 0.2145 0.9059
vn -0.2841 0.2859 0.9152
vn -0.1105 0.3170 0.9420
vn 0.0186 0.2053 0.9785
vn -0.9870 -0.0111 0.1605
vn -0.9734 0.1589 0.1652
vn -0.9402 0.2966 0.1676
vn -0.8878 0.4248 0.1771
vn -0.8026 0.5592 0.2079
vn -0.6482 0.7047 0.2883
vn -0.3504 0.8123 0.4662
vn -0.1154 0.6533 0.7483
vn -0.8999 -0.0162 -0.4358
vn -0.8891 0.1647 -0.4270
vn -0.8614 0.3033 -0.4075
vn -0.8190 0.4290 -0.3809
vn -0.7534 0.5612 -0.3427
vn -0.6367 0.7203 -0.2752
vn -0.3968 0.9092 -0.1263
vn -0.2253 0.9595 0.1690
vn -0.0039 0.2096 0.9778
vn -0.2122 0.4159 0.8843
vn -0.1459 0.3625 0.9205
vn 0.1997 0.1778 0.9636
vn -0.3552 0.5908 0.7245
vn -0.4063 0.5615 0.7208
vn -0.4024 0.6422 0.6524
vn -0.4756 0.6273 0.6166
vn -0.4543 0.5886 0.6687
vn -0.5357 0.5802 0.6135
vn -0.5206 0.4414 0.7309
vn -0.6109 0.4369 0.6602
vn -0.5737 0.2272 0.7870
vn -0.6716 0.2253 0.7058
vn -0.0019 0.2192 0.9757
vn -0.1199 0.4335 0.8932
vn -0.2118 0.6039 0.7684
vn -0.2490 0.6512 0.7169
vn -0.2873 0.5954 0.7503
vn -0.3329 0.4459 0.8309
vn -0.3692 0.2302 0.9004
vn -0.0000 0.2225 0.9749
vn -0.0373 0.4416 0.8965
vn -0.0689 0.6112 0.7885
vn -0.0833 0.6569 0.7493
vn -0.0977 0.6004 0.7937
vn -0.1152 0.4500 0.8856
vn -0.1285 0.2326 0.9640
vn 0.0373 0.4416 0.8965
vn 0.0689 0.6112 0.7885
vn 0.0833 0.6569 0.7493
vn 0.0977 0.6004 0.7937
vn 0.1152 0.4500 0.8856
vn 0.1285 0.2326 0.9640
vn 0.0019 0.2192 0.9757
vn 0.1199 0.4335 0.8932
vn 0.2118 0.6039 0.7684
vn 0.2490 0.6512 0.7169
vn 0.2873 0.5954 0.7503
vn 0.3329 0.4459 0.8309
vn 0.3692 0.2302 0.9004
vn 0.0039 0.2096 0.9778
vn 0.2122 0.4159 0.8843
vn 0.3552 0.5908 0.7245
vn 0.4024 0.6422 0.6524
vn 0.4543 0.5886 0.6687
vn 0.5206 0.4414 0.7309
vn 0.5737 0.2272 0.7870
vn -0.1896 0.1786 0.9655
vn 0.1561 0.3647 0.9180
vn 0.4102 0.5626 0.7178
vn 0.4770 0.6277 0.6152
vn 0.5363 0.5804 0.6129
vn 0.6112 0.4370 0.6599
vn 0.6717 0.2253 0.7058
vn 0.9282 -0.1365 -0.3462
vn 0.8483 -0.4079 -0.3376
vn 0.6518 -0.4273 -0.6265
vn 0.6814 -0.1816 -0.7090
vn 0.7251 -0.6140 -0.3119
vn 0.5950 -0.6078 -0.5258
vn 0.6731 -0.6732 -0.3062
vn 0.5706 -0.6615 -0.4867
vn 0.7069 -0.6241 -0.3328
vn 0.6069 -0.6105 -0.5089
vn 0.7926 -0.4769 -0.3800
vn 0.6818 -0.4634 -0.5661
vn 0.8716 -0.2504 -0.4214
vn 0.7483 -0.2415 -0.6178
vn 0.9967 -0.0816 -0.0024
vn 0.9389 -0.3442 0.0046
vn 0.8250 -0.5643 0.0289
vn 0.7758 -0.6275 0.0665
vn 0.8121 -0.5737 0.1067
vn 0.8929 -0.4291 0.1359
vn 0.9633 -0.2222 0.1506
vn 0.9781 -0.0427 0.2036
vn 0.9247 -0.2575 0.2803
vn 0.7988 -0.3818 0.4649
vn 0.6628 -0.3102 0.6815
vn 0.5513 -0.1981 0.8104
vn 0.4847 -0.1129 0.8673
vn 0.4448 -0.0468 0.8944
vn 0.9328 -0.0077 0.3604
vn 0.8435 -0.1477 0.5164
vn 0.5459 -0.0502 0.8364
vn 0.1824 0.2020 0.9623
vn -0.0510 0.3115 0.9489
vn -0.1786 0.2677 0.9468
vn -0.2477 0.1428 0.9583
vn 0.8470 0.0350 0.5304
vn 0.6598 0.0093 0.7514
vn 0.1452 0.2780 0.9495
vn -0.1944 0.4824 0.8541
vn -0.3420 0.4940 0.7994
vn -0.4347 0.3802 0.8164
vn -0.4953 0.1963 0.8463
vn 0.6101 0.1059 0.7852
vn 0.2573 0.2235 0.9401
vn -0.2234 0.4819 0.8473
vn -0.3973 0.5914 0.7017
vn -0.4844 0.5599 0.6722
vn -0.5659 0.4242 0.7070
vn -0.6278 0.2189 0.7469
vn -0.5199 -0.1984 -0.8309
vn -0.5066 -0.4311 -0.7467
vn -0.7075 -0.4234 -0.5659
vn -0.7744 -0.1717 -0.6090
vn -0.4725 -0.6037 -0.6421
vn -0.6165 -0.6087 -0.4994
vn -0.4597 -0.6531 -0.6018
vn -0.5797 -0.6625 -0.4744
vn -0.4917 -0.5991 -0.6319
vn -0.6112 -0.6110 -0.5030
vn -0.5516 -0.4512 -0.7016
vn -0.6838 -0.4636 -0.5635
vn -0.6032 -0.2334 -0.7627
vn -0.7489 -0.2416 -0.6171
vn -0.2795 -0.2138 -0.9360
vn -0.2922 -0.4403 -0.8490
vn -0.2912 -0.6061 -0.7402
vn -0.2927 -0.6518 -0.6996
vn -0.3179 -0.5955 -0.7378
vn -0.3587 -0.4466 -0.8197
vn -0.3928 -0.2301 -0.8903
vn -0.0577 -0.2212 -0.9735
vn -0.0760 -0.4440 -0.8928
vn -0.0892 -0.6094 -0.7878
vn -0.0962 -0.6535 -0.7508
vn -0.1077 -0.5960 -0.7957
vn -0.1235 -0.4465 -0.8862
vn -0.1364 -0.2299 -0.9636
vn 0.1351 -0.2207 -0.9659
vn 0.1256 -0.4420 -0.8882
vn 0.1111 -0.6105 -0.7842
vn 0.1061 -0.6544 -0.7487
vn 0.1126 -0.5970 -0.7943
vn 0.1257 -0.4475 -0.8854
vn 0.1372 -0.2306 -0.9633
vn 0.3002 -0.2128 -0.9299
vn 0.3030 -0.4382 -0.8463
vn 0.2941 -0.6079 -0.7376
vn 0.2935 -0.6538 -0.6974
vn 0.3178 -0.5979 -0.7359
vn 0.3585 -0.4489 -0.8186
vn 0.3927 -0.2316 -0.8900
vn 0.4494 -0.1996 -0.8707
vn 0.4649 -0.4321 -0.7728
vn 0.4549 -0.6035 -0.6548
vn 0.4513 -0.6541 -0.6070
vn 0.4870 -0.6008 -0.6340
vn 0.5492 -0.4529 -0.7024
vn 0.6024 -0.2345 -0.7630
vn -0.5965 0.1086 0.7953
vn -0.2330 0.2319 0.9444
vn 0.2398 0.4883 0.8391
vn 0.4032 0.5937 0.6964
vn 0.4868 0.5609 0.6697
vn 0.5669 0.4246 0.7059
vn 0.6281 0.2191 0.7467
vn -0.8440 0.0362 0.5352
vn -0.6444 0.0189 0.7644
vn -0.1189 0.2940 0.9484
vn 0.2072 0.4901 0.8467
vn 0.3472 0.4971 0.7952
vn 0.4369 0.3814 0.8147
vn 0.4959 0.1967 0.8458
vn -0.9341 -0.0084 0.3568
vn -0.8412 -0.1455 0.5208
vn -0.5313 -0.0361 0.8464
vn -0.1681 0.2143 0.9622
vn 0.0586 0.3175 0.9464
vn 0.1818 0.2700 0.9455
vn 0.2485 0.1434 0.9580
vn -0.9790 -0.0435 0.1992
vn -0.9251 -0.2582 0.2785
vn -0.7976 -0.3794 0.4690
vn -0.6595 -0.3050 0.6871
vn -0.5486 -0.1949 0.8130
vn -0.4835 -0.1117 0.8682
vn -0.4445 -0.0465 0.8946
vn -0.9968 -0.0797 0.0098
vn -0.9397 -0.3416 0.0149
vn -0.8259 -0.5628 0.0352
vn -0.7760 -0.6268 0.0702
vn -0.8120 -0.5735 0.1089
vn -0.8928 -0.4292 0.1371
vn -0.9632 -0.2223 0.1509
vn -0.9536 -0.1257 -0.2735
vn -0.8697 -0.4006 -0.2885
vn -0.7359 -0.6122 -0.2892
vn -0.6777 -0.6735 -0.2951
vn -0.7091 -0.6246 -0.3271
vn -0.7935 -0.4774 -0.3774
vn -0.8719 -0.2507 -0.4207
vn 0.1945 -0.1057 0.9752
vn 0.1924 -0.0982 0.9764
vn 0.3548 -0.0879 0.9308
vn 0.3545 -0.0953 0.9302
vn 0.1836 -0.0871 0.9791
vn 0.3489 -0.0740 0.9342
vn 0.1675 -0.0633 0.9838
vn 0.3382 -0.0497 0.9398
vn 0.1399 -0.0269 0.9898
vn 0.3195 -0.0153 0.9475
vn 0.0955 0.0227 0.9952
vn 0.2882 0.0302 0.9571
vn 0.0360 0.0872 0.9955
vn 0.2437 0.0891 0.9658
vn 0.1296 -0.1087 0.9856
vn 0.1277 -0.0997 0.9868
vn 0.1208 -0.0885 0.9887
vn 0.1085 -0.0639 0.9920
vn 0.0884 -0.0264 0.9957
vn 0.0580 0.0243 0.9980
vn 0.0208 0.0888 0.9958
vn 0.0458 -0.1101 0.9929
vn 0.0449 -0.1006 0.9939
vn 0.0423 -0.0894 0.9951
vn 0.0376 -0.0644 0.9972
vn 0.0301 -0.0262 0.9992
vn 0.0193 0.0251 0.9995
vn 0.0067 0.0895 0.9960
vn -0.0458 -0.1101 0.9929
vn -0.0449 -0.1006 0.9939
vn -0.0423 -0.0894 0.9951
vn -0.0376 -0.0644 0.9972
vn -0.0301 -0.0262 0.9992
vn -0.0193 0.0251 0.9995
vn -0.0067 0.0895 0.9960
vn -0.1296 -0.1087 0.9856
vn -0.1277 -0.0997 0.9868
vn -0.1208 -0.0885 0.9887
vn -0.1085 -0.0639 0.9920
vn -0.0884 -0.0264 0.9957
vn -0.0580 0.0243 0.9980
vn -0.0208 0.0888 0.9958
vn -0.1945 -0.1057 0.9752
vn -0.1924 -0.0982 0.9764
vn -0.1836 -0.0871 0.9791
vn -0.1675 -0.0633 0.9838
vn -0.1399 -0.0269 0.9898
vn -0.0955 0.0227 0.9952
vn -0.0360 0.0872 0.9955
vn -0.3544 -0.0952 0.9302
vn -0.3547 -0.0880 0.9308
vn -0.3484 -0.0740 0.9344
vn -0.3368 -0.0499 0.9402
vn -0.3168 -0.0156 0.9484
vn -0.2832 0.0299 0.9586
vn -0.2354 0.0890 0.9678
vn 0.3850 0.1081 -0.9166
vn 0.4021 0.1251 -0.9070
vn -0.0697 0.1165 -0.9907
vn -0.0846 0.1095 -0.9904
vn 0.4485 0.1369 -0.8833
vn -0.0244 0.1179 -0.9927
vn 0.5314 0.1261 -0.8377
vn 0.0614 0.1029 -0.9928
vn 0.6530 0.0955 -0.7513
vn 0.2044 0.0714 -0.9763
vn 0.7946 0.0510 -0.6050
vn 0.4087 0.0223 -0.9124
vn 0.9022 -0.0006 -0.4314
vn 0.6107 -0.0422 -0.7907
vn 0.8350 0.0760 -0.5450
vn 0.8424 0.0978 -0.5299
vn 0.8640 0.1175 -0.4896
vn 0.8997 0.1138 -0.4214
vn 0.9432 0.0927 -0.3191
vn 0.9803 0.0638 -0.1869
vn 0.9977 0.0319 -0.0599
vn 0.9859 0.0379 -0.1633
vn 0.9864 0.0598 -0.1529
vn 0.9889 0.0836 -0.1231
vn 0.9933 0.0885 -0.0742
vn 0.9968 0.0800 -0.0044
vn 0.9945 0.0657 0.0819
vn 0.9852 0.0494 0.1642
vn 0.9900 0.0050 0.1408
vn 0.9889 0.0256 0.1462
vn 0.9852 0.0511 0.1634
vn 0.9794 0.0633 0.1916
vn 0.9705 0.0660 0.2321
vn 0.9570 0.0645 0.2829
vn 0.9409 0.0616 0.3331
vn 0.9007 -0.0289 0.4335
vn 0.9004 -0.0109 0.4350
vn 0.8966 0.0142 0.4425
vn 0.8903 0.0330 0.4541
vn 0.8811 0.0474 0.4706
vn 0.8686 0.0601 0.4919
vn 0.8548 0.0732 0.5138
vn 0.6659 -0.0676 0.7430
vn 0.6670 -0.0548 0.7431
vn 0.6642 -0.0341 0.7468
vn 0.6596 -0.0105 0.7515
vn 0.6524 0.0165 0.7577
vn 0.6414 0.0481 0.7657
vn 0.6271 0.0859 0.7742
vn 0.1941 0.1082 -0.9750
vn 0.1812 0.1070 -0.9776
vn 0.0672 0.1166 -0.9909
vn 0.0846 0.1096 -0.9904
vn 0.1409 0.1026 -0.9847
vn 0.0138 0.1184 -0.9929
vn 0.0658 0.0839 -0.9943
vn -0.0880 0.1042 -0.9907
vn -0.0599 0.0506 -0.9969
vn -0.2580 0.0737 -0.9633
vn -0.2453 0.0011 -0.9695
vn -0.4937 0.0261 -0.8692
vn -0.4411 -0.0640 -0.8952
vn -0.7068 -0.0334 -0.7066
vn 0.1293 0.1104 -0.9854
vn 0.1208 0.1054 -0.9871
vn 0.0950 0.0981 -0.9906
vn 0.0491 0.0760 -0.9959
vn -0.0232 0.0392 -0.9990
vn -0.1244 -0.0127 -0.9922
vn -0.2323 -0.0798 -0.9694
vn 0.0457 0.1114 -0.9927
vn 0.0433 0.1048 -0.9936
vn 0.0363 0.0962 -0.9947
vn 0.0243 0.0725 -0.9971
vn 0.0061 0.0343 -0.9994
vn -0.0187 -0.0184 -0.9997
vn -0.0449 -0.0858 -0.9953
vn -0.0457 0.1115 -0.9927
vn -0.0411 0.1051 -0.9936
vn -0.0282 0.0967 -0.9949
vn -0.0061 0.0731 -0.9973
vn 0.0270 0.0350 -0.9990
vn 0.0709 -0.0177 -0.9973
vn 0.1158 -0.0849 -0.9896
vn -0.1293 0.1106 -0.9854
vn -0.1199 0.1059 -0.9871
vn -0.0914 0.0991 -0.9909
vn -0.0412 0.0773 -0.9962
vn 0.0366 0.0406 -0.9985
vn 0.1426 -0.0114 -0.9897
vn 0.2526 -0.0786 -0.9644
vn -0.1941 0.1083 -0.9750
vn -0.1822 0.1073 -0.9774
vn -0.1448 0.1030 -0.9841
vn -0.0762 0.0842 -0.9935
vn 0.0362 0.0505 -0.9981
vn 0.1995 0.0001 -0.9799
vn 0.3741 -0.0671 -0.9250
vn -0.6658 -0.0674 0.7430
vn -0.6668 -0.0548 0.7432
vn -0.6635 -0.0342 0.7474
vn -0.6579 -0.0108 0.7530
vn -0.6490 0.0161 0.7607
vn -0.6351 0.0477 0.7710
vn -0.6166 0.0862 0.7826
vn -0.9007 -0.0286 0.4335
vn -0.9004 -0.0108 0.4350
vn -0.8967 0.0143 0.4425
vn -0.8903 0.0330 0.4541
vn -0.8808 0.0474 0.4710
vn -0.8677 0.0601 0.4934
vn -0.8527 0.0734 0.5171
vn -0.9900 0.0053 0.1408
vn -0.9890 0.0257 0.1458
vn -0.9854 0.0514 0.1622
vn -0.9799 0.0637 0.1892
vn -0.9713 0.0664 0.2283
vn -0.9583 0.0646 0.2784
vn -0.9424 0.0614 0.3289
vn -0.9858 0.0381 -0.1633
vn -0.9864 0.0600 -0.1532
vn -0.9887 0.0840 -0.1242
vn -0.9931 0.0890 -0.0763
vn -0.9967 0.0804 -0.0079
vn -0.9948 0.0659 0.0774
vn -0.9860 0.0492 0.1595
vn -0.8350 0.0762 -0.5450
vn -0.8427 0.0980 -0.5293
vn -0.8652 0.1177 -0.4875
vn -0.9019 0.1139 -0.4165
vn -0.9460 0.0927 -0.3106
vn -0.9824 0.0641 -0.1755
vn -0.9983 0.0329 -0.0476
vn -0.3849 0.1082 -0.9166
vn -0.4042 0.1252 -0.9061
vn -0.4566 0.1372 -0.8790
vn -0.5499 0.1265 -0.8256
vn -0.6840 0.0962 -0.7231
vn -0.8318 0.0531 -0.5525
vn -0.9323 0.0056 -0.3618
vn 0.0262 -0.2293 0.9730
vn 0.1765 -0.6421 0.7460
vn 0.0513 -0.1992 0.9786
vn 0.2270 -0.3288 0.9167
vn 0.0815 -0.1815 0.9800
vn 0.2375 -0.2078 0.9489
vn 0.1158 -0.1622 0.9799
vn 0.2665 -0.1537 0.9515
vn 0.1519 -0.1358 0.9790
vn 0.3029 -0.1199 0.9455
vn 0.1816 -0.1212 0.9759
vn 0.3358 -0.1047 0.9361
vn 0.0194 -0.2280 0.9735
vn 0.0368 -0.2090 0.9772
vn 0.0577 -0.1933 0.9794
vn 0.0803 -0.1750 0.9813
vn 0.1035 -0.1504 0.9832
vn 0.1219 -0.1290 0.9841
vn 0.0072 -0.2227 0.9749
vn 0.0131 -0.2120 0.9772
vn 0.0205 -0.1980 0.9800
vn 0.0285 -0.1806 0.9831
vn 0.0369 -0.1581 0.9867
vn 0.0435 -0.1325 0.9902
vn -0.0070 -0.2226 0.9749
vn -0.0129 -0.2120 0.9772
vn -0.0204 -0.1980 0.9800
vn -0.0284 -0.1806 0.9831
vn -0.0369 -0.1582 0.9867
vn -0.0435 -0.1325 0.9902
vn 0.0990 -0.6174 0.7804
vn -0.0190 -0.2272 0.9737
vn -0.0363 -0.2088 0.9773
vn -0.0572 -0.1933 0.9795
vn -0.0799 -0.1750 0.9813
vn -0.1032 -0.1504 0.9832
vn -0.1219 -0.1291 0.9841
vn -0.0016 -0.2091 0.9779
vn -0.0255 -0.2275 0.9735
vn -0.0504 -0.1986 0.9788
vn -0.0806 -0.1812 0.9801
vn -0.1150 -0.1620 0.9801
vn -0.1515 -0.1357 0.9791
vn -0.1815 -0.1211 0.9759
vn -0.0946 -0.5763 0.8117
vn -0.1750 -0.6398 0.7483
vn -0.2252 -0.3265 0.9180
vn -0.2360 -0.2065 0.9495
vn -0.2655 -0.1528 0.9519
vn -0.3023 -0.1192 0.9457
vn -0.3355 -0.1043 0.9362
vn 0.2075 -0.9782 -0.0035
vn 0.4204 -0.7686 -0.4821
vn 0.1665 -0.4599 -0.8722
vn 0.5371 -0.3488 -0.7680
vn 0.1375 0.0019 -0.9905
vn 0.5009 -0.0592 -0.8635
vn 0.0621 0.1124 -0.9917
vn 0.4446 0.0590 -0.8938
vn 0.0066 0.1292 -0.9916
vn 0.4088 0.0991 -0.9072
vn -0.0366 0.1195 -0.9922
vn 0.3897 0.1062 -0.9148
vn -0.0696 0.1135 -0.9911
vn 0.1937 -0.9811 0.0006
vn 0.4421 -0.8860 -0.1399
vn 0.7529 -0.5457 -0.3678
vn 0.8438 -0.2156 -0.4914
vn 0.8431 -0.0306 -0.5369
vn 0.8345 0.0511 -0.5487
vn 0.8335 0.0720 -0.5479
vn 0.1865 -0.9824 0.0022
vn 0.4252 -0.9045 -0.0313
vn 0.7851 -0.6117 -0.0971
vn 0.9457 -0.2923 -0.1419
vn 0.9828 -0.0906 -0.1607
vn 0.9862 0.0061 -0.1654
vn 0.9858 0.0336 -0.1642
vn 0.1864 -0.9825 0.0052
vn 0.4198 -0.9065 0.0438
vn 0.7711 -0.6271 0.1104
vn 0.9342 -0.3236 0.1499
vn 0.9790 -0.1270 0.1598
vn 0.9875 -0.0300 0.1549
vn 0.9893 -0.0000 0.1462
vn 0.1934 -0.9811 0.0070
vn 0.4223 -0.8953 0.1417
vn 0.7175 -0.6069 0.3417
vn 0.8335 -0.3250 0.4468
vn 0.8674 -0.1513 0.4741
vn 0.8831 -0.0652 0.4646
vn 0.8947 -0.0354 0.4452
vn 0.2071 -0.9783 0.0051
vn 0.3843 -0.8297 0.4049
vn 0.5346 -0.5158 0.6694
vn 0.5746 -0.2837 0.7677
vn 0.5951 -0.1607 0.7874
vn 0.6231 -0.1009 0.7756
vn 0.6510 -0.0755 0.7553
vn 0.0259 0.2289 -0.9731
vn -0.1651 -0.4575 -0.8737
vn -0.1060 -0.2830 -0.9533
vn 0.0510 0.1988 -0.9787
vn -0.1362 0.0031 -0.9907
vn 0.0811 0.1812 -0.9801
vn -0.0616 0.1126 -0.9917
vn 0.1154 0.1619 -0.9800
vn -0.0064 0.1292 -0.9916
vn 0.1518 0.1355 -0.9791
vn 0.0367 0.1195 -0.9922
vn 0.1815 0.1210 -0.9759
vn 0.0696 0.1135 -0.9911
vn 0.0023 0.2214 -0.9752
vn 0.0190 0.2272 -0.9737
vn 0.0363 0.2088 -0.9773
vn 0.0572 0.1932 -0.9795
vn 0.0799 0.1749 -0.9813
vn 0.1032 0.1503 -0.9832
vn 0.1219 0.1290 -0.9841
vn -0.0000 0.2228 -0.9749
vn 0.0068 0.2225 -0.9749
vn 0.0128 0.2120 -0.9772
vn 0.0203 0.1980 -0.9800
vn 0.0283 0.1806 -0.9832
vn 0.0368 0.1581 -0.9867
vn 0.0435 0.1325 -0.9902
vn -0.0000 0.2229 -0.9748
vn -0.0068 0.2225 -0.9749
vn -0.0128 0.2120 -0.9772
vn -0.0203 0.1980 -0.9800
vn -0.0283 0.1806 -0.9832
vn -0.0368 0.1581 -0.9867
vn -0.0435 0.1325 -0.9902
vn -0.0023 0.2214 -0.9752
vn -0.0190 0.2272 -0.9737
vn -0.0363 0.2087 -0.9773
vn -0.0572 0.1932 -0.9795
vn -0.0799 0.1749 -0.9813
vn -0.1032 0.1503 -0.9832
vn -0.1219 0.1290 -0.9841
vn 0.1080 -0.2925 -0.9502
vn -0.0260 0.2289 -0.9731
vn -0.0510 0.1988 -0.9787
vn -0.0811 0.1812 -0.9801
vn -0.1154 0.1619 -0.9800
vn -0.1518 0.1355 -0.9791
vn -0.1815 0.1210 -0.9759
vn -0.2070 -0.9783 0.0124
vn -0.3849 -0.8281 0.4076
vn -0.5360 -0.5145 0.6693
vn -0.5758 -0.2818 0.7675
vn -0.5957 -0.1589 0.7873
vn -0.6233 -0.0995 0.7757
vn -0.6510 -0.0746 0.7554
vn -0.1936 -0.9811 0.0040
vn -0.4247 -0.8951 0.1359
vn -0.7219 -0.6058 0.3344
vn -0.8375 -0.3228 0.4409
vn -0.8699 -0.1487 0.4702
vn -0.8843 -0.0631 0.4626
vn -0.8951 -0.0342 0.4446
vn -0.1866 -0.9824 0.0010
vn -0.4215 -0.9061 0.0349
vn -0.7743 -0.6253 0.0971
vn -0.9371 -0.3207 0.1380
vn -0.9806 -0.1239 0.1516
vn -0.9882 -0.0278 0.1508
vn -0.9894 0.0011 0.1450
vn -0.1867 -0.9824 -0.0026
vn -0.4261 -0.9037 -0.0420
vn -0.7854 -0.6086 -0.1133
vn -0.9446 -0.2885 -0.1563
vn -0.9815 -0.0877 -0.1704
vn -0.9854 0.0079 -0.1703
vn -0.9856 0.0344 -0.1657
vn -0.1940 -0.9810 -0.0047
vn -0.4417 -0.8843 -0.1517
vn -0.7490 -0.5413 -0.3822
vn -0.8384 -0.2118 -0.5023
vn -0.8388 -0.0285 -0.5437
vn -0.8321 0.0522 -0.5521
vn -0.8327 0.0725 -0.5489
vn -0.2078 -0.9781 -0.0095
vn -0.4169 -0.7658 -0.4897
vn -0.5320 -0.3446 -0.7735
vn -0.4961 -0.0570 -0.8664
vn -0.4415 0.0598 -0.8953
vn -0.4072 0.0993 -0.9079
vn -0.3892 0.1063 -0.9150
s 1
f 1//1 4//4 3//3
f 2//2 3//3 6//6
f 5//5 6//6 8//8
f 7//7 8//8 10//10
f 9//9 10//10 12//12
f 13//13 11//11 12//12
f 15//15 13//13 14//14
f 17//17 1//1 2//2
f 18//18 2//2 5//5
f 19//19 5//5 7//7
f 20//20 7//7 9//9
f 22//22 21//21 9//9
f 23//23 22//22 11//11
f 46//46 23//23 13//13
f 24//24 17//17 18//18
f 25//25 18//18 19//19
f 26//26 19//19 20//20
f 27//27 20//20 21//21
f 29//29 28//28 21//21
f 30//30 29//29 22//22
f 38//38 30//30 23//23
f 31//31 24//24 25//25
f 32//32 25//25 26//26
f 34//34 33//33 26//26
f 35//35 34//34 27//27
f 36//36 35//35 28//28
f 37//37 36//36 29//29
f 37//37 30//30 38//38
f 40//40 39//39 31//31
f 41//41 40//40 32//32
f 42//42 41//41 33//33
f 43//43 42//42 34//34
f 43//43 35//35 36//36
f 44//44 36//36 37//37
f 45//45 37//37 38//38
f 48//48 47//47 39//39
f 49//49 48//48 40//40
f 50//50 49//49 41//41
f 51//51 50//50 42//42
f 51//51 43//43 44//44
f 52//52 44//44 45//45
f 53//53 45//45 46//46
f 56//56 55//55 47//47
f 57//57 56//56 48//48
f 58//58 57//57 49//49
f 59//59 58//58 50//50
f 60//60 59//59 51//51
f 60//60 52//52 53//53
f 61//61 53//53 54//54
f 64//64 63//63 66//66
f 67//67 64//64 65//65
f 69//69 67//67 68//68
f 71//71 69//69 70//70
f 73//73 71//71 72//72
f 75//75 73//73 74//74
f 77//77 75//75 76//76
f 80//80 79//79 63//63
f 81//81 80//80 64//64
f 82//82 81//81 67//67
f 83//83 82//82 69//69
f 84//84 83//83 71//71
f 85//85 84//84 73//73
f 86//86 85//85 75//75
f 87//87 79//79 80//80
f 88//88 80//80 81//81
f 89//89 81//81 82//82
f 90//90 82//82 83//83
f 92//92 91//91 83//83
f 93//93 92//92 84//84
f 94//94 93//93 85//85
f 95//95 87//87 88//88
f 96//96 88//88 89//89
f 97//97 89//89 90//90
f 98//98 90//90 91//91
f 99//99 91//91 92//92
f 100//100 92//92 93//93
f 101//101 93//93 94//94
f 103//103 95//95 96//96
f 104//104 96//96 97//97
f 105//105 97//97 98//98
f 106//106 98//98 99//99
f 107//107 99//99 100//100
f 108//108 100//100 101//101
f 109//109 101//101 102//102
f 111//111 103//103 104//104
f 112//112 104//104 105//105
f 113//113 105//105 106//106
f 114//114 106//106 107//107
f 115//115 107//107 108//108
f 116//116 108//108 109//109
f 117//117 109//109 110//110
f 4//4 111//111 112//112
f 3//3 112//112 113//113
f 6//6 113//113 114//114
f 8//8 114//114 115//115
f 10//10 115//115 116//116
f 12//12 116//116 117//117
f 14//14 117//117 118//118
f 119//119 122//122 121//121
f 120//120 121//121 124//124
f 123//123 124//124 126//126
f 125//125 126//126 128//128
f 127//127 128//128 130//130
f 129//129 130//130 132//132
f 133//133 131//131 132//132
f 135//135 119//119 120//120
f 136//136 120//120 123//123
f 137//137 123//123 125//125
f 138//138 125//125 127//127
f 139//139 127//127 129//129
f 141//141 140//140 129//129
f 142//142 141//141 131//131
f 143//143 135//135 136//136
f 144//144 136//136 137//137
f 145//145 137//137 138//138
f 146//146 138//138 139//139
f 148//148 147//147 139//139
f 149//149 148//148 140//140
f 150//150 149//149 141//141
f 151//151 143//143 144//144
f 153//153 152//152 144//144
f 154//154 153//153 145//145
f 155//155 154//154 146//146
f 156//156 155//155 147//147
f 156//156 148//148 149//149
f 157//157 149//149 150//150
f 159//159 158//158 151//151
f 160//160 159//159 152//152
f 161//161 160//160 153//153
f 162//162 161//161 154//154
f 162//162 155//155 156//156
f 163//163 156//156 157//157
f 164//164 157//157 150//150
f 166//166 165//165 158//158
f 167//167 166//166 159//159
f 168//168 167//167 160//160
f 169//169 168//168 161//161
f 170//170 169//169 162//162
f 170//170 163//163 164//164
f 171//171 164//164 142//142
f 65//65 66//66 165//165
f 68//68 65//65 166//166
f 70//70 68//68 167//167
f 72//72 70//70 168//168
f 74//74 72//72 169//169
f 76//76 74//74 170//170
f 76//76 171//171 172//172
f 174//174 173//173 55//55
f 175//175 174//174 56//56
f 176//176 175//175 57//57
f 177//177 176//176 58//58
f 178//178 177//177 59//59
f 179//179 178//178 60//60
f 180//180 179//179 61//61
f 182//182 181//181 173//173
f 183//183 182//182 174//174
f 184//184 183//183 175//175
f 185//185 184//184 176//176
f 186//186 185//185 177//177
f 187//187 186//186 178//178
f 188//188 187//187 179//179
f 190//190 189//189 181//181
f 191//191 190//190 182//182
f 192//192 191//191 183//183
f 193//193 192//192 184//184
f 194//194 193//193 185//185
f 195//195 194//194 186//186
f 196//196 195//195 187//187
f 198//198 197//197 189//189
f 199//199 198//198 190//190
f 200//200 199//199 191//191
f 201//201 200//200 192//192
f 202//202 201//201 193//193
f 203//203 202//202 194//194
f 204//204 203//203 195//195
f 206//206 205//205 197//197
f 207//207 206//206 198//198
f 208//208 207//207 199//199
f 209//209 208//208 200//200
f 209//209 201//201 202//202
f 210//210 202//202 203//203
f 211//211 203//203 204//204
f 213//213 205//205 206//206
f 214//214 206//206 207//207
f 215//215 207//207 208//208
f 216//216 208//208 209//209
f 217//217 209//209 210//210
f 218//218 210//210 211//211
f 219//219 211//211 212//212
f 122//122 213//213 214//214
f 121//121 214//214 215//215
f 124//124 215//215 216//216
f 126//126 216//216 217//217
f 128//128 217//217 218//218
f 130//130 218//218 219//219
f 132//132 219//219 220//220
f 222//222 221//221 224//224
f 225//225 222//222 223//223
f 227//227 225//225 226//226
f 229//229 227//227 228//228
f 231//231 229//229 230//230
f 233//233 231//231 232//232
f 1//1 233//233 234//234
f 236//236 235//235 221//221
f 237//237 236//236 222//222
f 238//238 237//237 225//225
f 239//239 238//238 227//227
f 240//240 239//239 229//229
f 241//241 240//240 231//231
f 17//17 241//241 233//233
f 243//243 242//242 235//235
f 244//244 243//243 236//236
f 245//245 244//244 237//237
f 246//246 245//245 238//238
f 247//247 246//246 239//239
f 247//247 240//240 241//241
f 248//248 241//241 17//17
f 250//249 249//242 242//242
f 251//250 250//249 243//243
f 252//251 251//250 244//244
f 253//252 252//251 245//245
f 254//253 253//252 246//246
f 255//254 254//253 247//247
f 31//31 255//254 248//248
f 256//255 249//242 250//249
f 257//256 250//249 251//250
f 258//257 251//250 252//251
f 259//258 252//251 253//252
f 260//259 253//252 254//253
f 262//261 261//260 254//253
f 39//39 262//261 255//254
f 263//262 256//255 257//256
f 264//263 257//256 258//257
f 265//264 258//257 259//258
f 266//265 259//258 260//259
f 267//266 260//259 261//260
f 268//267 261//260 262//261
f 269//268 262//261 39//39
f 270//269 263//262 264//263
f 271//270 264//263 265//264
f 272//271 265//264 266//265
f 273//272 266//265 267//266
f 274//273 267//266 268//267
f 275//274 268//267 269//268
f 276//275 269//268 47//47
f 278//277 277//276 280//279
f 278//277 279//278 282//281
f 281//280 282//281 284//283
f 283//282 284//283 286//285
f 285//284 286//285 288//287
f 287//286 288//287 290//289
f 289//288 290//289 66//66
f 292//291 291//290 277//276
f 293//292 292//291 278//277
f 294//293 293//292 281//280
f 295//294 294//293 283//282
f 296//295 295//294 285//284
f 297//296 296//295 287//286
f 79//79 297//296 289//288
f 299//298 298//297 291//290
f 300//299 299//298 292//291
f 301//300 300//299 293//292
f 302//301 301//300 294//293
f 303//302 302//301 295//294
f 304//303 303//302 296//295
f 87//87 304//303 297//296
f 306//305 305//304 298//297
f 307//306 306//305 299//298
f 308//307 307//306 300//299
f 309//308 308//307 301//300
f 310//309 309//308 302//301
f 311//310 310//309 303//302
f 95//95 311//310 304//303
f 313//312 312//311 305//304
f 314//313 313//312 306//305
f 315//314 314//313 307//306
f 316//315 315//314 308//307
f 317//316 316//315 309//308
f 318//317 317//316 310//309
f 103//103 318//317 311//310
f 320//319 319//318 312//311
f 321//320 320//319 313//312
f 322//321 321//320 314//313
f 323//322 322//321 315//314
f 324//323 323//322 316//315
f 325//324 324//323 317//316
f 111//111 325//324 318//317
f 223//223 224//224 319//318
f 226//226 223//223 320//319
f 228//228 226//226 321//320
f 230//230 228//228 322//321
f 232//232 230//230 323//322
f 234//234 232//232 324//323
f 4//4 234//234 325//324
f 326//325 329//328 328//327
f 330//329 327//326 328//327
f 332//331 330//329 331//330
f 334//333 332//331 333//332
f 336//335 334//333 335//334
f 338//337 336//335 337//336
f 119//119 338//337 339//338
f 340//339 326//325 327//326
f 342//341 341//340 327//326
f 343//342 342//341 330//329
f 344//343 343//342 332//331
f 345//344 344//343 334//333
f 346//345 345//344 336//335
f 135//135 346//345 338//337
f 347//346 340//339 341//340
f 349//348 348//347 341//340
f 350//349 349//348 342//341
f 351//350 350//349 343//342
f 352//351 351//350 344//343
f 353//352 352//351 345//344
f 143//143 353//352 346//345
f 355//354 354//353 347//346
f 356//355 355//354 348//347
f 357//356 356//355 349//348
f 358//357 357//356 350//349
f 358//357 351//350 352//351
f 359//358 352//351 353//352
f 360//359 353//352 143//143
f 362//361 361//360 354//353
f 363//362 362//361 355//354
f 363//362 356//355 357//356
f 364//363 357//356 358//357
f 365//364 358//357 359//358
f 366//365 359//358 360//359
f 367//366 360//359 151//151
f 369//368 368//367 361//360
f 369//368 362//361 363//362
f 370//369 363//362 364//363
f 371//370 364//363 365//364
f 372//371 365//364 366//365
f 373//372 366//365 367//366
f 374//373 367//366 158//158
f 279//278 280//279 368//367
f 279//278 369//368 370//369
f 282//281 370//369 371//370
f 284//283 371//370 372//371
f 286//285 372//371 373//372
f 288//287 373//372 374//373
f 290//289 374//373 165//165
f 375//374 270//269 271//270
f 376//375 271//270 272//271
f 377//376 272//271 273//272
f 378//377 273//272 274//273
f 379//378 274//273 275//274
f 380//379 275//274 276//275
f 381//380 276//275 55//55
f 382//381 375//374 376//375
f 383//382 376//375 377//376
f 384//383 377//376 378//377
f 385//384 378//377 379//378
f 386//385 379//378 380//379
f 387//386 380//379 381//380
f 388//387 381//380 173//173
f 389//388 382//381 383//382
f 390//389 383//382 384//383
f 391//390 384//383 385//384
f 392//391 385//384 386//385
f 393//392 386//385 387//386
f 394//393 387//386 388//387
f 395//394 388//387 181//181
f 396//395 389//388 390//389
f 397//396 390//389 391//390
f 398//397 391//390 392//391
f 399//398 392//391 393//392
f 400//399 393//392 394//393
f 401//400 394//393 395//394
f 402//401 395//394 189//189
f 403//402 396//395 397//396
f 404//403 397//396 398//397
f 405//404 398//397 399//398
f 406//405 399//398 400//399
f 407//406 400//399 401//400
f 408//407 401//400 402//401
f 409//408 402//401 197//197
f 410//409 403//402 404//403
f 411//410 404//403 405//404
f 412//411 405//404 406//405
f 413//412 406//405 407//406
f 414//413 407//406 408//407
f 415//414 408//407 409//408
f 416//415 409//408 205//205
f 329//328 410//409 411//410
f 328//327 411//410 412//411
f 333//332 331//330 412//411
f 335//334 333//332 413//412
f 337//336 335//334 414//413
f 339//338 337//336 415//414
f 122//122 339//338 416//415
f 417//416 420//419 419//418
f 418//417 419//418 422//421
f 421//420 422//421 424//423
f 423//422 424//423 426//425
f 425//424 426//425 428//427
f 427//426 428//427 430//429
f 429//428 430//429 224//224
f 431//430 417//416 418//417
f 432//431 418//417 421//420
f 433//432 421//420 423//422
f 434//433 423//422 425//424
f 435//434 425//424 427//426
f 436//435 427//426 429//428
f 437//436 429//428 221//221
f 438//437 431//430 432//431
f 439//438 432//431 433//432
f 440//439 433//432 434//433
f 441//440 434//433 435//434
f 442//441 435//434 436//435
f 443//442 436//435 437//436
f 444//443 437//436 235//235
f 446//445 445//444 438//437
f 447//446 446//445 439//438
f 448//447 447//446 440//439
f 449//448 448//447 441//440
f 450//449 449//448 442//441
f 451//450 450//449 443//442
f 249//242 451//450 444//443
f 453//452 452//451 445//444
f 454//453 453//452 446//445
f 455//454 454//453 447//446
f 456//455 455//454 448//447
f 457//456 456//455 449//448
f 458//457 457//456 450//449
f 256//255 458//457 451//450
f 460//459 459//458 452//451
f 461//460 460//459 453//452
f 462//461 461//460 454//453
f 463//462 462//461 455//454
f 464//463 463//462 456//455
f 465//464 464//463 457//456
f 263//262 465//464 458//457
f 467//466 466//465 459//458
f 468//467 467//466 460//459
f 469//468 468//467 461//460
f 470//469 469//468 462//461
f 471//470 470//469 463//462
f 472//471 471//470 464//463
f 270//269 472//471 465//464
f 474//473 473//472 476//475
f 477//476 474//473 475//474
f 479//478 477//476 478//477
f 481//480 479//478 480//479
f 483//482 481//480 482//481
f 485//484 483//482 484//483
f 277//276 485//484 486//485
f 487//486 473//472 474//473
f 488//487 474//473 477//476
f 489//488 477//476 479//478
f 490//489 479//478 481//480
f 491//490 481//480 483//482
f 493//492 492//491 483//482
f 291//290 493//492 485//484
f 494//493 487//486 488//487
f 495//494 488//487 489//488
f 496//495 489//488 490//489
f 497//496 490//489 491//490
f 498//497 491//490 492//491
f 500//499 499//498 492//491
f 298//297 500//499 493//492
f 501//500 494//493 495//494
f 502//501 495//494 496//495
f 503//502 496//495 497//496
f 504//503 497//496 498//497
f 505//504 498//497 499//498
f 507//506 506//505 499//498
f 305//304 507//506 500//499
f 508//507 501//500 502//501
f 509//508 502//501 503//502
f 510//509 503//502 504//503
f 511//510 504//503 505//504
f 512//511 505//504 506//505
f 514//513 513//512 506//505
f 312//311 514//513 507//506
f 515//514 508//507 509//508
f 516//515 509//508 510//509
f 517//516 510//509 511//510
f 518//517 511//510 512//511
f 519//518 512//511 513//512
f 520//519 513//512 514//513
f 319//318 521//520 514//513
f 420//419 515//514 516//515
f 419//418 516//515 517//516
f 422//421 517//516 518//517
f 424//423 518//517 519//518
f 426//425 519//518 520//519
f 428//427 520//519 521//520
f 224//224 430//429 521//520
f 522//521 525//524 524//523
f 523//522 524//523 527//526
f 526//525 527//526 529//528
f 528//527 529//528 531//530
f 530//529 531//530 533//532
f 532//531 533//532 535//534
f 534//533 535//534 329//328
f 536//535 522//521 523//522
f 537//536 523//522 526//525
f 538//537 526//525 528//527
f 539//538 528//527 530//529
f 540//539 530//529 532//531
f 541//540 532//531 534//533
f 542//541 534//533 326//325
f 543//542 536//535 537//536
f 544//543 537//536 538//537
f 545//544 538//537 539//538
f 546//545 539//538 540//539
f 547//546 540//539 541//540
f 548//547 541//540 542//541
f 549//548 542//541 340//339
f 551//550 550//549 543//542
f 552//551 551//550 544//543
f 553//552 552//551 545//544
f 554//553 553//552 546//545
f 555//554 554//553 547//546
f 556//555 555//554 548//547
f 354//353 556//555 549//548
f 558//557 557//556 550//549
f 559//558 558//557 551//550
f 560//559 559//558 552//551
f 561//560 560//559 553//552
f 562//561 561//560 554//553
f 563//562 562//561 555//554
f 361//360 563//562 556//555
f 565//564 564//563 557//556
f 566//565 565//564 558//557
f 567//566 566//565 559//558
f 568//567 567//566 560//559
f 569//568 568//567 561//560
f 570//569 569//568 562//561
f 368//367 570//569 563//562
f 475//474 476//475 564//563
f 478//477 475//474 565//564
f 480//479 478//477 566//565
f 482//481 480//479 567//566
f 484//483 482//481 568//567
f 486//485 484//483 569//568
f 280//279 486//485 570//569
f 572//571 571//570 466//465
f 573//572 572//571 467//466
f 574//573 573//572 468//467
f 575//574 574//573 469//468
f 576//575 575//574 470//469
f 577//576 576//575 471//470
f 577//576 472//471 270//269
f 579//578 578//577 571//570
f 580//579 579//578 572//571
f 581//580 580//579 573//572
f 582//581 581//580 574//573
f 583//582 582//581 575//574
f 584//583 583//582 576//575
f 584//583 577//576 375//374
f 586//585 585//584 578//577
f 587//586 586//585 579//578
f 588//587 587//586 580//579
f 589//588 588//587 581//580
f 590//589 589//588 582//581
f 590//589 583//582 584//583
f 591//590 584//583 382//381
f 593//592 592//591 585//584
f 594//593 593//592 586//585
f 595//594 594//593 587//586
f 596//595 595//594 588//587
f 597//596 596//595 589//588
f 597//596 590//589 591//590
f 598//597 591//590 389//388
f 600//599 599//598 592//591
f 601//600 600//599 593//592
f 602//601 601//600 594//593
f 603//602 602//601 595//594
f 604//603 603//602 596//595
f 604//603 597//596 598//597
f 605//604 598//597 396//395
f 607//606 606//605 599//598
f 608//607 607//606 600//599
f 609//608 608//607 601//600
f 610//609 609//608 602//601
f 611//610 610//609 603//602
f 611//610 604//603 605//604
f 612//611 605//604 403//402
f 525//524 606//605 607//606
f 524//523 607//606 608//607
f 527//526 608//607 609//608
f 529//528 609//608 610//609
f 531//530 610//609 611//610
f 533//532 611//610 612//611
f 535//534 612//611 410//409
f 643//642 614//613 613//612
f 615//614 613//612 614//613
f 617//616 615//614 616//615
f 619//618 617//616 618//617
f 621//620 619//618 620//619
f 621//620 622//621 624//623
f 623//622 624//623 420//419
f 643//642 613//612 625//624
f 626//625 625//624 613//612
f 627//626 626//625 615//614
f 628//627 627//626 617//616
f 629//628 628//627 619//618
f 629//628 621//620 623//622
f 630//629 623//622 417//416
f 643//642 625//624 631//630
f 632//631 631//630 625//624
f 633//632 632//631 626//625
f 634//633 633//632 627//626
f 635//634 634//633 628//627
f 635//634 629//628 630//629
f 636//635 630//629 431//430
f 643//642 631//630 637//636
f 637//636 631//630 632//631
f 638//637 632//631 633//632
f 639//638 633//632 634//633
f 640//639 634//633 635//634
f 641//640 635//634 636//635
f 642//641 636//635 438//437
f 643//642 637//636 644//643
f 644//643 637//636 638//637
f 645//644 638//637 639//638
f 646//645 639//638 640//639
f 647//646 640//639 641//640
f 649//648 648//647 641//640
f 452//451 649//648 642//641
f 650//649 643//642 644//643
f 651//650 644//643 645//644
f 652//651 645//644 646//645
f 653//652 646//645 647//646
f 654//653 647//646 648//647
f 656//655 655//654 648//647
f 459//458 656//655 649//648
f 657//656 650//649 651//650
f 658//657 651//650 652//651
f 659//658 652//651 653//652
f 660//659 653//652 654//653
f 661//660 654//653 655//654
f 663//662 662//661 655//654
f 466//465 663//662 656//655
f 664//663 753//752 666//665
f 665//664 666//665 668//667
f 667//666 668//667 670//669
f 669//668 670//669 672//671
f 671//670 672//671 674//673
f 675//674 673//672 674//673
f 473//472 675//674 676//675
f 677//676 664//663 665//664
f 678//677 665//664 667//666
f 679//678 667//666 669//668
f 680//679 669//668 671//670
f 681//680 671//670 673//672
f 682//681 673//672 675//674
f 683//682 675//674 473//472
f 684//683 677//676 678//677
f 685//684 678//677 679//678
f 686//685 679//678 680//679
f 687//686 680//679 681//680
f 688//687 681//680 682//681
f 689//688 682//681 683//682
f 690//689 683//682 487//486
f 691//690 684//683 685//684
f 692//691 685//684 686//685
f 693//692 686//685 687//686
f 694//693 687//686 688//687
f 695//694 688//687 689//688
f 696//695 689//688 690//689
f 697//696 690//689 494//493
f 699//698 698//697 691//690
f 700//699 699//698 692//691
f 701//700 700//699 693//692
f 701//700 694//693 695//694
f 702//701 695//694 696//695
f 703//702 696//695 697//696
f 704//703 697//696 501//500
f 706//705 705//704 698//697
f 707//706 706//705 699//698
f 708//707 707//706 700//699
f 709//708 708//707 701//700
f 709//708 702//701 703//702
f 710//709 703//702 704//703
f 711//710 704//703 508//507
f 614//613 643//642 705//704
f 616//615 614//613 706//705
f 618//617 616//615 707//706
f 620//619 618//617 708//707
f 620//619 709//708 710//709
f 622//621 710//709 711//710
f 624//623 711//710 515//514
f 714//713 713//712 712//711
f 715//714 712//711 713//712
f 717//716 715//714 716//715
f 719//718 717//716 718//717
f 721//720 719//718 720//719
f 721//720 722//721 724//723
f 723//722 724//723 525//524
f 726//725 725//724 714//713
f 727//726 726//725 712//711
f 728//727 727//726 715//714
f 729//728 728//727 717//716
f 730//729 729//728 719//718
f 730//729 721//720 723//722
f 731//730 723//722 522//521
f 733//732 732//731 725//724
f 734//733 733//732 726//725
f 735//734 734//733 727//726
f 736//735 735//734 728//727
f 737//736 736//735 729//728
f 737//736 730//729 731//730
f 738//737 731//730 536//535
f 740//739 739//738 732//731
f 741//740 740//739 733//732
f 742//741 741//740 734//733
f 743//742 742//741 735//734
f 744//743 743//742 736//735
f 745//744 744//743 737//736
f 550//549 745//744 738//737
f 746//745 739//738 740//739
f 747//746 740//739 741//740
f 748//747 741//740 742//741
f 749//748 742//741 743//742
f 750//749 743//742 744//743
f 752//751 751//750 744//743
f 557//556 752//751 745//744
f 753//752 746//745 747//746
f 754//753 747//746 748//747
f 755//754 748//747 749//748
f 756//755 749//748 750//749
f 757//756 750//749 751//750
f 759//758 758//757 751//750
f 564//563 759//758 752//751
f 753//752 754//753 666//665
f 666//665 754//753 755//754
f 668//667 755//754 756//755
f 670//669 756//755 757//756
f 672//671 757//756 758//757
f 676//675 674//673 758//757
f 476//475 676//675 759//758
f 760//759 657//656 658//657
f 761//760 658//657 659//658
f 762//761 659//658 660//659
f 763//762 660//659 661//660
f 765//764 764//763 661//660
f 766//765 765//764 662//661
f 571//570 766//765 663//662
f 767//766 760//759 761//760
f 768//767 761//760 762//761
f 769//768 762//761 763//762
f 770//769 763//762 764//763
f 772//771 771//770 764//763
f 773//772 772//771 765//764
f 578//577 773//772 766//765
f 774//773 767//766 768//767
f 775//774 768//767 769//768
f 776//775 769//768 770//769
f 778//777 777//776 770//769
f 779//778 778//777 771//770
f 780//779 779//778 772//771
f 585//584 780//779 773//772
f 782//781 781//780 774//773
f 783//782 782//781 775//774
f 784//783 783//782 776//775
f 785//784 784//783 777//776
f 786//785 785//784 778//777
f 787//786 786//785 779//778
f 592//591 787//786 780//779
f 789//788 788//787 781//780
f 790//789 789//788 782//781
f 791//790 790//789 783//782
f 792//791 791//790 784//783
f 793//792 792//791 785//784
f 794//793 793//792 786//785
f 599//598 794//793 787//786
f 796//795 795//794 788//787
f 797//796 796//795 789//788
f 798//797 797//796 790//789
f 799//798 798//797 791//790
f 800//799 799//798 792//791
f 801//800 800//799 793//792
f 606//605 801//800 794//793
f 713//712 714//713 795//794
f 716//715 713//712 796//795
f 718//717 716//715 797//796
f 720//719 718//717 798//797
f 722//721 720//719 799//798
f 722//721 800//799 801//800
f 724//723 801//800 606//605
f 1//1 3//3 2//2
f 2//2 6//6 5//5
f 5//5 8//8 7//7
f 7//7 10//10 9//9
f 9//9 12//12 11//11
f 13//13 12//12 14//14
f 15//15 14//14 16//16
f 17//17 2//2 18//18
f 18//18 5//5 19//19
f 19//19 7//7 20//20
f 20//20 9//9 21//21
f 22//22 9//9 11//11
f 23//23 11//11 13//13
f 46//46 13//13 15//15
f 24//24 18//18 25//25
f 25//25 19//19 26//26
f 26//26 20//20 27//27
f 27//27 21//21 28//28
f 29//29 21//21 22//22
f 30//30 22//22 23//23
f 38//38 23//23 46//46
f 31//31 25//25 32//32
f 32//32 26//26 33//33
f 34//34 26//26 27//27
f 35//35 27//27 28//28
f 36//36 28//28 29//29
f 37//37 29//29 30//30
f 40//40 31//31 32//32
f 41//41 32//32 33//33
f 42//42 33//33 34//34
f 43//43 34//34 35//35
f 43//43 36//36 44//44
f 44//44 37//37 45//45
f 45//45 38//38 46//46
f 48//48 39//39 40//40
f 49//49 40//40 41//41
f 50//50 41//41 42//42
f 51//51 42//42 43//43
f 51//51 44//44 52//52
f 52//52 45//45 53//53
f 53//53 46//46 54//54
f 56//56 47//47 48//48
f 57//57 48//48 49//49
f 58//58 49//49 50//50
f 59//59 50//50 51//51
f 60//60 51//51 52//52
f 60//60 53//53 61//61
f 61//61 54//54 62//62
f 64//64 66//66 65//65
f 67//67 65//65 68//68
f 69//69 68//68 70//70
f 71//71 70//70 72//72
f 73//73 72//72 74//74
f 75//75 74//74 76//76
f 77//77 76//76 78//78
f 80//80 63//63 64//64
f 81//81 64//64 67//67
f 82//82 67//67 69//69
f 83//83 69//69 71//71
f 84//84 71//71 73//73
f 85//85 73//73 75//75
f 86//86 75//75 77//77
f 87//87 80//80 88//88
f 88//88 81//81 89//89
f 89//89 82//82 90//90
f 90//90 83//83 91//91
f 92//92 83//83 84//84
f 93//93 84//84 85//85
f 94//94 85//85 86//86
f 95//95 88//88 96//96
f 96//96 89//89 97//97
f 97//97 90//90 98//98
f 98//98 91//91 99//99
f 99//99 92//92 100//100
f 100//100 93//93 101//101
f 101//101 94//94 102//102
f 103//103 96//96 104//104
f 104//104 97//97 105//105
f 105//105 98//98 106//106
f 106//106 99//99 107//107
f 107//107 100//100 108//108
f 108//108 101//101 109//109
f 109//109 102//102 110//110
f 111//111 104//104 112//112
f 112//112 105//105 113//113
f 113//113 106//106 114//114
f 114//114 107//107 115//115
f 115//115 108//108 116//116
f 116//116 109//109 117//117
f 117//117 110//110 118//118
f 4//4 112//112 3//3
f 3//3 113//113 6//6
f 6//6 114//114 8//8
f 8//8 115//115 10//10
f 10//10 116//116 12//12
f 12//12 117//117 14//14
f 14//14 118//118 16//16
f 119//119 121//121 120//120
f 120//120 124//124 123//123
f 123//123 126//126 125//125
f 125//125 128//128 127//127
f 127//127 130//130 129//129
f 129//129 132//132 131//131
f 133//133 132//132 134//134
f 135//135 120//120 136//136
f 136//136 123//123 137//137
f 137//137 125//125 138//138
f 138//138 127//127 139//139
f 139//139 129//129 140//140
f 141//141 129//129 131//131
f 142//142 131//131 133//133
f 143//143 136//136 144//144
f 144//144 137//137 145//145
f 145//145 138//138 146//146
f 146//146 139//139 147//147
f 148//148 139//139 140//140
f 149//149 140//140 141//141
f 150//150 141//141 142//142
f 151//151 144//144 152//152
f 153//153 144//144 145//145
f 154//154 145//145 146//146
f 155//155 146//146 147//147
f 156//156 147//147 148//148
f 156//156 149//149 157//157
f 159//159 151//151 152//152
f 160//160 152//152 153//153
f 161//161 153//153 154//154
f 162//162 154//154 155//155
f 162//162 156//156 163//163
f 163//163 157//157 164//164
f 164//164 150//150 142//142
f 166//166 158//158 159//159
f 167//167 159//159 160//160
f 168//168 160//160 161//161
f 169//169 161//161 162//162
f 170//170 162//162 163//163
f 170//170 164//164 171//171
f 171//171 142//142 172//172
f 65//65 165//165 166//166
f 68//68 166//166 167//167
f 70//70 167//167 168//168
f 72//72 168//168 169//169
f 74//74 169//169 170//170
f 76//76 170//170 171//171
f 76//76 172//172 78//78
f 174//174 55//55 56//56
f 175//175 56//56 57//57
f 176//176 57//57 58//58
f 177//177 58//58 59//59
f 178//178 59//59 60//60
f 179//179 60//60 61//61
f 180//180 61//61 62//62
f 182//182 173//173 174//174
f 183//183 174//174 175//175
f 184//184 175//175 176//176
f 185//185 176//176 177//177
f 186//186 177//177 178//178
f 187//187 178//178 179//179
f 188//188 179//179 180//180
f 190//190 181//181 182//182
f 191//191 182//182 183//183
f 192//192 183//183 184//184
f 193//193 184//184 185//185
f 194//194 185//185 186//186
f 195//195 186//186 187//187
f 196//196 187//187 188//188
f 198//198 189//189 190//190
f 199//199 190//190 191//191
f 200//200 191//191 192//192
f 201//201 192//192 193//193
f 202//202 193//193 194//194
f 203//203 194//194 195//195
f 204//204 195//195 196//196
f 206//206 197//197 198//198
f 207//207 198//198 199//199
f 208//208 199//199 200//200
f 209//209 200//200 201//201
f 209//209 202//202 210//210
f 210//210 203//203 211//211
f 211//211 204//204 212//212
f 213//213 206//206 214//214
f 214//214 207//207 215//215
f 215//215 208//208 216//216
f 216//216 209//209 217//217
f 217//217 210//210 218//218
f 218//218 211//211 219//219
f 219//219 212//212 220//220
f 122//122 214//214 121//121
f 121//121 215//215 124//124
f 124//124 216//216 126//126
f 126//126 217//217 128//128
f 128//128 218//218 130//130
f 130//130 219//219 132//132
f 132//132 220//220 134//134
f 222//222 224//224 223//223
f 225//225 223//223 226//226
f 227//227 226//226 228//228
f 229//229 228//228 230//230
f 231//231 230//230 232//232
f 233//233 232//232 234//234
f 1//1 234//234 4//4
f 236//236 221//221 222//222
f 237//237 222//222 225//225
f 238//238 225//225 227//227
f 239//239 227//227 229//229
f 240//240 229//229 231//231
f 241//241 231//231 233//233
f 17//17 233//233 1//1
f 243//243 235//235 236//236
f 244//244 236//236 237//237
f 245//245 237//237 238//238
f 246//246 238//238 239//239
f 247//247 239//239 240//240
f 247//247 241//241 248//248
f 248//248 17//17 24//24
f 250//249 242//242 243//243
f 251//250 243//243 244//244
f 252//251 244//244 245//245
f 253//252 245//245 246//246
f 254//253 246//246 247//247
f 255//254 247//247 248//248
f 31//31 248//248 24//24
f 256//255 250//249 257//256
f 257//256 251//250 258//257
f 258//257 252//251 259//258
f 259//258 253//252 260//259
f 260//259 254//253 261//260
f 262//261 254//253 255//254
f 39//39 255//254 31//31
f 263//262 257//256 264//263
f 264//263 258//257 265//264
f 265//264 259//258 266//265
f 266//265 260//259 267//266
f 267//266 261//260 268//267
f 268//267 262//261 269//268
f 269//268 39//39 47//47
f 270//269 264//263 271//270
f 271//270 265//264 272//271
f 272//271 266//265 273//272
f 273//272 267//266 274//273
f 274//273 268//267 275//274
f 275//274 269//268 276//275
f 276//275 47//47 55//55
f 278//277 280//279 279//278
f 278//277 282//281 281//280
f 281//280 284//283 283//282
f 283//282 286//285 285//284
f 285//284 288//287 287//286
f 287//286 290//289 289//288
f 289//288 66//66 63//63
f 292//291 277//276 278//277
f 293//292 278//277 281//280
f 294//293 281//280 283//282
f 295//294 283//282 285//284
f 296//295 285//284 287//286
f 297//296 287//286 289//288
f 79//79 289//288 63//63
f 299//298 291//290 292//291
f 300//299 292//291 293//292
f 301//300 293//292 294//293
f 302//301 294//293 295//294
f 303//302 295//294 296//295
f 304//303 296//295 297//296
f 87//87 297//296 79//79
f 306//305 298//297 299//298
f 307//306 299//298 300//299
f 308//307 300//299 301//300
f 309//308 301//300 302//301
f 310//309 302//301 303//302
f 311//310 303//302 304//303
f 95//95 304//303 87//87
f 313//312 305//304 306//305
f 314//313 306//305 307//306
f 315//314 307//306 308//307
f 316//315 308//307 309//308
f 317//316 309//308 310//309
f 318//317 310//309 311//310
f 103//103 311//310 95//95
f 320//319 312//311 313//312
f 321//320 313//312 314//313
f 322//321 314//313 315//314
f 323//322 315//314 316//315
f 324//323 316//315 317//316
f 325//324 317//316 318//317
f 111//111 318//317 103//103
f 223//223 319//318 320//319
f 226//226 320//319 321//320
f 228//228 321//320 322//321
f 230//230 322//321 323//322
f 232//232 323//322 324//323
f 234//234 324//323 325//324
f 4//4 325//324 111//111
f 326//325 328//327 327//326
f 330//329 328//327 331//330
f 332//331 331//330 333//332
f 334//333 333//332 335//334
f 336//335 335//334 337//336
f 338//337 337//336 339//338
f 119//119 339//338 122//122
f 340//339 327//326 341//340
f 342//341 327//326 330//329
f 343//342 330//329 332//331
f 344//343 332//331 334//333
f 345//344 334//333 336//335
f 346//345 336//335 338//337
f 135//135 338//337 119//119
f 347//346 341//340 348//347
f 349//348 341//340 342//341
f 350//349 342//341 343//342
f 351//350 343//342 344//343
f 352//351 344//343 345//344
f 353//352 345//344 346//345
f 143//143 346//345 135//135
f 355//354 347//346 348//347
f 356//355 348//347 349//348
f 357//356 349//348 350//349
f 358//357 350//349 351//350
f 358//357 352//351 359//358
f 359//358 353//352 360//359
f 360//359 143//143 151//151
f 362//361 354//353 355//354
f 363//362 355//354 356//355
f 363//362 357//356 364//363
f 364//363 358//357 365//364
f 365//364 359//358 366//365
f 366//365 360//359 367//366
f 367//366 151//151 158//158
f 369//368 361//360 362//361
f 369//368 363//362 370//369
f 370//369 364//363 371//370
f 371//370 365//364 372//371
f 372//371 366//365 373//372
f 373//372 367//366 374//373
f 374//373 158//158 165//165
f 279//278 368//367 369//368
f 279//278 370//369 282//281
f 282//281 371//370 284//283
f 284//283 372//371 286//285
f 286//285 373//372 288//287
f 288//287 374//373 290//289
f 290//289 165//165 66//66
f 375//374 271//270 376//375
f 376//375 272//271 377//376
f 377//376 273//272 378//377
f 378//377 274//273 379//378
f 379//378 275//274 380//379
f 380//379 276//275 381//380
f 381//380 55//55 173//173
f 382//381 376//375 383//382
f 383//382 377//376 384//383
f 384//383 378//377 385//384
f 385//384 379//378 386//385
f 386//385 380//379 387//386
f 387//386 381//380 388//387
f 388//387 173//173 181//181
f 389//388 383//382 390//389
f 390//389 384//383 391//390
f 391//390 385//384 392//391
f 392//391 386//385 393//392
f 393//392 387//386 394//393
f 394//393 388//387 395//394
f 395//394 181//181 189//189
f 396//395 390//389 397//396
f 397//396 391//390 398//397
f 398//397 392//391 399//398
f 399//398 393//392 400//399
f 400//399 394//393 401//400
f 401//400 395//394 402//401
f 402//401 189//189 197//197
f 403//402 397//396 404//403
f 404//403 398//397 405//404
f 405//404 399//398 406//405
f 406//405 400//399 407//406
f 407//406 401//400 408//407
f 408//407 402//401 409//408
f 409//408 197//197 205//205
f 410//409 404//403 411//410
f 411//410 405//404 412//411
f 412//411 406//405 413//412
f 413//412 407//406 414//413
f 414//413 408//407 415//414
f 415//414 409//408 416//415
f 416//415 205//205 213//213
f 329//328 411//410 328//327
f 328//327 412//411 331//330
f 333//332 412//411 413//412
f 335//334 413//412 414//413
f 337//336 414//413 415//414
f 339//338 415//414 416//415
f 122//122 416//415 213//213
f 417//416 419//418 418//417
f 418//417 422//421 421//420
f 421//420 424//423 423//422
f 423//422 426//425 425//424
f 425//424 428//427 427//426
f 427//426 430//429 429//428
f 429//428 224//224 221//221
f 431//430 418//417 432//431
f 432//431 421//420 433//432
f 433//432 423//422 434//433
f 434//433 425//424 435//434
f 435//434 427//426 436//435
f 436//435 429//428 437//436
f 437//436 221//221 235//235
f 438//437 432//431 439//438
f 439//438 433//432 440//439
f 440//439 434//433 441//440
f 441//440 435//434 442//441
f 442//441 436//435 443//442
f 443//442 437//436 444//443
f 444//443 235//235 242//242
f 446//445 438//437 439//438
f 447//446 439//438 440//439
f 448//447 440//439 441//440
f 449//448 441//440 442//441
f 450//449 442//441 443//442
f 451//450 443//442 444//443
f 249//242 444//443 242//242
f 453//452 445//444 446//445
f 454//453 446//445 447//446
f 455//454 447//446 448//447
f 456//455 448//447 449//448
f 457//456 449//448 450//449
f 458//457 450//449 451//450
f 256//255 451//450 249//242
f 460//459 452//451 453//452
f 461//460 453//452 454//453
f 462//461 454//453 455//454
f 463//462 455//454 456//455
f 464//463 456//455 457//456
f 465//464 457//456 458//457
f 263//262 458//457 256//255
f 467//466 459//458 460//459
f 468//467 460//459 461//460
f 469//468 461//460 462//461
f 470//469 462//461 463//462
f 471//470 463//462 464//463
f 472//471 464//463 465//464
f 270//269 465//464 263//262
f 474//473 476//475 475//474
f 477//476 475//474 478//477
f 479//478 478//477 480//479
f 481//480 480//479 482//481
f 483//482 482//481 484//483
f 485//484 484//483 486//485
f 277//276 486//485 280//279
f 487//486 474//473 488//487
f 488//487 477//476 489//488
f 489//488 479//478 490//489
f 490//489 481//480 491//490
f 491//490 483//482 492//491
f 493//492 483//482 485//484
f 291//290 485//484 277//276
f 494//493 488//487 495//494
f 495//494 489//488 496//495
f 496//495 490//489 497//496
f 497//496 491//490 498//497
f 498//497 492//491 499//498
f 500//499 492//491 493//492
f 298//297 493//492 291//290
f 501//500 495//494 502//501
f 502//501 496//495 503//502
f 503//502 497//496 504//503
f 504//503 498//497 505//504
f 505//504 499//498 506//505
f 507//506 499//498 500//499
f 305//304 500//499 298//297
f 508//507 502//501 509//508
f 509//508 503//502 510//509
f 510//509 504//503 511//510
f 511//510 505//504 512//511
f 512//511 506//505 513//512
f 514//513 506//505 507//506
f 312//311 507//506 305//304
f 515//514 509//508 516//515
f 516//515 510//509 517//516
f 517//516 511//510 518//517
f 518//517 512//511 519//518
f 519//518 513//512 520//519
f 520//519 514//513 521//520
f 319//318 514//513 312//311
f 420//419 516//515 419//418
f 419//418 517//516 422//421
f 422//421 518//517 424//423
f 424//423 519//518 426//425
f 426//425 520//519 428//427
f 428//427 521//520 430//429
f 224//224 521//520 319//318
f 522//521 524//523 523//522
f 523//522 527//526 526//525
f 526//525 529//528 528//527
f 528//527 531//530 530//529
f 530//529 533//532 532//531
f 532//531 535//534 534//533
f 534//533 329//328 326//325
f 536//535 523//522 537//536
f 537//536 526//525 538//537
f 538//537 528//527 539//538
f 539//538 530//529 540//539
f 540//539 532//531 541//540
f 541//540 534//533 542//541
f 542//541 326//325 340//339
f 543//542 537//536 544//543
f 544//543 538//537 545//544
f 545//544 539//538 546//545
f 546//545 540//539 547//546
f 547//546 541//540 548//547
f 548//547 542//541 549//548
f 549//548 340//339 347//346
f 551//550 543//542 544//543
f 552//551 544//543 545//544
f 553//552 545//544 546//545
f 554//553 546//545 547//546
f 555//554 547//546 548//547
f 556//555 548//547 549//548
f 354//353 549//548 347//346
f 558//557 550//549 551//550
f 559//558 551//550 552//551
f 560//559 552//551 553//552
f 561//560 553//552 554//553
f 562//561 554//553 555//554
f 563//562 555//554 556//555
f 361//360 556//555 354//353
f 565//564 557//556 558//557
f 566//565 558//557 559//558
f 567//566 559//558 560//559
f 568//567 560//559 561//560
f 569//568 561//560 562//561
f 570//569 562//561 563//562
f 368//367 563//562 361//360
f 475//474 564//563 565//564
f 478//477 565//564 566//565
f 480//479 566//565 567//566
f 482//481 567//566 568//567
f 484//483 568//567 569//568
f 486//485 569//568 570//569
f 280//279 570//569 368//367
f 572//571 466//465 467//466
f 573//572 467//466 468//467
f 574//573 468//467 469//468
f 575//574 469//468 470//469
f 576//575 470//469 471//470
f 577//576 471//470 472//471
f 577//576 270//269 375//374
f 579//578 571//570 572//571
f 580//579 572//571 573//572
f 581//580 573//572 574//573
f 582//581 574//573 575//574
f 583//582 575//574 576//575
f 584//583 576//575 577//576
f 584//583 375//374 382//381
f 586//585 578//577 579//578
f 587//586 579//578 580//579
f 588//587 580//579 581//580
f 589//588 581//580 582//581
f 590//589 582//581 583//582
f 590//589 584//583 591//590
f 591//590 382//381 389//388
f 593//592 585//584 586//585
f 594//593 586//585 587//586
f 595//594 587//586 588//587
f 596//595 588//587 589//588
f 597//596 589//588 590//589
f 597//596 591//590 598//597
f 598//597 389//388 396//395
f 600//599 592//591 593//592
f 601//600 593//592 594//593
f 602//601 594//593 595//594
f 603//602 595//594 596//595
f 604//603 596//595 597//596
f 604//603 598//597 605//604
f 605//604 396//395 403//402
f 607//606 599//598 600//599
f 608//607 600//599 601//600
f 609//608 601//600 602//601
f 610//609 602//601 603//602
f 611//610 603//602 604//603
f 611//610 605//604 612//611
f 612//611 403//402 410//409
f 525//524 607//606 524//523
f 524//523 608//607 527//526
f 527//526 609//608 529//528
f 529//528 610//609 531//530
f 531//530 611//610 533//532
f 533//532 612//611 535//534
f 535//534 410//409 329//328
f 615//614 614//613 616//615
f 617//616 616//615 618//617
f 619//618 618//617 620//619
f 621//620 620//619 622//621
f 621//620 624//623 623//622
f 623//622 420//419 417//416
f 626//625 613//612 615//614
f 627//626 615//614 617//616
f 628//627 617//616 619//618
f 629//628 619//618 621//620
f 629//628 623//622 630//629
f 630//629 417//416 431//430
f 632//631 625//624 626//625
f 633//632 626//625 627//626
f 634//633 627//626 628//627
f 635//634 628//627 629//628
f 635//634 630//629 636//635
f 636//635 431//430 438//437
f 637//636 632//631 638//637
f 638//637 633//632 639//638
f 639//638 634//633 640//639
f 640//639 635//634 641//640
f 641//640 636//635 642//641
f 642//641 438//437 445//444
f 644//643 638//637 645//644
f 645//644 639//638 646//645
f 646//645 640//639 647//646
f 647//646 641//640 648//647
f 649//648 641//640 642//641
f 452//451 642//641 445//444
f 650//649 644//643 651//650
f 651//650 645//644 652//651
f 652//651 646//645 653//652
f 653//652 647//646 654//653
f 654//653 648//647 655//654
f 656//655 648//647 649//648
f 459//458 649//648 452//451
f 657//656 651//650 658//657
f 658//657 652//651 659//658
f 659//658 653//652 660//659
f 660//659 654//653 661//660
f 661//660 655//654 662//661
f 663//662 655//654 656//655
f 466//465 656//655 459//458
f 664//663 666//665 665//664
f 665//664 668//667 667//666
f 667//666 670//669 669//668
f 669//668 672//671 671//670
f 671//670 674//673 673//672
f 675//674 674//673 676//675
f 473//472 676//675 476//475
f 677//676 665//664 678//677
f 678//677 667//666 679//678
f 679//678 669//668 680//679
f 680//679 671//670 681//680
f 681//680 673//672 682//681
f 682//681 675//674 683//682
f 683//682 473//472 487//486
f 684//683 678//677 685//684
f 685//684 679//678 686//685
f 686//685 680//679 687//686
f 687//686 681//680 688//687
f 688//687 682//681 689//688
f 689//688 683//682 690//689
f 690//689 487//486 494//493
f 691//690 685//684 692//691
f 692//691 686//685 693//692
f 693//692 687//686 694//693
f 694//693 688//687 695//694
f 695//694 689//688 696//695
f 696//695 690//689 697//696
f 697//696 494//493 501//500
f 699//698 691//690 692//691
f 700//699 692//691 693//692
f 701//700 693//692 694//693
f 701//700 695//694 702//701
f 702//701 696//695 703//702
f 703//702 697//696 704//703
f 704//703 501//500 508//507
f 706//705 698//697 699//698
f 707//706 699//698 700//699
f 708//707 700//699 701//700
f 709//708 701//700 702//701
f 709//708 703//702 710//709
f 710//709 704//703 711//710
f 711//710 508//507 515//514
f 614//613 705//704 706//705
f 616//615 706//705 707//706
f 618//617 707//706 708//707
f 620//619 708//707 709//708
f 620//619 710//709 622//621
f 622//621 711//710 624//623
f 624//623 515//514 420//419
f 715//714 713//712 716//715
f 717//716 716//715 718//717
f 719//718 718//717 720//719
f 721//720 720//719 722//721
f 721//720 724//723 723//722
f 723//722 525//524 522//521
f 726//725 714//713 712//711
f 727//726 712//711 715//714
f 728//727 715//714 717//716
f 729//728 717//716 719//718
f 730//729 719//718 721//720
f 730//729 723//722 731//730
f 731//730 522//521 536//535
f 733//732 725//724 726//725
f 734//733 726//725 727//726
f 735//734 727//726 728//727
f 736//735 728//727 729//728
f 737//736 729//728 730//729
f 737//736 731//730 738//737
f 738//737 536//535 543//542
f 740//739 732//731 733//732
f 741//740 733//732 734//733
f 742//741 734//733 735//734
f 743//742 735//734 736//735
f 744//743 736//735 737//736
f 745//744 737//736 738//737
f 550//549 738//737 543//542
f 746//745 740//739 747//746
f 747//746 741//740 748//747
f 748//747 742//741 749//748
f 749//748 743//742 750//749
f 750//749 744//743 751//750
f 752//751 744//743 745//744
f 557//556 745//744 550//549
f 753//752 747//746 754//753
f 754//753 748//747 755//754
f 755//754 749//748 756//755
f 756//755 750//749 757//756
f 757//756 751//750 758//757
f 759//758 751//750 752//751
f 564//563 752//751 557//556
f 666//665 755//754 668//667
f 668//667 756//755 670//669
f 670//669 757//756 672//671
f 672//671 758//757 674//673
f 676//675 758//757 759//758
f 476//475 759//758 564//563
f 760//759 658//657 761//760
f 761//760 659//658 762//761
f 762//761 660//659 763//762
f 763//762 661//660 764//763
f 765//764 661//660 662//661
f 766//765 662//661 663//662
f 571//570 663//662 466//465
f 767//766 761//760 768//767
f 768//767 762//761 769//768
f 769//768 763//762 770//769
f 770//769 764//763 771//770
f 772//771 764//763 765//764
f 773//772 765//764 766//765
f 578//577 766//765 571//570
f 774//773 768//767 775//774
f 775//774 769//768 776//775
f 776//775 770//769 777//776
f 778//777 770//769 771//770
f 779//778 771//770 772//771
f 780//779 772//771 773//772
f 585//584 773//772 578//577
f 782//781 774//773 775//774
f 783//782 775//774 776//775
f 784//783 776//775 777//776
f 785//784 777//776 778//777
f 786//785 778//777 779//778
f 787//786 779//778 780//779
f 592//591 780//779 585//584
f 789//788 781//780 782//781
f 790//789 782//781 783//782
f 791//790 783//782 784//783
f 792//791 784//783 785//784
f 793//792 785//784 786//785
f 794//793 786//785 787//786
f 599//598 787//786 592//591
f 796//795 788//787 789//788
f 797//796 789//788 790//789
f 798//797 790//789 791//790
f 799//798 791//790 792//791
f 800//799 792//791 793//792
f 801//800 793//792 794//793
f 606//605 794//793 599//598
f 713//712 795//794 796//795
f 716//715 796//795 797//796
f 718//717 797//796 798//797
f 720//719 798//797 799//798
f 722//721 799//798 800//799
f 722//721 801//800 724//723
f 724//723 606//605 525//524
