# Blender 5.2.0 LTS
# www.blender.org
o Gumbo_LOD3_2
v 12.000000 6.000000 0.000000
v 11.999971 3.999999 -0.512461
v 14.000000 4.000000 0.000000
v 14.000000 6.000000 0.000000
v 12.000000 2.000000 0.000000
v 14.000000 2.000000 0.000000
v 10.000000 6.000000 0.000000
v 10.000000 4.000000 0.000000
v 10.000000 2.000000 0.000000
v 13.827462 2.345052 2.849815
v 11.912438 1.426264 3.539767
v 11.855925 1.376309 7.912253
v 14.000000 2.000000 8.000000
v 10.093113 2.031755 3.000861
v 10.000000 2.000000 8.000000
v 13.469713 5.469712 2.939429
v 14.516079 3.837743 3.323202
v 15.085325 3.770312 7.089114
v 14.000000 6.000000 8.000000
v 10.231188 5.831854 2.889040
v 11.825306 6.499206 3.406931
v 11.865450 6.924386 7.412008
v 10.000000 6.000000 8.000000
v 9.353828 3.892140 3.526716
v 9.213085 3.815346 7.877045
v 20.000000 6.000000 0.000000
v 19.999971 3.999999 -0.512461
v 22.000000 4.000000 0.000000
v 22.000000 6.000000 0.000000
v 20.000000 2.000000 0.000000
v 22.000000 2.000000 0.000000
v 18.000000 6.000000 0.000000
v 18.000000 4.000000 0.000000
v 18.000000 2.000000 0.000000
v 22.019913 2.103207 3.000561
v 20.172691 1.513218 3.543097
v 20.181126 1.380597 7.885633
v 22.000000 2.000000 8.000000
v 18.229650 2.459330 2.851671
v 18.000000 2.000000 8.000000
v 21.789661 5.879812 2.883985
v 22.682608 3.937652 3.540559
v 22.709837 3.805487 7.920928
v 22.000000 6.000000 8.000000
v 18.530888 5.469112 2.938229
v 20.215704 6.548130 3.389298
v 20.215511 6.990165 7.380122
v 18.000000 6.000000 8.000000
v 17.545509 3.899987 3.316226
v 17.025787 3.821170 7.025806
v 20.000000 12.000000 0.000001
v 19.999971 9.999988 -0.512461
v 22.000000 10.000000 0.000000
v 22.000000 12.000000 0.000001
v 20.000000 8.000000 0.000000
v 22.000000 8.000000 0.000000
v 18.000000 12.000000 0.000001
v 18.000000 10.000000 0.000000
v 18.000000 8.000000 0.000000
v 21.789661 8.120184 2.883985
v 20.215700 7.451862 3.389297
v 20.215511 7.009827 7.380122
v 22.000000 8.000000 8.000000
v 18.530849 8.530884 2.938229
v 18.000000 8.000000 8.000000
v 22.019913 11.896763 3.000562
v 22.682608 10.062326 3.540559
v 22.709837 10.194487 7.920928
v 22.000000 12.000000 8.000001
v 18.229650 11.540663 2.851672
v 20.172733 12.486759 3.543089
v 20.181463 12.619500 7.885565
v 18.000000 12.000000 8.000001
v 17.545551 10.100049 3.316279
v 17.026163 10.179213 7.026227
v 12.000000 12.000000 0.000001
v 11.999971 9.999988 -0.512461
v 14.000000 10.000000 0.000000
v 14.000000 12.000000 0.000001
v 12.000000 8.000000 0.000000
v 14.000000 8.000000 0.000000
v 10.000000 12.000000 0.000001
v 10.000000 10.000000 0.000000
v 10.000000 8.000000 0.000000
v 13.470463 8.529511 2.940970
v 11.825399 7.500690 3.407124
v 11.865450 7.075606 7.412008
v 14.000000 8.000000 8.000000
v 10.231188 8.168142 2.889040
v 10.000000 8.000000 8.000000
v 13.770350 11.540737 2.851874
v 14.454547 10.099886 3.316647
v 14.973763 10.179213 7.026227
v 14.000000 12.000000 8.000001
v 10.093113 11.968238 3.000862
v 11.883905 12.521836 3.543011
v 11.818537 12.618412 7.885730
v 10.000000 12.000000 8.000001
v 9.353827 10.107841 3.526716
v 9.213085 10.184631 7.877046
v 15.999962 5.550509 8.449491
v 16.043833 3.830266 7.665052
v 16.048676 2.580623 8.251084
v 15.999962 8.449487 8.449487
v 15.999953 6.999997 8.674233
v 18.224701 7.000000 8.224745
v 13.775225 6.999996 8.224745
v 16.000187 11.466637 8.266660
v 15.999981 10.164750 7.653202
v 11.943779 6.999995 7.705121
v 10.506474 6.999996 8.161153
v 20.132627 6.999995 7.662960
v 21.455349 6.999996 8.136154
v 14.023288 1.323854 9.969397
v 11.686705 1.096900 9.896811
v 11.466587 0.966574 11.965088
v 14.000000 0.999999 12.000000
v 9.580745 1.735753 9.745653
v 9.000000 1.500000 12.000000
v 18.000000 0.743983 9.939550
v 16.012751 1.213849 10.051003
v 15.992912 0.415125 12.000000
v 18.000000 -0.000001 12.000000
v 22.058912 1.443064 10.001801
v 20.173206 0.604425 9.918554
v 20.156975 0.120954 12.000000
v 22.000000 0.999999 12.000000
v 22.637100 5.283246 9.973746
v 22.837156 3.228236 9.953391
v 22.809299 2.848706 12.000038
v 23.000000 5.000000 12.000000
v 22.637100 8.716745 9.973746
v 22.537163 6.999996 10.014243
v 23.124500 7.000000 11.999849
v 23.000000 8.999999 12.000000
v 22.058912 12.556888 10.001801
v 22.837156 10.771729 9.953378
v 22.809299 11.151275 12.000039
v 22.000000 12.999999 12.000001
v 18.000000 13.257999 9.939067
v 20.170326 13.361526 9.918303
v 20.151125 13.808999 12.000001
v 18.000000 13.999999 12.000001
v 14.000000 13.258750 9.938899
v 15.998542 13.120989 10.043899
v 15.997038 14.144937 12.000001
v 14.000000 13.999999 12.000001
v 9.508190 12.326950 9.790605
v 11.612429 13.244205 9.893606
v 11.369762 13.576400 12.004201
v 9.000000 12.499999 12.000001
v 14.000000 1.120631 14.157087
v 11.637446 1.098289 14.102862
v 11.913300 2.000911 15.999250
v 14.000000 1.999999 16.000000
v 9.351151 1.297785 13.946375
v 10.000000 1.999999 16.000000
v 18.061462 0.545819 14.219225
v 16.029963 0.793134 14.225389
v 16.005550 2.004690 16.074436
v 18.000000 1.999999 16.000000
v 21.620975 1.217092 13.659225
v 19.973328 0.566915 13.974625
v 19.607212 1.749961 15.570800
v 21.000000 1.999999 15.000000
v 22.906376 5.736558 13.472038
v 22.561121 3.321732 13.603820
v 22.035561 4.341105 14.826312
v 22.500000 7.000000 14.500000
v 23.060001 6.999997 13.334938
v 22.906376 8.263433 13.472038
v 21.620975 12.782862 13.659226
v 22.561119 10.678240 13.603821
v 22.035561 9.658883 14.826312
v 21.000000 11.999999 15.000001
v 18.061350 13.453562 14.218926
v 19.970360 13.397727 13.974476
v 19.607212 12.249974 15.570801
v 18.000000 11.999999 16.000000
v 13.998087 13.444524 14.204339
v 16.029133 13.549969 14.249142
v 16.001762 12.056887 16.074963
v 14.000000 11.999999 16.000000
v 9.306313 12.185187 13.924775
v 11.587495 12.923314 14.115327
v 11.929050 11.477761 15.944989
v 10.000000 10.999999 16.000000
v 14.000000 4.295016 17.494850
v 11.978352 4.273208 17.490570
v 11.985451 6.999999 17.899837
v 14.000000 6.999999 18.000000
v 9.993089 4.314070 17.668175
v 10.000000 6.999999 18.000000
v 17.427849 4.342180 17.283537
v 15.720168 4.320945 17.455339
v 15.506937 6.999999 17.907825
v 17.000000 6.999999 17.700001
v 19.699850 4.980742 16.448988
v 18.774551 4.299394 16.857895
v 18.262276 6.999999 17.297539
v 19.000000 6.999999 17.000000
v 21.078621 6.999995 15.752995
v 19.699850 9.019249 16.448988
v 17.427849 9.657784 17.283537
v 18.774551 9.700565 16.857895
v 14.002250 9.667508 17.452663
v 15.719400 9.691104 17.434507
v 10.007688 9.187045 17.509998
v 11.987995 9.432790 17.382523
v 6.000000 4.419698 19.000000
v 7.894312 4.498032 18.583021
v 7.200673 2.768904 17.345076
v 6.000000 2.999999 18.000000
v 6.000000 6.999999 20.000000
v 8.016747 6.999999 19.136087
v 3.652409 4.730607 17.391500
v 4.675758 4.663013 18.626272
v 5.606927 2.965143 17.267563
v 5.000000 2.999999 16.000000
v 3.000000 6.999999 18.000000
v 4.250981 6.999999 19.423187
v 1.486707 4.984784 10.893149
v 2.143959 4.792089 14.211568
v 3.677747 3.368783 13.324675
v 3.000000 4.000000 10.600000
v 1.000000 7.000000 11.000000
v 1.471051 7.000000 14.613812
v 4.307066 6.127150 6.307066
v 2.536403 5.559565 8.457511
v 3.703135 4.907196 8.692053
v 5.000000 5.800000 7.000000
v 4.000000 7.000000 6.000000
v 2.075897 7.000000 8.322745
v 7.000000 6.292273 4.292273
v 5.515179 6.251016 5.102630
v 5.864528 5.982608 5.823000
v 7.000000 6.000000 5.000000
v 7.000000 7.000000 4.000000
v 5.358764 7.000000 4.782920
v 9.000000 6.500000 5.000000
v 8.147295 6.310520 4.440228
v 8.250777 6.012536 5.180742
v 9.000000 6.000000 5.500000
v 9.000000 7.000000 4.500000
v 8.260817 7.000000 4.171753
v 9.000000 7.500000 5.750000
v 9.200347 7.000000 5.371873
v 9.000000 6.500000 5.750000
v 9.000000 7.000000 6.000000
v 9.000000 8.000000 5.500000
v 9.000000 7.500000 5.000000
v 8.525674 3.129921 10.419425
v 9.031673 3.424633 9.262174
v 9.561391 5.458495 9.033825
v 9.000000 5.000000 10.000000
v 7.761751 3.006505 11.414725
v 8.022203 3.192158 10.854432
v 8.127642 4.934536 10.520738
v 7.000000 5.000000 11.000000
v 7.975506 1.940193 15.087038
v 8.005965 2.193759 13.256844
v 7.102120 3.652908 12.345501
v 7.000000 2.799999 14.000000
v 6.766863 2.268100 16.265621
v 6.046984 2.571754 15.090151
v 4.496664 4.854857 9.993219
v 5.149158 3.580316 12.481484
v 6.414820 4.440673 11.915625
v 5.500000 7.000000 10.000000
v 5.687643 6.134631 7.687643
v 4.773658 5.556697 8.838834
v 5.184642 7.000000 8.949124
v 6.000000 7.000000 8.000000
v 7.000000 6.294065 5.705932
v 6.207209 6.255652 6.553631
v 6.362247 7.000000 6.890688
v 7.000000 7.000000 6.000000
v 8.097245 6.319495 5.663129
v 8.209550 7.000000 5.860298
v 6.000000 9.581133 19.000000
v 7.918142 9.223423 18.500134
v 6.000000 10.999999 18.000000
v 7.227492 10.814112 17.239513
v 3.652412 9.269369 17.391500
v 4.692224 9.352221 18.633093
v 5.000000 10.999999 16.000000
v 5.608007 11.035174 17.270262
v 1.486707 9.015209 10.893150
v 2.143959 9.207885 14.211569
v 3.000000 10.000000 10.600000
v 3.677747 10.631174 13.324675
v 4.307066 7.872846 6.307063
v 2.536403 8.440427 8.457511
v 5.000000 8.200000 7.000000
v 3.703135 9.092795 8.692053
v 7.000000 7.707724 4.292273
v 5.515177 7.748977 5.102629
v 7.000000 8.000000 5.000000
v 5.864524 8.017384 5.823000
v 8.147295 7.689473 4.440230
v 8.250777 7.987460 5.180742
v 8.442026 10.815513 10.507999
v 8.977894 10.582330 9.296810
v 9.000000 9.000000 10.000000
v 9.561391 8.541498 9.033825
v 8.128043 9.065464 10.520513
v 8.179686 10.300459 10.736547
v 7.709979 10.885074 11.431637
v 7.000000 8.999999 11.000000
v 8.045789 11.590087 14.983500
v 8.019156 11.493106 13.239059
v 7.000000 11.199998 14.000001
v 7.103110 10.344724 12.346100
v 6.815143 11.478620 16.203230
v 6.046946 11.432662 15.089252
v 4.496799 9.144824 9.993310
v 5.127786 10.459691 12.470866
v 6.372074 9.635015 11.895262
v 5.687643 7.865365 7.687643
v 4.773674 8.443257 8.838845
v 7.000000 7.705931 5.705932
v 6.207209 7.744339 6.553631
v 8.097243 7.680498 5.663129
v 8.999460 6.999996 9.740335
v 9.736157 6.999995 8.959684
v 6.703338 6.999996 10.454225
v 7.958533 6.999996 10.212945
v 6.605256 8.342258 10.825012
v 6.400577 6.999454 10.531898
v 6.608388 5.653395 10.827112
v 6.640553 4.356364 11.799781
v 6.605098 9.708101 11.782435
v 7.778440 -1.508056 17.904213
v 6.788969 0.990771 18.127808
v 7.250000 0.499999 19.500000
v 7.500000 -1.000001 19.000000
v 6.564418 2.856055 19.356287
v 7.000000 1.999999 20.000000
v 8.000000 -2.000001 16.000000
v 6.555359 1.656926 16.262526
v 6.000000 3.999999 18.000000
v 5.901535 1.943941 12.652325
v 6.249361 1.696534 14.305405
v 7.408790 -1.540450 13.174875
v 6.500000 -0.000000 11.000000
v 6.000000 3.999999 14.000000
v 5.883038 4.332647 16.021000
v 6.280266 2.867156 12.056601
v 5.935215 2.243418 12.199649
v 6.420924 1.210865 10.858250
v 6.500000 2.000000 11.000000
v 8.750000 0.499999 19.500000
v 8.814661 0.435475 18.856216
v 9.068007 -1.507553 17.914639
v 9.000000 -1.000001 19.000000
v 8.476036 0.421138 17.732151
v 9.000000 -2.000001 16.000000
v 8.500000 1.999999 20.000000
v 7.852334 2.857402 19.366301
v 7.000000 3.999999 18.000000
v 7.604004 1.659926 12.902149
v 7.966835 0.918281 15.172991
v 6.836957 4.319147 16.026627
v 7.000000 3.999999 14.000000
v 7.500000 -0.000000 11.000000
v 8.266668 -1.563652 13.185000
v 7.453080 1.208019 10.864325
v 7.619461 1.557783 11.941761
v 7.283957 2.868255 12.061325
v 7.500000 2.000000 11.000000
v 7.750000 1.999999 20.000000
v 7.074296 3.240770 19.444057
v 6.417519 4.214507 18.238087
v 8.250000 -1.000001 19.000000
v 8.052571 0.429492 19.802624
v 8.574411 -2.235610 15.762550
v 8.500979 -1.869987 17.613949
v 7.026704 -0.261409 10.741100
v 7.888291 -1.800561 12.931805
v 7.000000 2.000000 11.000000
v 6.964334 0.953352 10.623247
v 6.472737 4.355901 14.068588
v 6.733994 3.323234 12.279669
v 6.305128 4.611104 16.177177
v 7.778440 15.508054 17.904213
v 6.788969 13.009228 18.127808
v 7.250000 13.499999 19.500000
v 7.500000 14.999999 19.000000
v 6.564418 11.143943 19.356287
v 7.000000 11.999999 20.000000
v 8.000000 15.999999 16.000000
v 6.555359 12.343072 16.262526
v 6.000000 9.999999 18.000000
v 5.901535 12.056058 12.652326
v 6.249361 12.303464 14.305406
v 7.408790 15.540449 13.174876
v 6.500000 13.999999 11.000001
v 6.000000 9.999999 14.000000
v 5.883038 9.667352 16.021000
v 6.280266 11.132843 12.056602
v 5.935215 11.756580 12.199650
v 6.420924 12.789135 10.858251
v 6.500000 11.999999 11.000001
v 8.750000 13.499999 19.500000
v 8.814661 13.564523 18.856216
v 9.068007 15.507551 17.914639
v 9.000000 14.999999 19.000000
v 8.476036 13.578860 17.732151
v 9.000000 15.999999 16.000000
v 8.500000 11.999999 20.000000
v 7.852334 11.142596 19.366301
v 7.000000 9.999999 18.000000
v 7.604004 12.340073 12.902150
v 7.966835 13.081717 15.172992
v 6.836957 9.680852 16.026627
v 7.000000 9.999999 14.000000
v 7.500000 13.999999 11.000001
v 8.266668 15.563651 13.185001
v 7.453080 12.791981 10.864326
v 7.619461 12.442216 11.941762
v 7.283957 11.131744 12.061326
v 7.500000 11.999999 11.000001
v 7.750000 11.999999 20.000000
v 7.074296 10.759229 19.444057
v 6.417519 9.785492 18.238087
v 8.250000 14.999999 19.000000
v 8.052571 13.570506 19.802624
v 8.574411 16.235609 15.762551
v 8.500979 15.869987 17.613949
v 7.026704 14.261409 10.741101
v 7.888291 15.800559 12.931806
v 7.000000 11.999999 11.000001
v 6.964334 13.046648 10.623248
v 6.472737 9.644097 14.068588
v 6.733994 10.676764 12.279669
v 6.305128 9.388895 16.177177
v 5.647259 2.944863 10.799381
v 5.768888 2.774560 10.131628
v 4.655365 2.422750 8.933013
v 4.353545 2.542642 9.366026
v 6.141406 3.107060 9.908176
v 4.829073 2.697150 8.500000
v 6.348934 3.190983 11.732051
v 6.646452 3.084327 11.299033
v 6.824462 3.345490 10.866026
v 5.327585 3.928718 10.799381
v 5.180283 3.336995 10.732912
v 4.100984 2.986310 9.544598
v 4.044528 3.493697 9.366026
v 6.039917 4.142038 11.732051
v 6.052509 3.620399 11.864371
v 5.822697 4.087949 9.908176
v 5.325885 4.137987 10.131628
v 4.218238 3.768092 8.933012
v 4.520056 3.648206 8.500000
v 6.515445 4.296547 10.866026
v 6.217924 4.403201 11.299033
v 5.914696 3.575620 9.529970
v 4.773031 3.204671 8.320673
v 6.811870 3.867130 10.733706
v 2.797767 2.185825 8.377799
v 3.250721 2.137783 8.175848
v 1.805373 1.977556 7.866025
v 3.131346 2.292933 7.748413
v 2.043137 2.054811 7.433012
v 2.576149 2.867906 8.377801
v 2.830441 2.573486 8.652944
v 1.728119 2.215320 7.866025
v 1.650865 2.453084 7.866025
v 2.908973 2.977327 7.748413
v 2.914357 3.173010 8.175848
v 1.769747 2.491711 7.649519
v 1.888629 2.530339 7.433012
v 3.333884 2.737064 7.700223
v 1.806669 2.240842 7.629609
v 1.965883 2.292575 7.433012
v 1.924255 2.016183 7.649519
v 5.636601 9.522337 10.799381
v 5.634900 9.313066 10.131628
v 4.527253 9.682959 8.933013
v 4.353545 9.957358 9.366026
v 6.131713 9.363104 9.908176
v 4.829073 9.802850 8.500000
v 6.348934 9.309016 11.732051
v 6.526941 9.047853 11.299033
v 6.824462 9.154509 10.866026
v 5.956275 10.506191 10.799381
v 5.489299 10.114059 10.732912
v 4.410000 10.464746 9.544598
v 4.662561 10.908415 9.366026
v 6.657951 10.260073 11.732051
v 6.361526 9.830655 11.864371
v 6.450423 10.343993 9.908176
v 6.077906 10.676493 10.131628
v 4.964380 11.028301 8.933013
v 5.138090 10.753906 8.500000
v 7.133479 10.105565 10.866026
v 6.955470 10.366728 11.299033
v 6.223713 9.875434 9.529970
v 5.082048 10.246383 8.320673
v 7.120887 9.583925 10.733706
v 2.885164 10.583151 8.377799
v 3.223372 10.278045 8.175848
v 1.959882 10.997972 7.866025
v 3.217990 10.473729 7.748414
v 2.197646 10.920718 7.433012
v 3.106787 11.265230 8.377802
v 3.139458 10.877569 8.652944
v 2.037136 11.235736 7.866025
v 2.114390 11.473500 7.866025
v 3.440363 11.158124 7.748414
v 3.559738 11.313272 8.175849
v 2.233272 11.434873 7.649519
v 2.352154 11.396246 7.433012
v 3.642901 10.713991 7.700224
v 2.274900 11.158482 7.433012
v 2.115686 11.210214 7.629610
v 2.078764 10.959345 7.649519
vn 0.0265 0.7615 -0.6476
vn -0.0000 -0.0000 -1.0000
vn 0.7613 0.0256 -0.6479
vn 0.6186 0.6186 -0.4845
vn 0.0210 -0.7447 -0.6670
vn 0.5891 -0.6103 -0.5296
vn -0.5985 0.5908 -0.5411
vn -0.7400 0.0099 -0.6725
vn -0.5865 -0.5790 -0.5664
vn 0.7078 -0.7003 -0.0927
vn 0.0438 -0.9953 -0.0861
vn -0.0408 -0.9937 -0.1040
vn 0.4096 -0.8651 -0.2896
vn -0.6857 -0.7232 -0.0832
vn -0.6607 -0.7375 -0.1398
vn 0.6995 0.7119 -0.0618
vn 0.9860 0.0756 -0.1484
vn 0.8114 -0.0438 -0.5828
vn 0.4605 0.5327 -0.7101
vn -0.6944 0.7151 -0.0804
vn 0.0668 0.9920 -0.1075
vn 0.0303 0.9644 -0.2626
vn -0.8247 0.4611 -0.3275
vn -0.9954 0.0114 -0.0954
vn -0.9948 -0.0224 -0.0995
vn -0.0300 0.7581 -0.6514
vn 0.7340 0.0147 -0.6790
vn 0.5974 0.5862 -0.5472
vn -0.0255 -0.7544 -0.6559
vn 0.5735 -0.5885 -0.5699
vn -0.6186 0.6186 -0.4844
vn -0.7660 0.0210 -0.6426
vn -0.5926 -0.6202 -0.5140
vn 0.6998 -0.7097 -0.0810
vn -0.0469 -0.9952 -0.0862
vn 0.0663 -0.9747 -0.2133
vn 0.6991 -0.7035 -0.1282
vn -0.7117 -0.6980 -0.0785
vn -0.4021 -0.8122 -0.4227
vn 0.6931 0.7157 -0.0862
vn 0.9956 0.0291 -0.0890
vn 0.9967 -0.0358 -0.0734
vn 0.8419 0.4678 -0.2691
vn -0.7066 0.7050 -0.0602
vn -0.0669 0.9916 -0.1107
vn -0.0164 0.9830 -0.1827
vn -0.4625 0.5295 -0.7112
vn -0.9885 0.0669 -0.1356
vn -0.8293 -0.0325 -0.5579
vn -0.0255 0.7544 -0.6559
vn 0.7340 -0.0147 -0.6790
vn 0.5735 0.5885 -0.5699
vn -0.0300 -0.7581 -0.6514
vn 0.5974 -0.5862 -0.5472
vn -0.5926 0.6202 -0.5140
vn -0.7660 -0.0210 -0.6425
vn -0.6186 -0.6186 -0.4844
vn 0.6931 -0.7157 -0.0862
vn -0.0669 -0.9916 -0.1107
vn -0.0164 -0.9830 -0.1827
vn 0.8419 -0.4678 -0.2691
vn -0.7066 -0.7050 -0.0601
vn -0.4625 -0.5294 -0.7112
vn 0.6998 0.7097 -0.0810
vn 0.9956 -0.0291 -0.0890
vn 0.9967 0.0358 -0.0734
vn 0.6991 0.7034 -0.1282
vn -0.7118 0.6980 -0.0785
vn -0.0469 0.9952 -0.0862
vn 0.0664 0.9755 -0.2097
vn -0.3835 0.8110 -0.4419
vn -0.9885 -0.0669 -0.1355
vn -0.8234 0.0304 -0.5666
vn 0.0292 0.7509 -0.6597
vn 0.7659 -0.0208 -0.6426
vn 0.5926 0.6202 -0.5140
vn 0.0264 -0.7615 -0.6477
vn 0.6185 -0.6185 -0.4847
vn -0.5865 0.5790 -0.5664
vn -0.7400 -0.0099 -0.6725
vn -0.5985 -0.5908 -0.5411
vn 0.7035 -0.7082 -0.0593
vn 0.0666 -0.9920 -0.1075
vn 0.0303 -0.9644 -0.2626
vn 0.4590 -0.5308 -0.7124
vn -0.6944 -0.7151 -0.0804
vn -0.8247 -0.4611 -0.3275
vn 0.7184 0.6909 -0.0813
vn 0.9885 -0.0665 -0.1355
vn 0.8235 0.0304 -0.5666
vn 0.3852 0.8111 -0.4402
vn -0.6795 0.7292 -0.0808
vn 0.0638 0.9941 -0.0872
vn -0.0595 0.9770 -0.2049
vn -0.6715 0.7180 -0.1830
vn -0.9954 -0.0114 -0.0954
vn -0.9935 0.0191 -0.1123
vn -0.0029 0.3379 -0.9412
vn -0.0259 0.0036 -0.9997
vn -0.0431 -0.6929 -0.7198
vn -0.0000 -0.3417 -0.9398
vn -0.2446 -0.0000 -0.9696
vn 0.2394 -0.0000 -0.9709
vn -0.0001 0.6296 -0.7769
vn -0.0000 -0.0007 -1.0000
vn 0.5029 -0.0000 -0.8643
vn -0.5745 -0.0000 -0.8185
vn -0.7772 -0.0000 -0.6293
vn 0.6832 -0.0000 -0.7303
vn 0.0986 -0.9600 -0.2621
vn -0.1081 -0.9859 -0.1280
vn -0.0987 -0.9946 -0.0312
vn -0.0805 -0.9953 -0.0543
vn -0.6016 -0.7558 -0.2586
vn -0.4985 -0.8496 -0.1725
vn -0.1526 -0.9011 -0.4058
vn -0.1719 -0.8736 -0.4553
vn -0.2361 -0.9676 -0.0893
vn -0.0748 -0.9958 -0.0520
vn 0.6975 -0.6932 -0.1816
vn 0.1748 -0.9431 -0.2827
vn 0.2283 -0.9735 -0.0108
vn 0.7068 -0.7056 0.0506
vn 0.9761 0.0995 -0.1933
vn 0.9788 -0.1841 -0.0895
vn 0.9591 -0.2672 0.0932
vn 0.9981 -0.0619 -0.0006
vn 0.9761 -0.0995 -0.1933
vn 0.9485 -0.0000 -0.3168
vn 0.9969 -0.0000 -0.0781
vn 0.9981 0.0619 -0.0006
vn 0.6935 0.6975 -0.1806
vn 0.9788 0.1841 -0.0895
vn 0.9591 0.2672 0.0932
vn 0.6969 0.7153 0.0513
vn -0.0778 0.9117 -0.4034
vn 0.1734 0.9471 -0.2702
vn 0.2280 0.9736 -0.0116
vn 0.0553 0.9959 -0.0720
vn 0.0765 0.9074 -0.4132
vn 0.0002 0.8621 -0.5068
vn 0.0013 0.9938 -0.1115
vn -0.0839 0.9956 -0.0415
vn -0.6596 0.6978 -0.2793
vn -0.2079 0.9437 -0.2575
vn -0.2771 0.9591 0.0574
vn -0.5939 0.8030 -0.0490
vn -0.0624 -0.9617 0.2669
vn -0.0347 -0.9701 0.2401
vn -0.0001 -0.7536 0.6573
vn -0.0059 -0.7505 0.6609
vn -0.2753 -0.9540 0.1187
vn -0.0051 -0.8135 0.5816
vn -0.0334 -0.8988 0.4371
vn -0.1350 -0.9210 0.3654
vn -0.0092 -0.6956 0.7184
vn 0.0755 -0.6166 0.7836
vn 0.6516 -0.6409 0.4059
vn 0.2345 -0.8734 0.4268
vn 0.2684 -0.5676 0.7783
vn 0.5482 -0.4388 0.7120
vn 0.9540 -0.0968 0.2839
vn 0.8973 -0.2398 0.3705
vn 0.7272 -0.1479 0.6704
vn 0.8055 -0.0000 0.5926
vn 0.9733 -0.0000 0.2295
vn 0.9540 0.0968 0.2839
vn 0.6439 0.6500 0.4035
vn 0.8973 0.2398 0.3705
vn 0.7272 0.1479 0.6704
vn 0.5463 0.4428 0.7109
vn 0.0597 0.8927 0.4466
vn 0.2377 0.8770 0.4176
vn 0.2700 0.5709 0.7753
vn 0.0996 0.6019 0.7924
vn -0.1309 0.8878 0.4413
vn -0.0008 0.8921 0.4518
vn 0.0042 0.6437 0.7653
vn -0.1085 0.6599 0.7434
vn -0.3479 0.8834 0.3141
vn -0.2365 0.8585 0.4551
vn -0.1580 0.6615 0.7331
vn -0.0138 0.7565 0.6539
vn 0.0122 -0.3635 0.9315
vn 0.0317 -0.3668 0.9298
vn 0.0076 0.0304 0.9995
vn 0.0047 0.0098 0.9999
vn 0.1974 -0.3856 0.9013
vn 0.2646 0.0422 0.9634
vn 0.1837 -0.2892 0.9395
vn 0.0592 -0.3414 0.9381
vn 0.0891 0.0054 0.9960
vn 0.2040 0.0015 0.9790
vn 0.5036 -0.1301 0.8541
vn 0.3756 -0.2372 0.8959
vn 0.3332 -0.0000 0.9429
vn 0.4392 -0.0000 0.8984
vn 0.5820 -0.0000 0.8132
vn 0.5036 0.1301 0.8541
vn 0.1817 0.2861 0.9408
vn 0.3756 0.2372 0.8959
vn -0.0395 0.3768 0.9254
vn 0.0454 0.3384 0.9399
vn 0.1970 0.4447 0.8738
vn -0.0482 0.4110 0.9104
vn -0.0356 -0.4524 0.8911
vn 0.3006 -0.4003 0.8657
vn 0.0961 -0.8109 0.5773
vn -0.1865 -0.8120 0.5530
vn 0.0289 -0.0090 0.9995
vn 0.4277 0.0061 0.9039
vn -0.7272 -0.5355 0.4294
vn -0.5265 -0.4942 0.6918
vn -0.4526 -0.8398 0.2998
vn -0.5067 -0.8455 0.1687
vn -0.8417 0.0002 0.5400
vn -0.5476 -0.0005 0.8368
vn -0.8371 -0.5236 -0.1588
vn -0.8059 -0.5465 0.2277
vn -0.3826 -0.9224 -0.0533
vn -0.2167 -0.9178 -0.3328
vn -0.9930 -0.0000 -0.1182
vn -0.9587 -0.0000 0.2846
vn -0.4440 -0.7119 -0.5442
vn -0.6484 -0.5491 -0.5273
vn 0.0630 -0.9090 -0.4120
vn 0.2043 -0.9617 -0.1826
vn -0.7245 -0.0000 -0.6892
vn -0.8523 -0.0000 -0.5231
vn -0.1178 -0.6727 -0.7305
vn -0.3927 -0.7226 -0.5689
vn 0.0572 -0.9972 -0.0487
vn 0.0016 -0.9975 -0.0705
vn -0.1448 -0.0000 -0.9895
vn -0.5632 -0.0000 -0.8263
vn 0.7775 -0.5036 -0.3766
vn 0.2574 -0.6944 -0.6720
vn 0.0859 -0.9961 -0.0208
vn 0.5869 -0.7838 0.2032
vn 0.7417 -0.0000 -0.6708
vn 0.2771 -0.0000 -0.9609
vn 0.6171 0.3844 0.6866
vn 0.9997 -0.0000 0.0238
vn 0.6171 -0.3844 0.6866
vn 0.4483 -0.0000 0.8939
vn 0.5869 0.7838 0.2032
vn 0.7775 0.5036 -0.3766
vn -0.7732 -0.3187 -0.5483
vn -0.9442 -0.1088 -0.3109
vn -0.9131 0.1462 -0.3807
vn -0.7368 -0.0026 -0.6761
vn -0.7429 -0.5612 -0.3649
vn -0.6461 -0.4312 -0.6298
vn -0.4615 -0.1366 -0.8766
vn -0.4877 -0.3772 -0.7873
vn -0.2779 -0.9577 0.0743
vn -0.6356 -0.7548 -0.1621
vn -0.6989 -0.6184 -0.3593
vn -0.3647 -0.8547 -0.3694
vn -0.1666 -0.9600 0.2250
vn -0.2859 -0.9461 -0.1519
vn 0.5535 -0.7095 -0.4362
vn 0.1164 -0.8909 -0.4390
vn -0.0749 -0.7390 -0.6695
vn 0.7752 -0.0014 -0.6317
vn 0.7000 -0.6627 0.2660
vn 0.7583 -0.6511 -0.0332
vn 0.9887 -0.0000 0.1496
vn 0.8644 -0.0000 0.5028
vn 0.2845 -0.7434 0.6053
vn 0.6143 -0.7112 0.3418
vn 0.8920 -0.0000 0.4521
vn 0.4976 -0.0000 0.8674
vn -0.0282 -0.6132 0.7894
vn 0.0052 -0.0000 1.0000
vn 0.0170 0.4962 0.8680
vn 0.3661 0.4696 0.8034
vn -0.0283 0.8514 0.5238
vn 0.2704 0.7904 0.5497
vn -0.7275 0.5351 0.4296
vn -0.5243 0.4953 0.6926
vn -0.4726 0.8630 0.1788
vn -0.3551 0.8926 0.2778
vn -0.8371 0.5236 -0.1588
vn -0.8059 0.5465 0.2277
vn -0.2199 0.9164 -0.3346
vn -0.3904 0.9194 -0.0477
vn -0.4440 0.7119 -0.5442
vn -0.6484 0.5491 -0.5273
vn 0.2043 0.9617 -0.1826
vn 0.0631 0.9090 -0.4120
vn -0.1178 0.6727 -0.7305
vn -0.3927 0.7226 -0.5689
vn 0.0016 0.9975 -0.0705
vn 0.0572 0.9972 -0.0488
vn 0.2574 0.6944 -0.6720
vn 0.0859 0.9961 -0.0208
vn -0.8147 0.2714 -0.5124
vn -0.9405 0.0963 -0.3260
vn -0.7475 0.0043 -0.6642
vn -0.9120 -0.1510 -0.3815
vn -0.4463 0.1700 -0.8786
vn -0.6344 0.1670 -0.7547
vn -0.7402 0.5369 -0.4048
vn -0.4550 0.3832 -0.8039
vn -0.0848 0.9817 0.1707
vn -0.5735 0.8145 -0.0874
vn -0.2170 0.9237 -0.3157
vn -0.6264 0.6865 -0.3692
vn 0.0403 0.9612 0.2729
vn -0.1928 0.9784 -0.0750
vn 0.5519 0.7075 -0.4414
vn 0.1018 0.8968 -0.4306
vn -0.0524 0.7396 -0.6710
vn 0.7000 0.6627 0.2660
vn 0.7583 0.6511 -0.0332
vn 0.2845 0.7434 0.6053
vn 0.6143 0.7112 0.3418
vn -0.0282 0.6132 0.7894
vn -0.6213 -0.0000 -0.7836
vn -0.7955 -0.0000 -0.6059
vn -0.2051 -0.0002 -0.9787
vn -0.3519 -0.0000 -0.9360
vn -0.0972 0.4274 -0.8988
vn 0.1863 -0.0004 -0.9825
vn -0.1251 -0.4421 -0.8882
vn -0.4407 -0.6607 -0.6077
vn -0.3607 0.6799 -0.6384
vn -0.6443 -0.7329 0.2185
vn -0.9508 -0.2938 0.0983
vn -0.7077 -0.2918 0.6434
vn -0.5661 -0.6516 0.5050
vn -0.8099 0.1262 0.5728
vn -0.5233 -0.0491 0.8508
vn -0.6534 -0.7529 0.0793
vn -0.9510 -0.3005 0.0729
vn -0.8993 0.3323 0.2843
vn -0.9862 -0.1643 0.0213
vn -0.9556 -0.2643 0.1307
vn -0.7404 -0.6708 -0.0426
vn -0.7979 -0.4020 -0.4491
vn -0.8604 0.4564 -0.2269
vn -0.9068 0.4215 0.0058
vn -0.6107 0.5653 -0.5545
vn -0.9542 0.1177 -0.2751
vn -0.6943 0.0667 -0.7166
vn -0.4293 0.4404 -0.7885
vn 0.8056 -0.1105 0.5820
vn 0.9597 0.2553 -0.1173
vn 0.8579 -0.4588 0.2314
vn 0.6601 -0.4627 0.5918
vn 0.9234 0.3336 -0.1898
vn 0.8983 -0.4356 -0.0574
vn 0.6857 0.3738 0.6245
vn 0.7080 0.6401 0.2984
vn 0.6923 0.7107 0.1248
vn 0.9769 0.2037 -0.0644
vn 0.9519 0.2902 -0.0983
vn 0.7454 0.6666 -0.0014
vn 0.7695 0.6178 -0.1619
vn 0.7988 -0.1568 -0.5809
vn 0.8968 -0.2963 -0.3285
vn 0.7348 0.0961 -0.6714
vn 0.9971 0.0693 -0.0299
vn 0.7350 0.5783 -0.3541
vn 0.6229 0.4109 -0.6657
vn 0.0017 0.1684 0.9857
vn -0.0007 0.6800 0.7332
vn -0.1399 0.8712 0.4706
vn 0.0282 -0.6910 0.7223
vn 0.0265 -0.3147 0.9488
vn 0.1222 -0.9910 -0.0539
vn 0.0353 -0.9444 0.3269
vn -0.0354 -0.5436 -0.8386
vn 0.0935 -0.9028 -0.4197
vn 0.0049 0.5209 -0.8536
vn 0.0077 0.0526 -0.9986
vn -0.0159 0.9540 -0.2995
vn 0.0104 0.8220 -0.5694
vn -0.0648 0.9969 0.0442
vn -0.6443 0.7329 0.2185
vn -0.9508 0.2938 0.0983
vn -0.7077 0.2918 0.6434
vn -0.5661 0.6516 0.5050
vn -0.8099 -0.1262 0.5728
vn -0.5233 0.0491 0.8508
vn -0.6534 0.7529 0.0793
vn -0.9510 0.3005 0.0729
vn -0.8993 -0.3323 0.2843
vn -0.9862 0.1643 0.0213
vn -0.9556 0.2643 0.1307
vn -0.7404 0.6708 -0.0426
vn -0.7979 0.4020 -0.4491
vn -0.8604 -0.4564 -0.2269
vn -0.9068 -0.4215 0.0058
vn -0.6107 -0.5653 -0.5545
vn -0.9542 -0.1177 -0.2751
vn -0.6943 -0.0667 -0.7166
vn -0.4293 -0.4404 -0.7885
vn 0.8056 0.1105 0.5820
vn 0.9597 -0.2553 -0.1173
vn 0.8579 0.4588 0.2314
vn 0.6601 0.4627 0.5918
vn 0.9234 -0.3336 -0.1898
vn 0.8983 0.4356 -0.0574
vn 0.6857 -0.3738 0.6246
vn 0.7080 -0.6401 0.2984
vn 0.6923 -0.7107 0.1248
vn 0.9769 -0.2037 -0.0644
vn 0.9519 -0.2902 -0.0983
vn 0.7454 -0.6666 -0.0014
vn 0.7695 -0.6178 -0.1619
vn 0.7988 0.1568 -0.5809
vn 0.8968 0.2963 -0.3285
vn 0.7348 -0.0961 -0.6714
vn 0.9971 -0.0693 -0.0299
vn 0.7350 -0.5783 -0.3541
vn 0.6229 -0.4109 -0.6657
vn 0.0017 -0.1684 0.9857
vn -0.0007 -0.6800 0.7332
vn -0.1399 -0.8712 0.4706
vn 0.0282 0.6910 0.7223
vn 0.0265 0.3147 0.9488
vn 0.1222 0.9910 -0.0539
vn 0.0353 0.9444 0.3269
vn -0.0354 0.5436 -0.8386
vn 0.0935 0.9028 -0.4197
vn 0.0049 -0.5209 -0.8536
vn 0.0077 -0.0526 -0.9986
vn -0.0159 -0.9540 -0.2995
vn 0.0104 -0.8220 -0.5694
vn -0.0648 -0.9969 0.0442
vn -0.2906 -0.8388 0.4604
vn 0.3202 -0.9473 -0.0074
vn 0.2908 -0.9552 -0.0545
vn -0.2141 -0.8270 0.5198
vn 0.7412 -0.4855 -0.4636
vn 0.5852 -0.5347 -0.6096
vn -0.3479 -0.8083 0.4750
vn 0.2523 -0.9654 0.0658
vn 0.7460 -0.5286 -0.4051
vn -0.7281 0.5078 0.4604
vn -0.7095 -0.2305 0.6659
vn -0.6151 -0.1999 0.7627
vn -0.6593 0.5432 0.5198
vn -0.7566 0.4494 0.4750
vn -0.7399 -0.2404 0.6283
vn 0.3143 0.8284 -0.4636
vn -0.2978 0.9546 -0.0074
vn -0.3263 0.9437 -0.0545
vn 0.1592 0.7766 -0.6096
vn 0.2929 0.8661 -0.4051
vn -0.3633 0.9293 0.0658
vn 0.7022 0.2282 -0.6744
vn 0.5261 0.1709 -0.8331
vn 0.7583 0.2464 -0.6035
vn -0.1929 -0.8115 0.5517
vn 0.1979 -0.9772 -0.0771
vn -0.5999 -0.7674 0.2264
vn 0.3346 -0.6043 -0.7231
vn -0.1381 -0.6308 -0.7635
vn -0.6330 0.5431 0.5517
vn -0.5290 -0.1719 0.8310
vn -0.9016 -0.2930 0.3182
vn -0.9364 0.2682 0.2264
vn -0.0845 0.6855 -0.7231
vn -0.4143 0.9069 -0.0771
vn -0.8063 0.4724 -0.3561
vn -0.4825 0.4292 -0.7635
vn 0.2988 0.0971 -0.9494
vn -0.8258 -0.2683 -0.4960
vn -0.3243 -0.1054 -0.9401
vn -0.3746 -0.8561 -0.3561
vn -0.7281 -0.5078 0.4604
vn -0.2978 -0.9546 -0.0074
vn -0.3263 -0.9437 -0.0545
vn -0.6593 -0.5432 0.5198
vn 0.3143 -0.8284 -0.4636
vn 0.1592 -0.7766 -0.6096
vn -0.7566 -0.4494 0.4750
vn -0.3633 -0.9293 0.0658
vn 0.2929 -0.8661 -0.4051
vn -0.2906 0.8388 0.4604
vn -0.7095 0.2305 0.6659
vn -0.6151 0.1999 0.7627
vn -0.2141 0.8270 0.5198
vn -0.3479 0.8083 0.4750
vn -0.7399 0.2404 0.6283
vn 0.7412 0.4855 -0.4636
vn 0.3202 0.9473 -0.0074
vn 0.2908 0.9552 -0.0545
vn 0.5852 0.5347 -0.6096
vn 0.7460 0.5286 -0.4051
vn 0.2523 0.9654 0.0658
vn 0.7022 -0.2282 -0.6744
vn 0.5261 -0.1709 -0.8331
vn 0.7583 -0.2464 -0.6035
vn -0.6330 -0.5431 0.5517
vn -0.4143 -0.9069 -0.0771
vn -0.9364 -0.2682 0.2264
vn -0.0845 -0.6855 -0.7231
vn -0.4825 -0.4292 -0.7635
vn -0.1929 0.8115 0.5517
vn -0.5290 0.1719 0.8310
vn -0.9016 0.2930 0.3182
vn -0.5999 0.7674 0.2264
vn 0.3346 0.6043 -0.7231
vn 0.1979 0.9772 -0.0771
vn -0.3746 0.8561 -0.3561
vn -0.1381 0.6308 -0.7635
vn 0.2988 -0.0971 -0.9494
vn -0.3243 0.1054 -0.9401
vn -0.8258 0.2683 -0.4960
vn -0.8063 -0.4724 -0.3561
s 1
f 1//1 4//4 3//3
f 5//5 2//2 3//3
f 8//8 7//7 1//1
f 8//8 2//2 5//5
f 11//11 10//10 13//13
f 11//11 12//12 15//15
f 5//5 6//6 10//10
f 5//5 11//11 14//14
f 16//16 19//19 18//18
f 10//10 17//17 18//18
f 3//3 4//4 16//16
f 3//3 17//17 10//10
f 21//21 20//20 23//23
f 16//16 21//21 22//22
f 1//1 7//7 20//20
f 1//1 21//21 16//16
f 24//24 14//14 15//15
f 24//24 25//25 23//23
f 8//8 9//9 14//14
f 8//8 24//24 20//20
f 26//26 29//28 28//27
f 30//29 27//2 28//27
f 33//32 32//31 26//26
f 33//32 27//2 30//29
f 36//35 35//34 38//37
f 36//35 37//36 40//39
f 30//29 31//30 35//34
f 30//29 36//35 39//38
f 42//41 41//40 44//43
f 42//41 43//42 38//37
f 28//27 29//28 41//40
f 28//27 42//41 35//34
f 45//44 48//47 47//46
f 46//45 47//46 44//43
f 26//26 32//31 45//44
f 26//26 46//45 41//40
f 39//38 40//39 50//49
f 45//44 49//48 50//49
f 33//32 34//33 39//38
f 33//32 49//48 45//44
f 51//50 54//52 53//51
f 55//53 52//2 53//51
f 58//56 57//55 51//50
f 58//56 52//2 55//53
f 61//59 60//58 63//61
f 64//62 61//59 62//60
f 55//53 56//54 60//58
f 55//53 61//59 64//62
f 67//65 66//64 69//67
f 67//65 68//66 63//61
f 53//51 54//52 66//64
f 53//51 67//65 60//58
f 71//69 70//68 73//71
f 71//69 72//70 69//67
f 51//50 57//55 70//68
f 51//50 71//69 66//64
f 64//62 65//63 75//73
f 70//68 74//72 75//73
f 58//56 59//57 64//62
f 58//56 74//72 70//68
f 76//74 79//76 78//75
f 80//77 77//2 78//75
f 83//80 82//79 76//74
f 83//80 77//2 80//77
f 85//82 88//85 87//84
f 86//83 87//84 90//87
f 80//77 81//78 85//82
f 80//77 86//83 89//86
f 91//88 94//91 93//90
f 85//82 92//89 93//90
f 78//75 79//76 91//88
f 78//75 92//89 85//82
f 96//93 95//92 98//95
f 96//93 97//94 94//91
f 76//74 82//79 95//92
f 76//74 96//93 91//88
f 99//96 89//86 90//87
f 99//96 100//97 98//95
f 83//80 84//81 89//86
f 83//80 99//96 95//92
f 101//98 48//47 50//49
f 103//100 102//99 50//49
f 18//18 19//19 101//98
f 18//18 102//99 103//100
f 105//2 104//101 65//63
f 105//2 106//102 48//47
f 88//85 104//101 105//2
f 19//19 107//103 105//2
f 108//104 73//71 75//73
f 104//101 109//105 75//73
f 93//90 94//91 108//104
f 93//90 109//105 104//101
f 110//106 87//84 88//85
f 110//106 107//103 19//19
f 111//107 90//87 87//84
f 111//107 110//106 22//22
f 62//60 63//61 113//109
f 47//46 112//108 113//109
f 65//63 62//60 112//108
f 48//47 106//102 112//108
f 115//111 114//110 117//113
f 118//114 115//111 116//112
f 12//12 13//13 114//110
f 15//15 12//12 115//111
f 120//116 123//119 122//118
f 121//117 122//118 117//113
f 40//39 120//116 121//117
f 103//100 121//117 114//110
f 125//121 124//120 127//123
f 120//116 125//121 126//122
f 37//36 38//37 124//120
f 37//36 125//121 120//116
f 129//125 128//124 131//127
f 124//120 129//125 130//126
f 43//42 44//43 128//124
f 38//37 43//42 129//125
f 132//128 135//131 134//130
f 128//124 133//129 134//130
f 63//61 132//128 133//129
f 44//43 113//109 133//129
f 136//132 139//135 138//134
f 137//133 138//134 135//131
f 69//67 136//132 137//133
f 68//66 137//133 132//128
f 140//136 143//139 142//138
f 141//137 142//138 139//135
f 72//70 73//71 140//136
f 72//70 141//137 136//132
f 145//141 144//140 147//143
f 145//141 146//142 143//139
f 94//91 144//140 145//141
f 73//71 108//104 145//141
f 148//144 151//147 150//146
f 149//145 150//146 147//143
f 98//95 148//144 149//145
f 97//94 149//145 144//140
f 152//148 155//151 154//150
f 153//149 154//150 157//153
f 117//113 152//148 153//149
f 116//112 153//149 156//152
f 159//155 158//154 161//157
f 152//148 159//155 160//156
f 122//118 123//119 158//154
f 117//113 122//118 159//155
f 163//159 162//158 165//161
f 158//154 163//159 164//160
f 126//122 127//123 162//158
f 123//119 126//122 163//159
f 166//162 169//165 168//164
f 167//163 168//164 165//161
f 131//127 166//162 167//163
f 130//126 167//163 162//158
f 166//162 131//127 134//130
f 171//167 170//166 134//130
f 169//165 166//162 170//166
f 169//165 170//166 171//167
f 173//169 172//168 175//171
f 171//167 173//169 174//170
f 138//134 139//135 172//168
f 135//131 138//134 173//169
f 176//172 179//175 178//174
f 177//173 178//174 175//171
f 143//139 176//172 177//173
f 142//138 177//173 172//168
f 180//176 183//179 182//178
f 181//177 182//178 179//175
f 146//142 147//143 180//176
f 143//139 146//142 181//177
f 185//181 184//180 187//183
f 185//181 186//182 183//179
f 150//146 151//147 184//180
f 147//143 150//146 185//181
f 188//184 191//187 190//186
f 192//188 189//185 190//186
f 155//151 188//184 189//185
f 157//153 154//150 189//185
f 195//191 194//190 197//193
f 188//184 195//191 196//192
f 160//156 161//157 194//190
f 155//151 160//156 195//191
f 199//195 198//194 201//197
f 194//190 199//195 200//196
f 164//160 165//161 198//194
f 161//157 164//160 199//195
f 174//170 175//171 203//199
f 202//198 203//199 201//197
f 169//165 174//170 202//198
f 168//164 202//198 198//194
f 204//200 197//193 200//196
f 205//201 200//196 201//197
f 179//175 204//200 205//201
f 178//174 205//201 203//199
f 206//202 191//187 196//192
f 207//203 196//192 197//193
f 183//179 206//202 207//203
f 182//178 207//203 204//200
f 208//204 193//189 190//186
f 209//205 190//186 191//187
f 187//183 208//204 209//205
f 186//182 209//205 206//202
f 211//207 210//206 213//209
f 192//188 211//207 212//208
f 215//211 214//210 210//206
f 193//189 215//211 211//207
f 216//212 219//215 218//214
f 217//213 218//214 213//209
f 220//216 216//212 217//213
f 214//210 221//217 217//213
f 222//218 225//221 224//220
f 223//219 224//220 219//215
f 226//222 222//218 223//219
f 227//223 223//219 216//212
f 228//224 231//227 230//226
f 229//225 230//226 225//221
f 233//229 232//228 228//224
f 226//222 233//229 229//225
f 235//231 234//230 237//233
f 228//224 235//231 236//232
f 239//235 238//234 234//230
f 232//228 239//235 235//231
f 240//236 243//239 242//238
f 241//237 242//238 237//233
f 244//240 240//236 241//237
f 238//234 245//241 241//237
f 247//243 246//242 249//245
f 240//236 247//243 248//244
f 251//247 250//246 246//242
f 244//240 251//247 247//243
f 253//249 252//248 255//251
f 25//25 253//249 254//250
f 118//114 119//115 252//248
f 15//15 118//114 253//249
f 257//253 256//252 259//255
f 252//248 257//253 258//254
f 119//115 256//252 257//253
f 119//115 257//253 252//248
f 261//257 260//256 263//259
f 256//252 261//257 262//258
f 156//152 157//153 260//256
f 119//115 156//152 261//257
f 264//260 218//214 219//215
f 260//256 264//260 265//261
f 212//208 213//209 218//214
f 212//208 264//260 260//256
f 266//262 269//265 268//264
f 267//263 268//264 263//259
f 225//221 266//262 267//263
f 224//220 267//263 265//261
f 270//266 273//269 272//268
f 271//267 272//268 269//265
f 231//227 270//266 271//267
f 230//226 271//267 266//262
f 275//271 274//270 277//273
f 270//266 275//271 276//272
f 236//232 237//233 274//270
f 231//227 236//232 275//271
f 248//244 249//245 279//275
f 278//274 279//275 277//273
f 243//239 248//244 278//274
f 237//233 242//238 278//274
f 281//277 280//276 214//210
f 281//277 215//211 193//189
f 283//279 282//278 280//276
f 283//279 281//277 208//204
f 285//281 284//280 220//216
f 285//281 221//217 214//210
f 287//283 286//282 284//280
f 282//278 287//283 285//281
f 289//285 288//284 226//222
f 284//280 289//285 227//223
f 291//287 290//286 288//284
f 286//282 291//287 289//285
f 292//288 232//228 233//229
f 293//289 233//229 226//222
f 295//291 294//290 292//288
f 290//286 295//291 293//289
f 296//292 238//234 239//235
f 297//293 239//235 232//228
f 298//294 296//292 297//293
f 299//295 297//293 292//288
f 300//296 251//247 244//240
f 300//296 245//241 238//234
f 301//297 250//246 251//247
f 298//294 301//297 300//296
f 302//298 151//147 148//144
f 303//299 148//144 98//95
f 304//300 302//298 303//299
f 305//301 303//299 100//97
f 307//303 306//302 309//305
f 302//298 307//303 308//304
f 304//300 306//302 307//303
f 304//300 307//303 302//298
f 310//306 187//183 184//180
f 311//307 184//180 151//147
f 312//308 310//306 311//307
f 313//309 311//307 308//304
f 287//283 282//278 283//279
f 310//306 314//310 283//279
f 286//282 287//283 314//310
f 315//311 314//310 310//306
f 317//313 316//312 290//286
f 315//311 317//313 291//287
f 318//314 269//265 316//312
f 312//308 318//314 317//313
f 320//316 319//315 294//290
f 316//312 320//316 295//291
f 272//268 273//269 319//315
f 269//265 272//268 320//316
f 321//317 298//294 299//295
f 322//318 299//295 294//290
f 277//273 321//317 322//318
f 276//272 322//318 319//315
f 323//319 246//242 250//246
f 323//319 301//297 298//294
f 279//275 249//245 246//242
f 277//273 279//275 323//319
f 324//320 304//300 305//301
f 325//321 305//301 90//87
f 254//250 255//251 324//320
f 23//23 254//250 325//321
f 327//323 326//322 309//305
f 327//323 306//302 304//300
f 259//255 326//322 327//323
f 255//251 258//254 327//323
f 328//324 309//305 326//322
f 330//326 329//325 326//322
f 269//265 328//324 329//325
f 269//265 329//325 330//326
f 268//264 269//265 330//326
f 331//327 330//326 259//255
f 263//259 268//264 331//327
f 263//259 331//327 262//258
f 332//328 313//309 309//305
f 318//314 332//328 328//324
f 312//308 313//309 332//328
f 312//308 332//328 318//314
f 334//330 333//329 336//332
f 334//330 335//331 338//334
f 340//336 339//335 333//329
f 341//337 340//336 334//330
f 342//338 345//341 344//340
f 343//339 344//340 339//335
f 346//342 342//338 343//339
f 347//343 343//339 340//336
f 349//345 348//344 351//347
f 342//338 349//345 350//346
f 346//342 348//344 349//345
f 346//342 349//345 342//338
f 353//349 352//348 355//351
f 356//352 353//349 354//350
f 358//354 352//348 353//349
f 359//355 353//349 356//352
f 362//358 361//357 364//360
f 362//358 363//359 360//356
f 366//362 365//361 361//357
f 357//353 366//362 362//358
f 368//364 367//363 370//366
f 361//357 368//364 369//365
f 365//361 367//363 368//364
f 365//361 368//364 361//357
f 371//367 358//354 359//355
f 372//368 359//355 360//356
f 338//334 371//367 372//368
f 337//333 372//368 373//369
f 374//370 355//351 352//348
f 375//371 352//348 358//354
f 336//332 374//370 375//371
f 335//331 375//371 371//367
f 377//373 376//372 357//353
f 374//370 377//373 354//350
f 339//335 376//372 377//373
f 333//329 377//373 374//370
f 379//375 378//374 365//361
f 376//372 379//375 366//362
f 344//340 345//341 378//374
f 344//340 379//375 376//372
f 380//376 370//366 367//363
f 381//377 367//363 365//361
f 350//346 351//347 380//376
f 345//341 350//346 381//377
f 383//379 382//378 364//360
f 380//376 383//379 369//365
f 346//342 382//378 383//379
f 348//344 383//379 380//376
f 384//380 373//369 360//356
f 382//378 384//380 363//359
f 341//337 373//369 384//380
f 347//343 384//380 382//378
f 386//382 388//384 385//381
f 386//382 390//386 387//383
f 392//388 385//381 391//387
f 393//389 386//382 392//388
f 394//390 396//392 397//393
f 395//391 391//387 396//392
f 398//394 395//391 394//390
f 399//395 392//388 395//391
f 401//397 403//399 400//396
f 394//390 402//398 401//397
f 398//394 401//397 400//396
f 398//394 394//390 401//397
f 405//401 407//403 404//400
f 408//404 406//402 405//401
f 410//406 405//401 404//400
f 411//407 408//404 405//401
f 414//410 416//412 413//409
f 414//410 412//408 415//411
f 418//414 413//409 417//413
f 409//405 414//410 418//414
f 420//416 422//418 419//415
f 413//409 421//417 420//416
f 417//413 420//416 419//415
f 417//413 413//409 420//416
f 423//419 411//407 410//406
f 424//420 412//408 411//407
f 390//386 424//420 423//419
f 389//385 425//421 424//420
f 426//422 404//400 407//403
f 427//423 410//406 404//400
f 388//384 427//423 426//422
f 387//383 423//419 427//423
f 429//425 409//405 428//424
f 426//422 406//402 429//425
f 391//387 429//425 428//424
f 385//381 426//422 429//425
f 431//427 417//413 430//426
f 428//424 418//414 431//427
f 396//392 430//426 397//393
f 396//392 428//424 431//427
f 432//428 419//415 422//418
f 433//429 417//413 419//415
f 402//398 432//428 403//399
f 397//393 433//429 402//398
f 435//431 416//412 434//430
f 432//428 421//417 435//431
f 398//394 435//431 434//430
f 400//396 432//428 435//431
f 436//432 412//408 425//421
f 434//430 415//411 436//432
f 393//389 436//432 425//421
f 399//395 434//430 436//432
f 438//434 437//433 440//436
f 438//434 439//435 442//438
f 444//440 443//439 437//433
f 445//441 444//440 438//434
f 447//443 446//442 449//445
f 447//443 448//444 440//436
f 451//447 450//446 446//442
f 451//447 447//443 437//433
f 453//449 452//448 455//451
f 453//449 454//450 449//445
f 456//452 452//448 453//449
f 457//453 453//449 446//442
f 458//454 441//437 442//438
f 458//454 459//455 455//451
f 460//456 445//441 441//437
f 460//456 458//454 452//448
f 461//457 463//459 477//473
f 464//460 462//458 477//473
f 440//436 461//457 462//458
f 442//438 439//435 462//458
f 466//462 469//465 468//464
f 461//457 467//463 468//464
f 449//445 466//462 467//463
f 440//436 448//444 467//463
f 470//466 473//469 472//468
f 466//462 471//467 472//468
f 455//451 470//466 471//467
f 449//445 454//450 471//467
f 464//460 465//461 476//472
f 470//466 474//470 476//472
f 442//438 464//460 474//470
f 455//451 459//455 474//470
f 472//468 473//469 476//472
f 477//473 475//471 476//472
f 468//464 469//465 472//468
f 468//464 475//471 477//473
f 479//475 478//474 481//477
f 479//475 480//476 483//479
f 485//481 484//480 478//474
f 486//482 485//481 479//475
f 488//484 487//483 490//486
f 488//484 489//485 481//477
f 492//488 491//487 487//483
f 492//488 488//484 478//474
f 494//490 493//489 496//492
f 494//490 495//491 490//486
f 497//493 493//489 494//490
f 498//494 494//490 487//483
f 499//495 482//478 483//479
f 499//495 500//496 496//492
f 501//497 486//482 482//478
f 501//497 499//495 493//489
f 502//498 504//500 518//514
f 505//501 503//499 518//514
f 481//477 502//498 503//499
f 483//479 480//476 503//499
f 507//503 510//506 509//505
f 502//498 508//504 509//505
f 490//486 507//503 508//504
f 481//477 489//485 508//504
f 511//507 514//510 513//509
f 507//503 512//508 513//509
f 496//492 511//507 512//508
f 490//486 495//491 512//508
f 505//501 506//502 516//512
f 511//507 515//511 516//512
f 483//479 505//501 515//511
f 496//492 500//496 515//511
f 513//509 514//510 516//512
f 518//514 517//513 516//512
f 509//505 510//506 513//509
f 509//505 517//513 518//514
f 1//1 3//3 2//2
f 5//5 3//3 6//6
f 8//8 1//1 2//2
f 8//8 5//5 9//9
f 11//11 13//13 12//12
f 11//11 15//15 14//14
f 5//5 10//10 11//11
f 5//5 14//14 9//9
f 16//16 18//18 17//17
f 10//10 18//18 13//13
f 3//3 16//16 17//17
f 3//3 10//10 6//6
f 21//21 23//23 22//22
f 16//16 22//22 19//19
f 1//1 20//20 21//21
f 1//1 16//16 4//4
f 24//24 15//15 25//25
f 24//24 23//23 20//20
f 8//8 14//14 24//24
f 8//8 20//20 7//7
f 26//26 28//27 27//2
f 30//29 28//27 31//30
f 33//32 26//26 27//2
f 33//32 30//29 34//33
f 36//35 38//37 37//36
f 36//35 40//39 39//38
f 30//29 35//34 36//35
f 30//29 39//38 34//33
f 42//41 44//43 43//42
f 42//41 38//37 35//34
f 28//27 41//40 42//41
f 28//27 35//34 31//30
f 45//44 47//46 46//45
f 46//45 44//43 41//40
f 26//26 45//44 46//45
f 26//26 41//40 29//28
f 39//38 50//49 49//48
f 45//44 50//49 48//47
f 33//32 39//38 49//48
f 33//32 45//44 32//31
f 51//50 53//51 52//2
f 55//53 53//51 56//54
f 58//56 51//50 52//2
f 58//56 55//53 59//57
f 61//59 63//61 62//60
f 64//62 62//60 65//63
f 55//53 60//58 61//59
f 55//53 64//62 59//57
f 67//65 69//67 68//66
f 67//65 63//61 60//58
f 53//51 66//64 67//65
f 53//51 60//58 56//54
f 71//69 73//71 72//70
f 71//69 69//67 66//64
f 51//50 70//68 71//69
f 51//50 66//64 54//52
f 64//62 75//73 74//72
f 70//68 75//73 73//71
f 58//56 64//62 74//72
f 58//56 70//68 57//55
f 76//74 78//75 77//2
f 80//77 78//75 81//78
f 83//80 76//74 77//2
f 83//80 80//77 84//81
f 85//82 87//84 86//83
f 86//83 90//87 89//86
f 80//77 85//82 86//83
f 80//77 89//86 84//81
f 91//88 93//90 92//89
f 85//82 93//90 88//85
f 78//75 91//88 92//89
f 78//75 85//82 81//78
f 96//93 98//95 97//94
f 96//93 94//91 91//88
f 76//74 95//92 96//93
f 76//74 91//88 79//76
f 99//96 90//87 100//97
f 99//96 98//95 95//92
f 83//80 89//86 99//96
f 83//80 95//92 82//79
f 101//98 50//49 102//99
f 103//100 50//49 40//39
f 18//18 101//98 102//99
f 18//18 103//100 13//13
f 105//2 65//63 106//102
f 105//2 48//47 101//98
f 88//85 105//2 107//103
f 19//19 105//2 101//98
f 108//104 75//73 109//105
f 104//101 75//73 65//63
f 93//90 108//104 109//105
f 93//90 104//101 88//85
f 110//106 88//85 107//103
f 110//106 19//19 22//22
f 111//107 87//84 110//106
f 111//107 22//22 23//23
f 62//60 113//109 112//108
f 47//46 113//109 44//43
f 65//63 112//108 106//102
f 48//47 112//108 47//46
f 115//111 117//113 116//112
f 118//114 116//112 119//115
f 12//12 114//110 115//111
f 15//15 115//111 118//114
f 120//116 122//118 121//117
f 121//117 117//113 114//110
f 40//39 121//117 103//100
f 103//100 114//110 13//13
f 125//121 127//123 126//122
f 120//116 126//122 123//119
f 37//36 124//120 125//121
f 37//36 120//116 40//39
f 129//125 131//127 130//126
f 124//120 130//126 127//123
f 43//42 128//124 129//125
f 38//37 129//125 124//120
f 132//128 134//130 133//129
f 128//124 134//130 131//127
f 63//61 133//129 113//109
f 44//43 133//129 128//124
f 136//132 138//134 137//133
f 137//133 135//131 132//128
f 69//67 137//133 68//66
f 68//66 132//128 63//61
f 140//136 142//138 141//137
f 141//137 139//135 136//132
f 72//70 140//136 141//137
f 72//70 136//132 69//67
f 145//141 147//143 146//142
f 145//141 143//139 140//136
f 94//91 145//141 108//104
f 73//71 145//141 140//136
f 148//144 150//146 149//145
f 149//145 147//143 144//140
f 98//95 149//145 97//94
f 97//94 144//140 94//91
f 152//148 154//150 153//149
f 153//149 157//153 156//152
f 117//113 153//149 116//112
f 116//112 156//152 119//115
f 159//155 161//157 160//156
f 152//148 160//156 155//151
f 122//118 158//154 159//155
f 117//113 159//155 152//148
f 163//159 165//161 164//160
f 158//154 164//160 161//157
f 126//122 162//158 163//159
f 123//119 163//159 158//154
f 166//162 168//164 167//163
f 167//163 165//161 162//158
f 131//127 167//163 130//126
f 130//126 162//158 127//123
f 166//162 134//130 170//166
f 171//167 134//130 135//131
f 173//169 175//171 174//170
f 171//167 174//170 169//165
f 138//134 172//168 173//169
f 135//131 173//169 171//167
f 176//172 178//174 177//173
f 177//173 175//171 172//168
f 143//139 177//173 142//138
f 142//138 172//168 139//135
f 180//176 182//178 181//177
f 181//177 179//175 176//172
f 146//142 180//176 181//177
f 143//139 181//177 176//172
f 185//181 187//183 186//182
f 185//181 183//179 180//176
f 150//146 184//180 185//181
f 147//143 185//181 180//176
f 188//184 190//186 189//185
f 192//188 190//186 193//189
f 155//151 189//185 154//150
f 157//153 189//185 192//188
f 195//191 197//193 196//192
f 188//184 196//192 191//187
f 160//156 194//190 195//191
f 155//151 195//191 188//184
f 199//195 201//197 200//196
f 194//190 200//196 197//193
f 164//160 198//194 199//195
f 161//157 199//195 194//190
f 174//170 203//199 202//198
f 202//198 201//197 198//194
f 169//165 202//198 168//164
f 168//164 198//194 165//161
f 204//200 200//196 205//201
f 205//201 201//197 203//199
f 179//175 205//201 178//174
f 178//174 203//199 175//171
f 206//202 196//192 207//203
f 207//203 197//193 204//200
f 183//179 207//203 182//178
f 182//178 204//200 179//175
f 208//204 190//186 209//205
f 209//205 191//187 206//202
f 187//183 209//205 186//182
f 186//182 206//202 183//179
f 211//207 213//209 212//208
f 192//188 212//208 157//153
f 215//211 210//206 211//207
f 193//189 211//207 192//188
f 216//212 218//214 217//213
f 217//213 213//209 210//206
f 220//216 217//213 221//217
f 214//210 217//213 210//206
f 222//218 224//220 223//219
f 223//219 219//215 216//212
f 226//222 223//219 227//223
f 227//223 216//212 220//216
f 228//224 230//226 229//225
f 229//225 225//221 222//218
f 233//229 228//224 229//225
f 226//222 229//225 222//218
f 235//231 237//233 236//232
f 228//224 236//232 231//227
f 239//235 234//230 235//231
f 232//228 235//231 228//224
f 240//236 242//238 241//237
f 241//237 237//233 234//230
f 244//240 241//237 245//241
f 238//234 241//237 234//230
f 247//243 249//245 248//244
f 240//236 248//244 243//239
f 251//247 246//242 247//243
f 244//240 247//243 240//236
f 253//249 255//251 254//250
f 25//25 254//250 23//23
f 118//114 252//248 253//249
f 15//15 253//249 25//25
f 257//253 259//255 258//254
f 252//248 258//254 255//251
f 261//257 263//259 262//258
f 256//252 262//258 259//255
f 156//152 260//256 261//257
f 119//115 261//257 256//252
f 264//260 219//215 265//261
f 260//256 265//261 263//259
f 212//208 218//214 264//260
f 212//208 260//256 157//153
f 266//262 268//264 267//263
f 267//263 263//259 265//261
f 225//221 267//263 224//220
f 224//220 265//261 219//215
f 270//266 272//268 271//267
f 271//267 269//265 266//262
f 231//227 271//267 230//226
f 230//226 266//262 225//221
f 275//271 277//273 276//272
f 270//266 276//272 273//269
f 236//232 274//270 275//271
f 231//227 275//271 270//266
f 248//244 279//275 278//274
f 278//274 277//273 274//270
f 243//239 278//274 242//238
f 237//233 278//274 274//270
f 281//277 214//210 215//211
f 281//277 193//189 208//204
f 283//279 280//276 281//277
f 283//279 208//204 187//183
f 285//281 220//216 221//217
f 285//281 214//210 280//276
f 287//283 284//280 285//281
f 282//278 285//281 280//276
f 289//285 226//222 227//223
f 284//280 227//223 220//216
f 291//287 288//284 289//285
f 286//282 289//285 284//280
f 292//288 233//229 293//289
f 293//289 226//222 288//284
f 295//291 292//288 293//289
f 290//286 293//289 288//284
f 296//292 239//235 297//293
f 297//293 232//228 292//288
f 298//294 297//293 299//295
f 299//295 292//288 294//290
f 300//296 244//240 245//241
f 300//296 238//234 296//292
f 301//297 251//247 300//296
f 298//294 300//296 296//292
f 302//298 148//144 303//299
f 303//299 98//95 100//97
f 304//300 303//299 305//301
f 305//301 100//97 90//87
f 307//303 309//305 308//304
f 302//298 308//304 151//147
f 310//306 184//180 311//307
f 311//307 151//147 308//304
f 312//308 311//307 313//309
f 313//309 308//304 309//305
f 287//283 283//279 314//310
f 310//306 283//279 187//183
f 286//282 314//310 315//311
f 315//311 310//306 312//308
f 317//313 290//286 291//287
f 315//311 291//287 286//282
f 318//314 316//312 317//313
f 312//308 317//313 315//311
f 320//316 294//290 295//291
f 316//312 295//291 290//286
f 272//268 319//315 320//316
f 269//265 320//316 316//312
f 321//317 299//295 322//318
f 322//318 294//290 319//315
f 277//273 322//318 276//272
f 276//272 319//315 273//269
f 323//319 250//246 301//297
f 323//319 298//294 321//317
f 279//275 246//242 323//319
f 277//273 323//319 321//317
f 324//320 305//301 325//321
f 325//321 90//87 111//107
f 254//250 324//320 325//321
f 23//23 325//321 111//107
f 327//323 309//305 306//302
f 327//323 304//300 324//320
f 259//255 327//323 258//254
f 255//251 327//323 324//320
f 328//324 326//322 329//325
f 330//326 326//322 259//255
f 268//264 330//326 331//327
f 331//327 259//255 262//258
f 332//328 309//305 328//324
f 318//314 328//324 269//265
f 334//330 336//332 335//331
f 334//330 338//334 337//333
f 340//336 333//329 334//330
f 341//337 334//330 337//333
f 342//338 344//340 343//339
f 343//339 339//335 340//336
f 346//342 343//339 347//343
f 347//343 340//336 341//337
f 349//345 351//347 350//346
f 342//338 350//346 345//341
f 353//349 355//351 354//350
f 356//352 354//350 357//353
f 358//354 353//349 359//355
f 359//355 356//352 360//356
f 362//358 364//360 363//359
f 362//358 360//356 356//352
f 366//362 361//357 362//358
f 357//353 362//358 356//352
f 368//364 370//366 369//365
f 361//357 369//365 364//360
f 371//367 359//355 372//368
f 372//368 360//356 373//369
f 338//334 372//368 337//333
f 337//333 373//369 341//337
f 374//370 352//348 375//371
f 375//371 358//354 371//367
f 336//332 375//371 335//331
f 335//331 371//367 338//334
f 377//373 357//353 354//350
f 374//370 354//350 355//351
f 339//335 377//373 333//329
f 333//329 374//370 336//332
f 379//375 365//361 366//362
f 376//372 366//362 357//353
f 344//340 378//374 379//375
f 344//340 376//372 339//335
f 380//376 367//363 381//377
f 381//377 365//361 378//374
f 350//346 380//376 381//377
f 345//341 381//377 378//374
f 383//379 364//360 369//365
f 380//376 369//365 370//366
f 346//342 383//379 348//344
f 348//344 380//376 351//347
f 384//380 360//356 363//359
f 382//378 363//359 364//360
f 341//337 384//380 347//343
f 347//343 382//378 346//342
f 386//382 387//383 388//384
f 386//382 389//385 390//386
f 392//388 386//382 385//381
f 393//389 389//385 386//382
f 394//390 395//391 396//392
f 395//391 392//388 391//387
f 398//394 399//395 395//391
f 399//395 393//389 392//388
f 401//397 402//398 403//399
f 394//390 397//393 402//398
f 405//401 406//402 407//403
f 408//404 409//405 406//402
f 410//406 411//407 405//401
f 411//407 412//408 408//404
f 414//410 415//411 416//412
f 414//410 408//404 412//408
f 418//414 414//410 413//409
f 409//405 408//404 414//410
f 420//416 421//417 422//418
f 413//409 416//412 421//417
f 423//419 424//420 411//407
f 424//420 425//421 412//408
f 390//386 389//385 424//420
f 389//385 393//389 425//421
f 426//422 427//423 404//400
f 427//423 423//419 410//406
f 388//384 387//383 427//423
f 387//383 390//386 423//419
f 429//425 406//402 409//405
f 426//422 407//403 406//402
f 391//387 385//381 429//425
f 385//381 388//384 426//422
f 431//427 418//414 417//413
f 428//424 409//405 418//414
f 396//392 431//427 430//426
f 396//392 391//387 428//424
f 432//428 433//429 419//415
f 433//429 430//426 417//413
f 402//398 433//429 432//428
f 397//393 430//426 433//429
f 435//431 421//417 416//412
f 432//428 422//418 421//417
f 398//394 400//396 435//431
f 400//396 403//399 432//428
f 436//432 415//411 412//408
f 434//430 416//412 415//411
f 393//389 399//395 436//432
f 399//395 398//394 434//430
f 438//434 440//436 439//435
f 438//434 442//438 441//437
f 444//440 437//433 438//434
f 445//441 438//434 441//437
f 447//443 449//445 448//444
f 447//443 440//436 437//433
f 451//447 446//442 447//443
f 451//447 437//433 443//439
f 453//449 455//451 454//450
f 453//449 449//445 446//442
f 456//452 453//449 457//453
f 457//453 446//442 450//446
f 458//454 442//438 459//455
f 458//454 455//451 452//448
f 460//456 441//437 458//454
f 460//456 452//448 456//452
f 461//457 477//473 462//458
f 464//460 477//473 465//461
f 440//436 462//458 439//435
f 442//438 462//458 464//460
f 466//462 468//464 467//463
f 461//457 468//464 463//459
f 449//445 467//463 448//444
f 440//436 467//463 461//457
f 470//466 472//468 471//467
f 466//462 472//468 469//465
f 455//451 471//467 454//450
f 449//445 471//467 466//462
f 464//460 476//472 474//470
f 470//466 476//472 473//469
f 442//438 474//470 459//455
f 455//451 474//470 470//466
f 472//468 476//472 475//471
f 477//473 476//472 465//461
f 468//464 472//468 475//471
f 468//464 477//473 463//459
f 479//475 481//477 480//476
f 479//475 483//479 482//478
f 485//481 478//474 479//475
f 486//482 479//475 482//478
f 488//484 490//486 489//485
f 488//484 481//477 478//474
f 492//488 487//483 488//484
f 492//488 478//474 484//480
f 494//490 496//492 495//491
f 494//490 490//486 487//483
f 497//493 494//490 498//494
f 498//494 487//483 491//487
f 499//495 483//479 500//496
f 499//495 496//492 493//489
f 501//497 482//478 499//495
f 501//497 493//489 497//493
f 502//498 518//514 503//499
f 505//501 518//514 506//502
f 481//477 503//499 480//476
f 483//479 503//499 505//501
f 507//503 509//505 508//504
f 502//498 509//505 504//500
f 490//486 508//504 489//485
f 481//477 508//504 502//498
f 511//507 513//509 512//508
f 507//503 513//509 510//506
f 496//492 512//508 495//491
f 490//486 512//508 507//503
f 505//501 516//512 515//511
f 511//507 516//512 514//510
f 483//479 515//511 500//496
f 496//492 515//511 511//507
f 513//509 516//512 517//513
f 518//514 516//512 506//502
f 509//505 513//509 517//513
f 509//505 518//514 504//500
