# Blender 5.2.0 LTS
# www.blender.org
o Teaspoon_LOD3_2
v 0.000000 0.000000 -0.071429
v -0.000000 0.130024 -0.052415
v 0.073674 0.138395 -0.008929
v 0.107143 0.000000 -0.017857
v 0.000000 0.198661 -0.013393
v 0.000107 0.205357 0.000000
v -0.107143 0.000000 -0.017857
v -0.073674 0.138395 -0.008929
v -0.000107 0.205357 0.000000
v 0.128627 0.000000 -0.002790
v 0.088450 0.142719 0.003099
v 0.085953 0.142859 -0.008929
v 0.125000 0.000000 -0.017857
v 0.000139 0.211496 0.003348
v 0.000125 0.214286 0.000000
v 0.000000 0.000000 -0.084822
v 0.000000 0.134488 -0.061663
v -0.085953 0.142859 -0.008929
v -0.125000 0.000000 -0.017857
v 0.000000 0.207589 -0.013393
v -0.000125 0.214286 0.000000
v -0.128627 0.000000 -0.002790
v -0.088450 0.142719 0.003099
v -0.000139 0.211495 0.003348
v 0.000000 -0.250000 0.053571
v 0.000000 -0.145089 -0.014509
v 0.060268 -0.145089 0.012276
v 0.013393 -0.250000 0.053571
v -0.013393 -0.250000 0.053571
v -0.060268 -0.145089 0.012276
v 0.016079 -0.250000 0.049735
v 0.072353 -0.145089 0.017892
v 0.070312 -0.145089 0.007812
v 0.015625 -0.250000 0.044643
v -0.000418 -0.250000 0.038783
v -0.000209 -0.145089 -0.028600
v -0.070312 -0.145089 0.007812
v -0.015625 -0.250000 0.044643
v -0.015974 -0.250000 0.049944
v -0.072301 -0.145089 0.017996
v -0.000000 -0.857143 0.042411
v -0.000000 -0.566951 0.068080
v 0.029018 -0.566951 0.064732
v 0.044643 -0.857143 0.035714
v -0.044643 -0.857143 0.035714
v -0.029018 -0.566951 0.064732
v 0.051339 -0.857143 0.025112
v 0.033709 -0.566956 0.057513
v 0.030134 -0.566951 0.051339
v 0.044643 -0.857143 0.017857
v 0.000000 -0.857143 0.024554
v -0.000209 -0.566956 0.051758
v -0.030134 -0.566951 0.051339
v -0.044643 -0.857143 0.017857
v -0.051339 -0.857143 0.025112
v -0.033657 -0.566961 0.057617
v 0.000045 -0.955223 0.027455
v 0.042411 -0.955223 0.024107
v 0.000045 -1.000000 0.017857
v -0.000357 -1.000000 0.017857
v -0.042589 -0.955223 0.024107
v 0.000179 -1.000000 0.008929
v 0.049615 -0.955223 0.014341
v 0.042589 -0.955223 0.006250
v 0.000357 -1.000000 -0.000000
v 0.000000 -1.000000 -0.000000
v 0.000000 -0.955223 0.009598
v -0.042589 -0.955223 0.006250
v -0.000357 -1.000000 -0.000000
v -0.000424 -1.000000 0.008929
v -0.049738 -0.955223 0.014341
vn -0.0000 -0.0884 -0.9961
vn -0.0000 0.2982 -0.9545
vn 0.4919 0.3493 -0.7975
vn 0.5159 -0.0707 -0.8537
vn -0.0000 0.7676 -0.6409
vn 0.4568 0.5664 -0.6859
vn -0.5160 -0.0709 -0.8537
vn -0.4919 0.3493 -0.7975
vn -0.4568 0.5664 -0.6859
vn -0.6922 0.0085 -0.7217
vn -0.5218 -0.3265 -0.7881
vn -0.7167 -0.4836 0.5024
vn -0.8041 0.0619 0.5913
vn -0.3788 -0.3854 -0.8414
vn -0.6426 -0.7616 -0.0840
vn -0.0000 0.0800 0.9968
vn -0.0000 -0.3377 0.9413
vn 0.7167 -0.4836 0.5024
vn 0.8041 0.0619 0.5913
vn -0.0000 -0.7813 0.6242
vn 0.6426 -0.7616 -0.0840
vn 0.6923 0.0081 -0.7215
vn 0.5218 -0.3265 -0.7881
vn 0.3788 -0.3854 -0.8414
vn -0.0000 -0.3057 -0.9521
vn -0.0000 -0.4321 -0.9018
vn 0.3808 -0.3898 -0.8385
vn -0.3710 -0.2041 -0.9059
vn 0.3679 -0.2046 -0.9071
vn -0.3845 -0.3910 -0.8362
vn -0.9413 0.1215 -0.3150
vn -0.6162 0.1173 -0.7788
vn -0.7074 0.4486 0.5462
vn -0.7471 0.3227 0.5811
vn 0.0092 0.3195 0.9476
vn 0.0015 0.4364 0.8998
vn 0.7097 0.4486 0.5432
vn 0.7592 0.3215 0.5660
vn 0.9369 0.1179 -0.3291
vn 0.6113 0.1142 -0.7831
vn -0.0000 0.1207 -0.9927
vn -0.0000 0.0235 -0.9997
vn -0.5189 0.0002 -0.8548
vn -0.5477 0.0872 -0.8321
vn 0.5475 0.0869 -0.8323
vn 0.5183 0.0003 -0.8552
vn -0.9959 -0.0260 0.0866
vn -0.9973 -0.0550 -0.0488
vn -0.4980 -0.0646 0.8647
vn -0.3446 -0.1184 0.9313
vn -0.0000 -0.1283 0.9917
vn -0.0001 -0.0355 0.9994
vn 0.5040 -0.0650 0.8612
vn 0.3444 -0.1187 0.9313
vn 0.9959 -0.0268 0.0867
vn 0.9969 -0.0548 -0.0561
vn -0.0003 0.1683 -0.9857
vn -0.5080 0.3486 -0.7877
vn -0.4100 0.5289 -0.7431
vn 0.4127 0.5298 -0.7409
vn 0.5096 0.3481 -0.7869
vn -0.7212 0.6926 -0.0117
vn -0.9321 0.3582 0.0547
vn -0.4468 0.1708 0.8782
vn -0.4033 0.2109 0.8904
vn -0.0000 -0.2096 0.9778
vn -0.0000 -0.1682 0.9858
vn 0.4432 0.1684 0.8805
vn 0.3958 0.2035 0.8955
vn 0.7227 0.6912 0.0010
vn 0.9322 0.3569 0.0599
s 1
f 1//1 3//3 4//4
f 5//5 3//3 2//2
f 8//8 1//1 7//7
f 8//8 5//5 2//2
f 11//11 13//13 10//10
f 14//14 12//12 11//11
f 4//4 11//11 10//10
f 6//6 11//11 3//3
f 16//16 18//18 19//19
f 20//20 18//18 17//17
f 12//12 16//16 13//13
f 12//12 20//20 17//17
f 23//23 7//7 22//22
f 23//23 9//9 8//8
f 19//19 23//23 22//22
f 18//18 24//24 23//23
f 26//26 28//28 25//25
f 1//1 27//27 26//26
f 29//29 26//26 25//25
f 30//30 1//1 26//26
f 32//32 34//34 31//31
f 10//10 33//33 32//32
f 27//27 31//31 28//28
f 4//4 32//32 27//27
f 36//36 38//38 35//35
f 16//16 37//37 36//36
f 34//34 36//36 35//35
f 33//33 16//16 36//36
f 39//39 30//30 29//29
f 40//40 7//7 30//30
f 38//38 40//40 39//39
f 37//37 22//22 40//40
f 41//41 43//43 44//44
f 42//42 28//28 43//43
f 46//46 41//41 45//45
f 29//29 42//42 46//46
f 47//47 49//49 50//50
f 31//31 49//49 48//48
f 44//44 48//48 47//47
f 43//43 31//31 48//48
f 51//51 53//53 54//54
f 52//52 38//38 53//53
f 49//49 51//51 50//50
f 34//34 52//52 49//49
f 56//56 45//45 55//55
f 39//39 46//46 56//56
f 53//53 55//55 54//54
f 53//53 39//39 56//56
f 59//59 57//57 58//58
f 57//57 44//44 58//58
f 60//60 57//57 59//59
f 45//45 57//57 61//61
f 62//62 64//64 65//65
f 63//63 50//50 64//64
f 58//58 62//62 59//59
f 58//58 47//47 63//63
f 67//67 69//69 66//66
f 67//67 54//54 68//68
f 65//65 67//67 66//66
f 50//50 67//67 64//64
f 70//70 61//61 60//60
f 55//55 61//61 71//71
f 68//68 70//70 69//69
f 54//54 71//71 68//68
f 1//1 2//2 3//3
f 5//5 6//6 3//3
f 8//8 2//2 1//1
f 8//8 9//9 5//5
f 11//11 12//12 13//13
f 14//14 15//15 12//12
f 4//4 3//3 11//11
f 6//6 14//14 11//11
f 16//16 17//17 18//18
f 20//20 21//21 18//18
f 12//12 17//17 16//16
f 12//12 15//15 20//20
f 23//23 8//8 7//7
f 23//23 24//24 9//9
f 19//19 18//18 23//23
f 18//18 21//21 24//24
f 26//26 27//27 28//28
f 1//1 4//4 27//27
f 29//29 30//30 26//26
f 30//30 7//7 1//1
f 32//32 33//33 34//34
f 10//10 13//13 33//33
f 27//27 32//32 31//31
f 4//4 10//10 32//32
f 36//36 37//37 38//38
f 16//16 19//19 37//37
f 34//34 33//33 36//36
f 33//33 13//13 16//16
f 39//39 40//40 30//30
f 40//40 22//22 7//7
f 38//38 37//37 40//40
f 37//37 19//19 22//22
f 41//41 42//42 43//43
f 42//42 25//25 28//28
f 46//46 42//42 41//41
f 29//29 25//25 42//42
f 47//47 48//48 49//49
f 31//31 34//34 49//49
f 44//44 43//43 48//48
f 43//43 28//28 31//31
f 51//51 52//52 53//53
f 52//52 35//35 38//38
f 49//49 52//52 51//51
f 34//34 35//35 52//52
f 56//56 46//46 45//45
f 39//39 29//29 46//46
f 53//53 56//56 55//55
f 53//53 38//38 39//39
f 57//57 41//41 44//44
f 60//60 61//61 57//57
f 45//45 41//41 57//57
f 62//62 63//63 64//64
f 63//63 47//47 50//50
f 58//58 63//63 62//62
f 58//58 44//44 47//47
f 67//67 68//68 69//69
f 67//67 51//51 54//54
f 65//65 64//64 67//67
f 50//50 51//51 67//67
f 70//70 71//71 61//61
f 55//55 45//45 61//61
f 68//68 71//71 70//70
f 54//54 55//55 71//71
