# Blender 5.2.0 LTS
# www.blender.org
o Teaspoon_LOD2_4
v 0.056083 0.000000 -0.058036
v 0.051262 0.070070 -0.053351
v 0.097937 0.072268 -0.015067
v 0.107143 0.000000 -0.017857
v 0.038557 0.132117 -0.041544
v 0.073674 0.138395 -0.008929
v 0.020605 0.178188 -0.025985
v 0.039387 0.186664 -0.002790
v 0.000107 0.205357 0.000000
v 0.000000 0.000000 -0.071429
v -0.000000 0.069338 -0.066112
v -0.000000 0.130024 -0.052415
v -0.000000 0.175363 -0.033716
v 0.000000 0.198661 -0.013393
v -0.056083 0.000000 -0.058036
v -0.051262 0.070070 -0.053351
v -0.038557 0.132117 -0.041544
v -0.020605 0.178188 -0.025985
v 0.000000 0.200335 -0.010045
v -0.107143 0.000000 -0.017857
v -0.097937 0.072268 -0.015067
v -0.073674 0.138395 -0.008929
v -0.039387 0.186664 -0.002790
v -0.000107 0.205357 0.000000
v 0.131941 0.000000 -0.005929
v 0.120604 0.073994 -0.003772
v 0.114260 0.073663 -0.015067
v 0.125000 0.000000 -0.017857
v 0.090727 0.143731 0.000526
v 0.085953 0.142859 -0.008929
v 0.048507 0.195139 0.003706
v 0.045951 0.194197 -0.002790
v 0.000140 0.214146 0.002511
v 0.000125 0.214286 0.000000
v 0.128627 0.000000 -0.002790
v 0.117576 0.073698 -0.000774
v 0.088450 0.142719 0.003099
v 0.047291 0.193255 0.005562
v 0.000139 0.211496 0.003348
v 0.119036 0.000000 -0.007185
v 0.108809 0.073035 -0.004921
v 0.081855 0.140662 -0.000341
v 0.043764 0.189960 0.003241
v 0.000127 0.208008 0.002511
v -0.065848 0.000000 -0.068080
v -0.060190 0.071465 -0.062544
v -0.114260 0.073663 -0.015067
v -0.125000 0.000000 -0.017857
v -0.045277 0.136581 -0.048479
v -0.085953 0.142859 -0.008929
v -0.024200 0.185722 -0.029707
v -0.045951 0.194197 -0.002790
v -0.000051 0.209263 -0.010045
v -0.000125 0.214286 0.000000
v 0.000000 0.000000 -0.084822
v 0.000000 0.070733 -0.078369
v 0.000000 0.134488 -0.061663
v 0.000000 0.182897 -0.038679
v 0.000000 0.207589 -0.013393
v 0.065848 0.000000 -0.068080
v 0.060190 0.071465 -0.062544
v 0.045277 0.136581 -0.048479
v 0.024200 0.185722 -0.029707
v 0.000051 0.209263 -0.010045
v -0.119036 0.000000 -0.007185
v -0.108809 0.073035 -0.004921
v -0.081855 0.140662 -0.000341
v -0.043764 0.189960 0.003241
v -0.000127 0.208008 0.002511
v -0.128627 0.000000 -0.002790
v -0.117576 0.073698 -0.000774
v -0.088450 0.142719 0.003099
v -0.047291 0.193255 0.005562
v -0.000139 0.211495 0.003348
v -0.131941 0.000000 -0.005929
v -0.120604 0.073994 -0.003772
v -0.090727 0.143731 0.000526
v -0.048507 0.195139 0.003706
v -0.000140 0.214146 0.002511
v 0.007010 -0.250000 0.053571
v 0.014677 -0.193359 0.029854
v 0.028041 -0.193359 0.036132
v 0.013393 -0.250000 0.053571
v 0.031546 -0.145089 -0.007813
v 0.060268 -0.145089 0.012276
v 0.048415 -0.086774 -0.042690
v 0.092495 -0.086774 -0.008789
v 0.000000 -0.250000 0.053571
v 0.000000 -0.193359 0.027762
v 0.000000 -0.145089 -0.014509
v 0.000000 -0.086774 -0.053990
v -0.007010 -0.250000 0.053571
v -0.014677 -0.193359 0.029854
v -0.031546 -0.145089 -0.007813
v -0.048415 -0.086774 -0.042690
v -0.013393 -0.250000 0.053571
v -0.028041 -0.193359 0.036132
v -0.060268 -0.145089 0.012276
v -0.092495 -0.086774 -0.008789
v 0.016493 -0.250000 0.046745
v 0.034531 -0.193359 0.032236
v 0.032715 -0.193359 0.028599
v 0.015625 -0.250000 0.044643
v 0.074217 -0.145089 0.014827
v 0.070312 -0.145089 0.007812
v 0.113902 -0.086774 0.000208
v 0.107910 -0.086774 -0.010184
v 0.016079 -0.250000 0.049735
v 0.033664 -0.193359 0.035250
v 0.072353 -0.145089 0.017892
v 0.111042 -0.086774 0.003324
v 0.014880 -0.250000 0.052412
v 0.031154 -0.193359 0.036822
v 0.066958 -0.145089 0.017033
v 0.102762 -0.086774 0.000034
v -0.008701 -0.250000 0.039934
v -0.017630 -0.193359 0.016779
v -0.032715 -0.193359 0.028599
v -0.015625 -0.250000 0.044643
v -0.037275 -0.145089 -0.019654
v -0.070312 -0.145089 0.007812
v -0.056919 -0.086774 -0.053296
v -0.107910 -0.086774 -0.010184
v -0.000418 -0.250000 0.038783
v -0.000353 -0.193359 0.013192
v -0.000209 -0.145089 -0.028600
v -0.000065 -0.086774 -0.067601
v 0.008074 -0.250000 0.040562
v 0.017102 -0.193359 0.017308
v 0.036961 -0.145089 -0.019340
v 0.056821 -0.086774 -0.053198
v -0.014841 -0.250000 0.052490
v -0.031121 -0.193359 0.036888
v -0.066938 -0.145089 0.017072
v -0.102756 -0.086774 0.000047
v -0.015974 -0.250000 0.049944
v -0.033576 -0.193359 0.035426
v -0.072301 -0.145089 0.017996
v -0.111025 -0.086774 0.003357
v -0.016375 -0.250000 0.046980
v -0.034432 -0.193359 0.032434
v -0.074158 -0.145089 0.014944
v -0.113883 -0.086774 0.000245
v 0.020647 -0.857143 0.040737
v 0.018516 -0.717071 0.055298
v 0.039760 -0.717071 0.051060
v 0.044643 -0.857143 0.035714
v 0.013829 -0.566951 0.067243
v 0.029018 -0.566951 0.064732
v 0.009141 -0.410141 0.069144
v 0.018276 -0.410141 0.068359
v -0.000000 -0.857143 0.042411
v -0.000000 -0.717071 0.056710
v -0.000000 -0.566951 0.068080
v 0.000000 -0.410141 0.069406
v -0.020647 -0.857143 0.040737
v -0.018516 -0.717071 0.055298
v -0.013829 -0.566951 0.067243
v -0.009141 -0.410141 0.069144
v -0.044643 -0.857143 0.035714
v -0.039760 -0.717071 0.051060
v -0.029018 -0.566951 0.064732
v -0.018276 -0.410141 0.068359
v 0.049665 -0.857143 0.019392
v 0.044482 -0.717071 0.036221
v 0.040109 -0.717071 0.034598
v 0.044643 -0.857143 0.017857
v 0.033079 -0.566953 0.053157
v 0.030134 -0.566951 0.051339
v 0.021676 -0.410143 0.060049
v 0.020159 -0.410141 0.058036
v 0.051339 -0.857143 0.025112
v 0.045830 -0.717073 0.041515
v 0.033709 -0.566956 0.057513
v 0.021588 -0.410147 0.063466
v 0.049665 -0.857143 0.031668
v 0.044230 -0.717073 0.047465
v 0.032272 -0.566956 0.062129
v 0.020315 -0.410148 0.066749
v -0.020647 -0.857143 0.022879
v -0.018781 -0.717071 0.038100
v -0.040109 -0.717071 0.034598
v -0.044643 -0.857143 0.017857
v -0.014674 -0.566953 0.051496
v -0.030134 -0.566951 0.051339
v -0.010568 -0.410143 0.054848
v -0.020159 -0.410141 0.058036
v 0.000000 -0.857143 0.024554
v -0.000065 -0.717073 0.039333
v -0.000209 -0.566956 0.051758
v -0.000353 -0.410147 0.054138
v 0.020647 -0.857143 0.022879
v 0.018683 -0.717073 0.038198
v 0.014361 -0.566956 0.051810
v 0.010039 -0.410148 0.055377
v -0.049665 -0.857143 0.031668
v -0.044224 -0.717074 0.047478
v -0.032253 -0.566958 0.062169
v -0.020282 -0.410150 0.066815
v -0.051339 -0.857143 0.025112
v -0.045813 -0.717075 0.041547
v -0.033657 -0.566961 0.057617
v -0.021500 -0.410153 0.063642
v -0.049665 -0.857143 0.019392
v -0.044464 -0.717074 0.036258
v -0.033020 -0.566958 0.053275
v -0.021577 -0.410150 0.060247
v 0.000045 -1.000000 0.017857
v 0.012445 -0.987573 0.020428
v 0.029576 -0.987573 0.019643
v 0.018507 -0.955223 0.026618
v 0.042411 -0.955223 0.024107
v 0.020489 -0.909548 0.034148
v 0.045201 -0.909548 0.029911
v 0.000075 -0.987573 0.020689
v 0.000045 -0.955223 0.027455
v 0.000014 -0.909548 0.035561
v -0.012408 -0.987573 0.020428
v -0.018485 -0.955223 0.026618
v -0.020482 -0.909548 0.034148
v -0.000357 -1.000000 0.017857
v -0.029877 -0.987573 0.019643
v -0.042589 -0.955223 0.024107
v -0.045257 -0.909548 0.029911
v 0.000301 -1.000000 0.002790
v 0.033793 -0.987573 0.004380
v 0.029877 -0.987573 0.001786
v 0.000357 -1.000000 -0.000000
v 0.047898 -0.955223 0.008412
v 0.042589 -0.955223 0.006250
v 0.050545 -0.909548 0.013784
v 0.045257 -0.909548 0.012054
v 0.000179 -1.000000 0.008929
v 0.035010 -0.987573 0.010453
v 0.049615 -0.955223 0.014341
v 0.052291 -0.909548 0.019570
v 0.000056 -1.000000 0.015067
v 0.033586 -0.987573 0.016656
v 0.047775 -0.955223 0.020689
v 0.050507 -0.909548 0.026061
v -0.000246 -1.000000 -0.000000
v -0.012615 -0.987573 0.002570
v -0.029877 -0.987573 0.001786
v -0.000357 -1.000000 -0.000000
v -0.018608 -0.955223 0.008761
v -0.042589 -0.955223 0.006250
v -0.020520 -0.909548 0.016291
v -0.045257 -0.909548 0.012054
v 0.000000 -1.000000 -0.000000
v 0.000000 -0.987573 0.002832
v 0.000000 -0.955223 0.009598
v 0.000000 -0.909548 0.017704
v 0.000246 -1.000000 -0.000000
v 0.012615 -0.987573 0.002570
v 0.018608 -0.955223 0.008761
v 0.020520 -0.909548 0.016291
v -0.000432 -1.000000 0.015067
v -0.033904 -0.987573 0.016656
v -0.047963 -0.955223 0.020689
v -0.050565 -0.909548 0.026061
v -0.000424 -1.000000 0.008929
v -0.035218 -0.987573 0.010453
v -0.049738 -0.955223 0.014341
v -0.052330 -0.909548 0.019570
v -0.000382 -1.000000 0.002790
v -0.033861 -0.987573 0.004380
v -0.047938 -0.955223 0.008412
v -0.050558 -0.909548 0.013784
vn -0.4376 0.0489 0.8979
vn -0.4433 -0.1728 0.8796
vn -0.6378 -0.2022 0.7431
vn -0.6440 0.0361 0.7641
vn -0.4370 -0.3330 0.8356
vn -0.6031 -0.3836 0.6993
vn -0.3796 -0.5685 0.7299
vn -0.4623 -0.6178 0.6361
vn -0.3107 -0.7416 0.5946
vn -0.0000 0.0578 0.9983
vn -0.0000 -0.1507 0.9886
vn -0.0000 -0.2952 0.9554
vn -0.0000 -0.5124 0.8588
vn -0.0000 -0.8432 0.5376
vn 0.4376 0.0489 0.8979
vn 0.4433 -0.1728 0.8796
vn 0.4370 -0.3330 0.8356
vn 0.3796 -0.5685 0.7299
vn -0.0000 -0.8706 0.4920
vn 0.6441 0.0361 0.7641
vn 0.6378 -0.2022 0.7431
vn 0.6031 -0.3836 0.6993
vn 0.4623 -0.6178 0.6361
vn 0.3107 -0.7416 0.5946
vn 0.9930 -0.0231 0.1161
vn 0.9569 0.2585 0.1325
vn 0.7521 0.2410 -0.6135
vn 0.7707 -0.0338 -0.6363
vn 0.8541 0.4966 0.1544
vn 0.6925 0.4540 -0.5606
vn 0.5791 0.7738 0.2566
vn 0.5221 0.7222 -0.4537
vn 0.3292 0.7950 0.5095
vn 0.3867 0.9061 -0.1717
vn 0.2276 0.0122 0.9737
vn 0.2097 0.0285 0.9774
vn 0.1993 0.0776 0.9769
vn 0.1170 0.1623 0.9798
vn 0.0141 0.0981 0.9951
vn -0.5390 0.0329 0.8416
vn -0.5351 -0.1821 0.8249
vn -0.4909 -0.3346 0.8044
vn -0.3451 -0.4706 0.8121
vn -0.1825 -0.4231 0.8875
vn -0.4625 -0.0427 -0.8856
vn -0.4614 0.1953 -0.8654
vn -0.7521 0.2410 -0.6135
vn -0.7707 -0.0339 -0.6363
vn -0.4449 0.3748 -0.8134
vn -0.6925 0.4540 -0.5606
vn -0.3745 0.6091 -0.6991
vn -0.5221 0.7222 -0.4537
vn -0.3683 0.8166 -0.4444
vn -0.3867 0.9061 -0.1717
vn 0.0002 -0.0493 -0.9988
vn -0.0000 0.1735 -0.9848
vn -0.0000 0.3351 -0.9422
vn -0.0000 0.5637 -0.8260
vn -0.0000 0.8528 -0.5222
vn 0.4623 -0.0431 -0.8857
vn 0.4614 0.1953 -0.8654
vn 0.4449 0.3748 -0.8134
vn 0.3745 0.6091 -0.6991
vn 0.3683 0.8166 -0.4444
vn 0.5391 0.0330 0.8416
vn 0.5351 -0.1821 0.8249
vn 0.4909 -0.3346 0.8044
vn 0.3451 -0.4706 0.8121
vn 0.1825 -0.4231 0.8875
vn -0.2276 0.0123 0.9737
vn -0.2097 0.0285 0.9774
vn -0.1993 0.0776 0.9769
vn -0.1170 0.1623 0.9798
vn -0.0141 0.0981 0.9951
vn -0.9930 -0.0232 0.1160
vn -0.9569 0.2585 0.1325
vn -0.8541 0.4966 0.1544
vn -0.5791 0.7738 0.2566
vn -0.3292 0.7950 0.5095
vn -0.0047 0.2522 0.9677
vn -0.2380 0.5330 0.8120
vn -0.2956 0.4724 0.8303
vn 0.2798 0.1899 0.9411
vn -0.3172 0.5956 0.7380
vn -0.4740 0.5730 0.6686
vn -0.3956 0.3690 0.8410
vn -0.5883 0.3627 0.7228
vn -0.0000 0.2600 0.9656
vn -0.0000 0.5430 0.8397
vn -0.0000 0.6032 0.7976
vn -0.0000 0.3732 0.9278
vn 0.0047 0.2522 0.9677
vn 0.2380 0.5330 0.8120
vn 0.3172 0.5956 0.7380
vn 0.3956 0.3690 0.8410
vn -0.2707 0.1910 0.9435
vn 0.3044 0.4748 0.8258
vn 0.4757 0.5735 0.6670
vn 0.5887 0.3628 0.7224
vn 0.9811 -0.1567 -0.1139
vn 0.8595 -0.5066 -0.0677
vn 0.6370 -0.5424 -0.5477
vn 0.7198 -0.2348 -0.6532
vn 0.8118 -0.5824 0.0425
vn 0.6046 -0.6130 -0.5086
vn 0.9290 -0.3572 0.0963
vn 0.7088 -0.3879 -0.5892
vn 0.9546 -0.0711 0.2894
vn 0.7554 -0.1811 0.6297
vn 0.4245 -0.0499 0.9041
vn 0.2943 -0.0144 0.9556
vn 0.7671 0.0399 0.6403
vn 0.1447 0.2840 0.9479
vn -0.3166 0.4934 0.8101
vn -0.4773 0.3316 0.8138
vn -0.3504 -0.2519 -0.9021
vn -0.3521 -0.5435 -0.7620
vn -0.6550 -0.5443 -0.5242
vn -0.7764 -0.2224 -0.5897
vn -0.3577 -0.5995 -0.7160
vn -0.6100 -0.6127 -0.5026
vn -0.4240 -0.3723 -0.8256
vn -0.7101 -0.3881 -0.5875
vn 0.0347 -0.2600 -0.9650
vn 0.0126 -0.5465 -0.8374
vn 0.0034 -0.6005 -0.7996
vn 0.0011 -0.3714 -0.9285
vn 0.3298 -0.2512 -0.9100
vn 0.3449 -0.5405 -0.7674
vn 0.3549 -0.6008 -0.7163
vn 0.4229 -0.3738 -0.8255
vn -0.7602 0.0425 0.6483
vn -0.1238 0.2931 0.9480
vn 0.3237 0.4972 0.8050
vn 0.4787 0.3325 0.8126
vn -0.9553 -0.0716 0.2869
vn -0.7488 -0.1731 0.6398
vn -0.4197 -0.0456 0.9065
vn -0.2933 -0.0135 0.9559
vn -0.9856 -0.1506 -0.0767
vn -0.8632 -0.5025 -0.0495
vn -0.8128 -0.5806 0.0479
vn -0.9289 -0.3572 0.0977
vn 0.1416 -0.1132 0.9834
vn 0.1354 -0.0880 0.9869
vn 0.4246 -0.0673 0.9029
vn 0.4256 -0.0925 0.9002
vn 0.1113 -0.0427 0.9929
vn 0.4055 -0.0227 0.9138
vn 0.0568 0.0434 0.9974
vn 0.3623 0.0514 0.9307
vn -0.0000 -0.1158 0.9933
vn -0.0000 -0.0892 0.9960
vn -0.0000 -0.0429 0.9991
vn -0.0000 0.0444 0.9990
vn -0.1416 -0.1132 0.9834
vn -0.1354 -0.0880 0.9869
vn -0.1113 -0.0427 0.9929
vn -0.0568 0.0434 0.9974
vn -0.4255 -0.0924 0.9002
vn -0.4241 -0.0673 0.9031
vn -0.4035 -0.0229 0.9147
vn -0.3567 0.0512 0.9328
vn 0.7094 0.0977 -0.6980
vn 0.7421 0.1185 -0.6597
vn 0.0953 0.1191 -0.9883
vn 0.0493 0.1180 -0.9918
vn 0.8350 0.1043 -0.5403
vn 0.2565 0.0881 -0.9625
vn 0.9543 0.0449 -0.2956
vn 0.5574 0.0027 -0.8302
vn 0.9994 0.0297 -0.0174
vn 0.9983 0.0580 0.0083
vn 0.9939 0.0716 0.0841
vn 0.9773 0.0604 0.2029
vn 0.8412 -0.0377 0.5395
vn 0.8380 -0.0080 0.5457
vn 0.8223 0.0270 0.5684
vn 0.7969 0.0617 0.6010
vn 0.1407 0.1169 -0.9831
vn 0.1115 0.0988 -0.9888
vn -0.1015 0.1195 -0.9876
vn -0.0493 0.1180 -0.9918
vn 0.0117 0.0586 -0.9982
vn -0.2840 0.0890 -0.9547
vn -0.1951 -0.0299 -0.9803
vn -0.6144 0.0054 -0.7890
vn 0.0001 0.1183 -0.9930
vn 0.0029 0.0962 -0.9954
vn 0.0111 0.0521 -0.9986
vn 0.0249 -0.0383 -0.9990
vn -0.1408 0.1170 -0.9831
vn -0.1111 0.0992 -0.9888
vn -0.0114 0.0589 -0.9982
vn 0.1871 -0.0299 -0.9819
vn -0.8411 -0.0373 0.5395
vn -0.8379 -0.0080 0.5458
vn -0.8218 0.0269 0.5692
vn -0.7941 0.0617 0.6047
vn -0.9994 0.0303 -0.0175
vn -0.9983 0.0583 0.0076
vn -0.9940 0.0719 0.0819
vn -0.9780 0.0604 0.1997
vn -0.7094 0.0980 -0.6980
vn -0.7448 0.1187 -0.6567
vn -0.8444 0.1040 -0.5255
vn -0.9640 0.0461 -0.2618
vn 0.1869 -0.6061 0.7731
vn 0.0369 -0.2191 0.9750
vn 0.3002 -0.5453 0.7827
vn 0.0719 -0.1786 0.9813
vn 0.3479 -0.2080 0.9142
vn 0.1162 -0.1363 0.9838
vn 0.3906 -0.1163 0.9132
vn 0.0001 -0.2134 0.9770
vn 0.0001 -0.1863 0.9825
vn -0.0000 -0.1468 0.9892
vn -0.0362 -0.2182 0.9752
vn -0.0713 -0.1785 0.9813
vn -0.1159 -0.1362 0.9839
vn -0.1853 -0.5944 0.7825
vn -0.2998 -0.5441 0.7837
vn -0.3473 -0.2067 0.9147
vn -0.3902 -0.1156 0.9134
vn 0.3676 -0.9300 -0.0064
vn 0.6431 -0.5983 -0.4780
vn 0.2675 -0.3423 -0.9007
vn 0.2019 -0.2948 -0.9340
vn 0.7552 -0.1117 -0.6459
vn 0.1643 0.0831 -0.9829
vn 0.7207 0.0615 -0.6905
vn 0.0798 0.1135 -0.9903
vn 0.3462 -0.9382 0.0068
vn 0.7069 -0.7073 -0.0005
vn 0.9734 -0.2289 -0.0044
vn 0.9997 -0.0196 -0.0113
vn 0.3653 -0.9307 0.0180
vn 0.6137 -0.6759 0.4082
vn 0.7870 -0.2505 0.5638
vn 0.8213 -0.0818 0.5646
vn 0.0051 0.2171 -0.9761
vn 0.0365 0.2187 -0.9751
vn -0.2648 -0.3394 -0.9026
vn -0.1981 -0.2854 -0.9377
vn 0.0716 0.1785 -0.9813
vn -0.1628 0.0837 -0.9831
vn 0.1160 0.1361 -0.9839
vn -0.0794 0.1136 -0.9903
vn -0.0000 0.2222 -0.9750
vn -0.0000 0.2133 -0.9770
vn -0.0000 0.1863 -0.9825
vn -0.0000 0.1468 -0.9892
vn -0.0051 0.2171 -0.9761
vn -0.0365 0.2187 -0.9751
vn -0.0716 0.1785 -0.9813
vn -0.1160 0.1361 -0.9839
vn -0.3656 -0.9306 0.0183
vn -0.6176 -0.6747 0.4043
vn -0.7899 -0.2484 0.5606
vn -0.8221 -0.0802 0.5637
vn -0.3468 -0.9379 -0.0015
vn -0.7085 -0.7055 -0.0144
vn -0.9740 -0.2259 -0.0150
vn -0.9997 -0.0179 -0.0149
vn -0.3684 -0.9295 -0.0167
vn -0.6380 -0.5960 -0.4876
vn -0.7504 -0.1091 -0.6519
vn -0.7189 0.0624 -0.6923
s 1
f 1//1 4//4 3//3
f 2//2 3//3 6//6
f 7//7 5//5 6//6
f 19//19 7//7 8//8
f 10//10 1//1 2//2
f 11//11 2//2 5//5
f 13//13 12//12 5//5
f 14//14 13//13 7//7
f 16//16 15//15 10//10
f 17//17 16//16 11//11
f 17//17 12//12 13//13
f 18//18 13//13 14//14
f 21//21 20//20 15//15
f 22//22 21//21 16//16
f 22//22 17//17 18//18
f 23//23 18//18 19//19
f 26//26 25//25 28//28
f 29//29 26//26 27//27
f 31//31 29//29 30//30
f 33//33 31//31 32//32
f 35//35 25//25 26//26
f 36//36 26//26 29//29
f 37//37 29//29 31//31
f 39//39 38//38 31//31
f 40//40 35//35 36//36
f 41//41 36//36 37//37
f 42//42 37//37 38//38
f 43//43 38//38 39//39
f 4//4 40//40 41//41
f 3//3 41//41 42//42
f 6//6 42//42 43//43
f 8//8 43//43 44//44
f 45//45 48//48 47//47
f 46//46 47//47 50//50
f 49//49 50//50 52//52
f 53//53 51//51 52//52
f 55//55 45//45 46//46
f 56//56 46//46 49//49
f 58//58 57//57 49//49
f 59//59 58//58 51//51
f 61//61 60//60 55//55
f 62//62 61//61 56//56
f 62//62 57//57 58//58
f 63//63 58//58 59//59
f 27//27 28//28 60//60
f 30//30 27//27 61//61
f 32//32 30//30 62//62
f 32//32 63//63 64//64
f 66//66 65//65 20//20
f 67//67 66//66 21//21
f 68//68 67//67 22//22
f 69//69 68//68 23//23
f 71//71 70//70 65//65
f 72//72 71//71 66//66
f 73//73 72//72 67//67
f 74//74 73//73 68//68
f 76//76 75//75 70//70
f 77//77 76//76 71//71
f 78//78 77//77 72//72
f 78//78 73//73 74//74
f 48//48 75//75 76//76
f 47//47 76//76 77//77
f 50//50 77//77 78//78
f 52//52 78//78 79//79
f 81//81 80//80 83//83
f 84//84 81//81 82//82
f 86//86 84//84 85//85
f 1//1 86//86 87//87
f 89//89 88//88 80//80
f 90//90 89//89 81//81
f 91//91 90//90 84//84
f 91//91 86//86 1//1
f 92//92 88//88 89//89
f 93//93 89//89 90//90
f 94//94 90//90 91//91
f 15//15 95//95 91//91
f 96//96 92//92 93//93
f 97//97 93//93 94//94
f 98//98 94//94 95//95
f 99//99 95//95 15//15
f 101//101 100//100 103//103
f 101//101 102//102 105//105
f 104//104 105//105 107//107
f 106//106 107//107 28//28
f 109//109 108//108 100//100
f 110//110 109//109 101//101
f 111//111 110//110 104//104
f 35//35 111//111 106//106
f 113//113 112//112 108//108
f 114//114 113//113 109//109
f 115//115 114//114 110//110
f 40//40 115//115 111//111
f 82//82 83//83 112//112
f 85//85 82//82 113//113
f 87//87 85//85 114//114
f 4//4 87//87 115//115
f 116//116 119//119 118//118
f 120//120 117//117 118//118
f 122//122 120//120 121//121
f 45//45 122//122 123//123
f 125//125 124//124 116//116
f 126//126 125//125 117//117
f 127//127 126//126 120//120
f 55//55 127//127 122//122
f 129//129 128//128 124//124
f 129//129 125//125 126//126
f 130//130 126//126 127//127
f 131//131 127//127 55//55
f 103//103 128//128 129//129
f 102//102 129//129 130//130
f 105//105 130//130 131//131
f 107//107 131//131 60//60
f 132//132 96//96 97//97
f 133//133 97//97 98//98
f 134//134 98//98 99//99
f 135//135 99//99 20//20
f 136//136 132//132 133//133
f 137//137 133//133 134//134
f 138//138 134//134 135//135
f 139//139 135//135 65//65
f 140//140 136//136 137//137
f 141//141 137//137 138//138
f 142//142 138//138 139//139
f 143//143 139//139 70//70
f 119//119 140//140 141//141
f 118//118 141//141 142//142
f 123//123 121//121 142//142
f 48//48 123//123 143//143
f 144//144 147//147 146//146
f 145//145 146//146 149//149
f 148//148 149//149 151//151
f 150//150 151//151 83//83
f 152//152 144//144 145//145
f 153//153 145//145 148//148
f 154//154 148//148 150//150
f 155//155 150//150 80//80
f 157//157 156//156 152//152
f 158//158 157//157 153//153
f 159//159 158//158 154//154
f 92//92 159//159 155//155
f 161//161 160//160 156//156
f 162//162 161//161 157//157
f 163//163 162//162 158//158
f 96//96 163//163 159//159
f 164//164 167//167 166//166
f 168//168 165//165 166//166
f 170//170 168//168 169//169
f 100//100 170//170 171//171
f 172//172 164//164 165//165
f 173//173 165//165 168//168
f 174//174 168//168 170//170
f 108//108 175//175 170//170
f 176//176 172//172 173//173
f 177//177 173//173 174//174
f 178//178 174//174 175//175
f 112//112 179//179 175//175
f 147//147 176//176 177//177
f 146//146 177//177 178//178
f 149//149 178//178 179//179
f 83//83 151//151 179//179
f 180//180 183//183 182//182
f 181//181 182//182 185//185
f 184//184 185//185 187//187
f 186//186 187//187 119//119
f 188//188 180//180 181//181
f 189//189 181//181 184//184
f 190//190 184//184 186//186
f 191//191 186//186 116//116
f 193//193 192//192 188//188
f 194//194 193//193 189//189
f 195//195 194//194 190//190
f 128//128 195//195 191//191
f 166//166 167//167 192//192
f 169//169 166//166 193//193
f 171//171 169//169 194//194
f 103//103 171//171 195//195
f 197//197 196//196 160//160
f 198//198 197//197 161//161
f 199//199 198//198 162//162
f 199//199 163//163 96//96
f 201//201 200//200 196//196
f 202//202 201//201 197//197
f 203//203 202//202 198//198
f 203//203 199//199 132//132
f 205//205 204//204 200//200
f 206//206 205//205 201//201
f 207//207 206//206 202//202
f 207//207 203//203 136//136
f 182//182 183//183 204//204
f 182//182 205//205 206//206
f 185//185 206//206 207//207
f 187//187 207//207 140//140
f 208//208 210//210 209//209
f 211//211 209//209 210//210
f 213//213 211//211 212//212
f 213//213 214//214 147//147
f 208//208 209//209 215//215
f 216//216 215//215 209//209
f 217//217 216//216 211//211
f 217//217 213//213 144//144
f 208//208 215//215 218//218
f 218//218 215//215 216//216
f 219//219 216//216 217//217
f 156//156 220//220 217//217
f 221//221 208//208 218//218
f 222//222 218//218 219//219
f 223//223 219//219 220//220
f 160//160 224//224 220//220
f 225//225 228//228 227//227
f 226//226 227//227 230//230
f 229//229 230//230 232//232
f 231//231 232//232 167//167
f 233//233 225//225 226//226
f 234//234 226//226 229//229
f 235//235 229//229 231//231
f 236//236 231//231 164//164
f 238//238 237//237 233//233
f 238//238 234//234 235//235
f 239//239 235//235 236//236
f 240//240 236//236 172//172
f 210//210 208//208 237//237
f 212//212 210//210 238//238
f 212//212 239//239 240//240
f 214//214 240//240 176//176
f 242//242 241//241 244//244
f 245//245 242//242 243//243
f 247//247 245//245 246//246
f 247//247 248//248 183//183
f 250//250 249//249 241//241
f 251//251 250//250 242//242
f 252//252 251//251 245//245
f 252//252 247//247 180//180
f 253//253 249//249 250//250
f 254//254 250//250 251//251
f 255//255 251//251 252//252
f 192//192 256//256 252//252
f 228//228 253//253 254//254
f 227//227 254//254 255//255
f 230//230 255//255 256//256
f 167//167 232//232 256//256
f 257//257 221//221 222//222
f 258//258 222//222 223//223
f 260//260 259//259 223//223
f 196//196 260//260 224//224
f 261//261 257//257 258//258
f 263//263 262//262 258//258
f 264//264 263//263 259//259
f 200//200 264//264 260//260
f 266//266 265//265 261//261
f 267//267 266//266 262//262
f 268//268 267//267 263//263
f 204//204 268//268 264//264
f 243//243 244//244 265//265
f 246//246 243//243 266//266
f 248//248 246//246 267//267
f 183//183 248//248 268//268
f 1//1 3//3 2//2
f 2//2 6//6 5//5
f 7//7 6//6 8//8
f 19//19 8//8 9//9
f 10//10 2//2 11//11
f 11//11 5//5 12//12
f 13//13 5//5 7//7
f 14//14 7//7 19//19
f 16//16 10//10 11//11
f 17//17 11//11 12//12
f 17//17 13//13 18//18
f 18//18 14//14 19//19
f 21//21 15//15 16//16
f 22//22 16//16 17//17
f 22//22 18//18 23//23
f 23//23 19//19 24//24
f 26//26 28//28 27//27
f 29//29 27//27 30//30
f 31//31 30//30 32//32
f 33//33 32//32 34//34
f 35//35 26//26 36//36
f 36//36 29//29 37//37
f 37//37 31//31 38//38
f 39//39 31//31 33//33
f 40//40 36//36 41//41
f 41//41 37//37 42//42
f 42//42 38//38 43//43
f 43//43 39//39 44//44
f 4//4 41//41 3//3
f 3//3 42//42 6//6
f 6//6 43//43 8//8
f 8//8 44//44 9//9
f 45//45 47//47 46//46
f 46//46 50//50 49//49
f 49//49 52//52 51//51
f 53//53 52//52 54//54
f 55//55 46//46 56//56
f 56//56 49//49 57//57
f 58//58 49//49 51//51
f 59//59 51//51 53//53
f 61//61 55//55 56//56
f 62//62 56//56 57//57
f 62//62 58//58 63//63
f 63//63 59//59 64//64
f 27//27 60//60 61//61
f 30//30 61//61 62//62
f 32//32 62//62 63//63
f 32//32 64//64 34//34
f 66//66 20//20 21//21
f 67//67 21//21 22//22
f 68//68 22//22 23//23
f 69//69 23//23 24//24
f 71//71 65//65 66//66
f 72//72 66//66 67//67
f 73//73 67//67 68//68
f 74//74 68//68 69//69
f 76//76 70//70 71//71
f 77//77 71//71 72//72
f 78//78 72//72 73//73
f 78//78 74//74 79//79
f 48//48 76//76 47//47
f 47//47 77//77 50//50
f 50//50 78//78 52//52
f 52//52 79//79 54//54
f 81//81 83//83 82//82
f 84//84 82//82 85//85
f 86//86 85//85 87//87
f 1//1 87//87 4//4
f 89//89 80//80 81//81
f 90//90 81//81 84//84
f 91//91 84//84 86//86
f 91//91 1//1 10//10
f 92//92 89//89 93//93
f 93//93 90//90 94//94
f 94//94 91//91 95//95
f 15//15 91//91 10//10
f 96//96 93//93 97//97
f 97//97 94//94 98//98
f 98//98 95//95 99//99
f 99//99 15//15 20//20
f 101//101 103//103 102//102
f 101//101 105//105 104//104
f 104//104 107//107 106//106
f 106//106 28//28 25//25
f 109//109 100//100 101//101
f 110//110 101//101 104//104
f 111//111 104//104 106//106
f 35//35 106//106 25//25
f 113//113 108//108 109//109
f 114//114 109//109 110//110
f 115//115 110//110 111//111
f 40//40 111//111 35//35
f 82//82 112//112 113//113
f 85//85 113//113 114//114
f 87//87 114//114 115//115
f 4//4 115//115 40//40
f 116//116 118//118 117//117
f 120//120 118//118 121//121
f 122//122 121//121 123//123
f 45//45 123//123 48//48
f 125//125 116//116 117//117
f 126//126 117//117 120//120
f 127//127 120//120 122//122
f 55//55 122//122 45//45
f 129//129 124//124 125//125
f 129//129 126//126 130//130
f 130//130 127//127 131//131
f 131//131 55//55 60//60
f 103//103 129//129 102//102
f 102//102 130//130 105//105
f 105//105 131//131 107//107
f 107//107 60//60 28//28
f 132//132 97//97 133//133
f 133//133 98//98 134//134
f 134//134 99//99 135//135
f 135//135 20//20 65//65
f 136//136 133//133 137//137
f 137//137 134//134 138//138
f 138//138 135//135 139//139
f 139//139 65//65 70//70
f 140//140 137//137 141//141
f 141//141 138//138 142//142
f 142//142 139//139 143//143
f 143//143 70//70 75//75
f 119//119 141//141 118//118
f 118//118 142//142 121//121
f 123//123 142//142 143//143
f 48//48 143//143 75//75
f 144//144 146//146 145//145
f 145//145 149//149 148//148
f 148//148 151//151 150//150
f 150//150 83//83 80//80
f 152//152 145//145 153//153
f 153//153 148//148 154//154
f 154//154 150//150 155//155
f 155//155 80//80 88//88
f 157//157 152//152 153//153
f 158//158 153//153 154//154
f 159//159 154//154 155//155
f 92//92 155//155 88//88
f 161//161 156//156 157//157
f 162//162 157//157 158//158
f 163//163 158//158 159//159
f 96//96 159//159 92//92
f 164//164 166//166 165//165
f 168//168 166//166 169//169
f 170//170 169//169 171//171
f 100//100 171//171 103//103
f 172//172 165//165 173//173
f 173//173 168//168 174//174
f 174//174 170//170 175//175
f 108//108 170//170 100//100
f 176//176 173//173 177//177
f 177//177 174//174 178//178
f 178//178 175//175 179//179
f 112//112 175//175 108//108
f 147//147 177//177 146//146
f 146//146 178//178 149//149
f 149//149 179//179 151//151
f 83//83 179//179 112//112
f 180//180 182//182 181//181
f 181//181 185//185 184//184
f 184//184 187//187 186//186
f 186//186 119//119 116//116
f 188//188 181//181 189//189
f 189//189 184//184 190//190
f 190//190 186//186 191//191
f 191//191 116//116 124//124
f 193//193 188//188 189//189
f 194//194 189//189 190//190
f 195//195 190//190 191//191
f 128//128 191//191 124//124
f 166//166 192//192 193//193
f 169//169 193//193 194//194
f 171//171 194//194 195//195
f 103//103 195//195 128//128
f 197//197 160//160 161//161
f 198//198 161//161 162//162
f 199//199 162//162 163//163
f 199//199 96//96 132//132
f 201//201 196//196 197//197
f 202//202 197//197 198//198
f 203//203 198//198 199//199
f 203//203 132//132 136//136
f 205//205 200//200 201//201
f 206//206 201//201 202//202
f 207//207 202//202 203//203
f 207//207 136//136 140//140
f 182//182 204//204 205//205
f 182//182 206//206 185//185
f 185//185 207//207 187//187
f 187//187 140//140 119//119
f 211//211 210//210 212//212
f 213//213 212//212 214//214
f 213//213 147//147 144//144
f 216//216 209//209 211//211
f 217//217 211//211 213//213
f 217//217 144//144 152//152
f 218//218 216//216 219//219
f 219//219 217//217 220//220
f 156//156 217//217 152//152
f 221//221 218//218 222//222
f 222//222 219//219 223//223
f 223//223 220//220 224//224
f 160//160 220//220 156//156
f 225//225 227//227 226//226
f 226//226 230//230 229//229
f 229//229 232//232 231//231
f 231//231 167//167 164//164
f 233//233 226//226 234//234
f 234//234 229//229 235//235
f 235//235 231//231 236//236
f 236//236 164//164 172//172
f 238//238 233//233 234//234
f 238//238 235//235 239//239
f 239//239 236//236 240//240
f 240//240 172//172 176//176
f 210//210 237//237 238//238
f 212//212 238//238 239//239
f 212//212 240//240 214//214
f 214//214 176//176 147//147
f 242//242 244//244 243//243
f 245//245 243//243 246//246
f 247//247 246//246 248//248
f 247//247 183//183 180//180
f 250//250 241//241 242//242
f 251//251 242//242 245//245
f 252//252 245//245 247//247
f 252//252 180//180 188//188
f 253//253 250//250 254//254
f 254//254 251//251 255//255
f 255//255 252//252 256//256
f 192//192 252//252 188//188
f 228//228 254//254 227//227
f 227//227 255//255 230//230
f 230//230 256//256 232//232
f 167//167 256//256 192//192
f 257//257 222//222 258//258
f 258//258 223//223 259//259
f 260//260 223//223 224//224
f 196//196 224//224 160//160
f 261//261 258//258 262//262
f 263//263 258//258 259//259
f 264//264 259//259 260//260
f 200//200 260//260 196//196
f 266//266 261//261 262//262
f 267//267 262//262 263//263
f 268//268 263//263 264//264
f 204//204 264//264 200//200
f 243//243 265//265 266//266
f 246//246 266//266 267//267
f 248//248 267//267 268//268
f 183//183 268//268 204//204
